<svg width="110" height="40" viewBox="0 0 110 40" fill="none" xmlns="http://www.w3.org/2000/svg">
<g clip-path="url(#clip0_5_976)">
<path d="M108.587 0H106.493V15.2986H108.587V0Z" fill="#001081"/>
<path d="M107.451 19.1786C107.421 19.1171 107.403 19.0443 107.4 18.9614C107.396 18.8143 107.463 18.64 107.584 18.55C107.691 18.47 107.846 18.5 107.969 18.5357C108.24 18.6143 108.47 18.7814 108.716 18.9129L109.333 17.7586C108.459 17.2914 107.556 16.8071 106.657 17.6071C106.25 17.9686 106.056 18.5957 106.129 19.1929C106.147 19.3514 106.03 19.4914 105.871 19.4914H105.75V20.8H109.33V19.4914H108.094C107.834 19.4914 107.561 19.4043 107.45 19.18L107.451 19.1786Z" fill="#001081"/>
<path d="M70.9228 4.45143V6.54572C72.7743 6.54572 74.28 8.05143 74.28 9.90286C74.28 11.7543 72.7743 13.26 70.9228 13.26H66.5186V15.3543H70.9228C73.9286 15.3543 76.3743 12.9086 76.3743 9.90286C76.3743 6.89715 73.9286 4.45143 70.9228 4.45143Z" fill="#001081"/>
<path d="M98.9742 4.45143H92.5842V6.54571H98.9742C100.81 6.54571 102.304 8.04 102.304 9.87571C102.304 11.7114 100.81 13.2057 98.9742 13.2057H80.5628V0H78.4685V14.2529C78.4685 14.8314 78.9371 15.3 79.5156 15.3H98.9742C101.966 15.3 104.399 12.8671 104.399 9.87571C104.399 6.88429 101.966 4.45143 98.9742 4.45143Z" fill="#001081"/>
<path d="M98.6442 19.8043C99.3692 19.8043 99.957 19.2165 99.957 18.4914C99.957 17.7664 99.3692 17.1786 98.6442 17.1786C97.9191 17.1786 97.3313 17.7664 97.3313 18.4914C97.3313 19.2165 97.9191 19.8043 98.6442 19.8043Z" fill="#001081"/>
<path d="M58.9714 4.45143C55.9657 4.45143 53.52 6.89715 53.52 9.90286C53.52 12.9086 55.9657 15.3543 58.9714 15.3543C61.9772 15.3543 64.4229 12.9086 64.4229 9.90286C64.4229 6.89715 61.9772 4.45143 58.9714 4.45143ZM58.9714 13.26C57.12 13.26 55.6143 11.7543 55.6143 9.90286C55.6143 8.05143 57.12 6.54572 58.9714 6.54572C60.8229 6.54572 62.3286 8.05143 62.3286 9.90286C62.3286 11.7543 60.8229 13.26 58.9714 13.26Z" fill="#001081"/>
<path d="M60.6742 2.62571C61.3993 2.62571 61.987 2.03793 61.987 1.31286C61.987 0.587786 61.3993 0 60.6742 0C59.9491 0 59.3613 0.587786 59.3613 1.31286C59.3613 2.03793 59.9491 2.62571 60.6742 2.62571Z" fill="#001081"/>
<path d="M57.2701 2.62571C57.9952 2.62571 58.583 2.03793 58.583 1.31286C58.583 0.587786 57.9952 0 57.2701 0C56.5451 0 55.9573 0.587786 55.9573 1.31286C55.9573 2.03793 56.5451 2.62571 57.2701 2.62571Z" fill="#001081"/>
<path d="M65.0085 40V37.9057C66.3971 37.9057 67.5271 36.7757 67.5271 35.3871V25.2486H69.6214V35.3871C69.6214 37.93 67.5528 40 65.0085 40Z" fill="#001081"/>
<path d="M68.5743 23.4243C69.2994 23.4243 69.8872 22.8365 69.8872 22.1114C69.8872 21.3864 69.2994 20.7986 68.5743 20.7986C67.8493 20.7986 67.2615 21.3864 67.2615 22.1114C67.2615 22.8365 67.8493 23.4243 68.5743 23.4243Z" fill="#001081"/>
<path d="M93.5087 20.7986V26.4129C92.513 25.6314 91.2416 25.1829 89.8644 25.2557C87.1116 25.3986 84.8587 27.6429 84.7087 30.3957C84.5373 33.54 87.0444 36.1529 90.1516 36.1529C91.2402 36.1529 92.2516 35.83 93.103 35.2771C93.2787 35.1629 93.5087 35.2857 93.5087 35.4943V36.0971H95.603V20.8H93.5087V20.7986ZM90.1516 34.0571C88.3002 34.0571 86.7944 32.5514 86.7944 30.7C86.7944 28.8486 88.3002 27.3429 90.1516 27.3429C92.003 27.3429 93.5087 28.8486 93.5087 30.7C93.5087 32.5514 92.003 34.0571 90.1516 34.0571Z" fill="#001081"/>
<path d="M108.587 30.4286C108.439 27.4286 105.861 25.0586 102.783 25.26C100.064 25.4386 97.8557 27.6729 97.7057 30.3929C97.5328 33.5371 100.041 36.1514 103.149 36.1514C104.237 36.1514 105.249 35.8286 106.1 35.2757C106.276 35.1614 106.506 35.2843 106.506 35.4929V36.0957H108.586V30.4286H108.587ZM103.149 34.0571C101.297 34.0571 99.7914 32.5514 99.7914 30.7C99.7914 28.8486 101.297 27.3429 103.149 27.3429C105 27.3429 106.506 28.8486 106.506 30.7C106.506 32.5514 105 34.0571 103.149 34.0571Z" fill="#001081"/>
<path d="M82.6057 30.4286C82.4571 27.4286 79.88 25.0586 76.8014 25.26C74.0828 25.4386 71.8742 27.6729 71.7242 30.3929C71.5514 33.5371 74.06 36.1514 77.1671 36.1514C78.2557 36.1514 79.2671 35.8286 80.1185 35.2757C80.2943 35.1614 80.5242 35.2843 80.5242 35.4929V36.0957H82.6042V30.4286H82.6057ZM77.1671 34.0571C75.3157 34.0571 73.81 32.5514 73.81 30.7C73.81 28.8486 75.3157 27.3429 77.1671 27.3429C79.0185 27.3429 80.5242 28.8486 80.5242 30.7C80.5242 32.5514 79.0185 34.0571 77.1671 34.0571Z" fill="#001081"/>
<path d="M58.9758 36.1514C58.7843 36.1514 58.5915 36.1414 58.3986 36.1214C55.8672 35.8614 53.8301 33.8386 53.5529 31.3114C53.3829 29.7643 53.8772 28.2157 54.9101 27.0643C55.9443 25.9114 57.4243 25.2486 58.9729 25.2486C61.7401 25.2486 64.3858 27.3428 64.3858 31.2314H55.6558C55.8872 32.7143 57.1086 33.8828 58.6143 34.0371C59.8015 34.1614 60.9372 33.6686 61.6529 32.7243L63.3215 33.99C62.2772 35.3686 60.6829 36.1514 58.9758 36.1514ZM55.9986 29.1371H61.9458C61.3815 28.0629 60.2543 27.3443 58.9743 27.3443C58.0201 27.3443 57.1086 27.7514 56.4715 28.4629C56.2843 28.6714 56.1272 28.8971 56.0001 29.1371H55.9986Z" fill="#001081"/>
<path d="M36.8329 25.0414C34.8557 29.7571 30.1914 33.08 24.7657 33.08C20.7071 33.08 17.0729 31.2214 14.6729 28.31C13.22 28.8286 11.09 29.5443 10.98 29.5814C11.3571 29.2529 11.7386 28.93 12.1286 28.62C13.0357 27.8914 13.9786 27.2129 14.9471 26.5829C19.3514 23.7157 24.3286 21.8786 29.39 21.2229L27.8571 13.4243C24.1386 14.3629 20.5757 15.8057 17.2971 17.6857C15.3543 18.7843 13.5071 20.0543 11.7729 21.4686C11.7186 20.9871 11.6886 20.4986 11.6886 20.0029C11.6886 12.7914 17.5557 6.92429 24.7671 6.92429C26.2914 6.92429 27.7543 7.18858 29.1171 7.67143L33.0329 1.79858C29.9829 0.40572 26.5314 -0.247137 22.9014 0.0857197C13.62 0.938577 6.06429 8.24144 4.92 17.4914C4.53857 20.5714 4.87286 23.5329 5.76714 26.2414C5.95 26.7957 5.82857 27.4014 5.46429 27.8586C3.25714 30.6414 1.41 33.7 0 36.9272L3.40429 38.8072C4.69571 36.5614 6.21857 34.4686 7.93286 32.5714C8.28857 32.1771 8.91143 32.1829 9.24714 32.5957C12.9171 37.1086 18.51 39.9986 24.7657 39.9986C32.47 39.9986 39.1657 35.6171 42.5057 29.2186L36.8329 25.04V25.0414Z" fill="#001081"/>
<path d="M38.3301 21.9C41.1972 21.9 43.5215 19.5757 43.5215 16.7086C43.5215 13.8414 41.1972 11.5172 38.3301 11.5172C35.463 11.5172 33.1387 13.8414 33.1387 16.7086C33.1387 19.5757 35.463 21.9 38.3301 21.9Z" fill="#001081"/>
</g>
<defs>
<clipPath id="clip0_5_976">
<rect width="109.334" height="40" fill="white"/>
</clipPath>
</defs>
</svg>
