<svg width="14" height="14" viewBox="0 0 14 14" fill="none" xmlns="http://www.w3.org/2000/svg">
<g clip-path="url(#clip0_1_46)">
<path d="M13.3636 13.3636L12.0909 12.0909M6.68181 12.7273C7.47571 12.7273 8.26183 12.5709 8.9953 12.2671C9.72877 11.9633 10.3952 11.518 10.9566 10.9566C11.518 10.3952 11.9633 9.72879 12.2671 8.99532C12.5709 8.26185 12.7273 7.47572 12.7273 6.68182C12.7273 5.88792 12.5709 5.1018 12.2671 4.36833C11.9633 3.63486 11.518 2.96841 10.9566 2.40704C10.3952 1.84567 9.72877 1.40036 8.9953 1.09655C8.26183 0.792738 7.47571 0.636368 6.68181 0.636368C5.07845 0.636368 3.54077 1.2733 2.40702 2.40704C1.27328 3.54078 0.636353 5.07847 0.636353 6.68182C0.636353 8.28518 1.27328 9.82286 2.40702 10.9566C3.54077 12.0903 5.07845 12.7273 6.68181 12.7273V12.7273Z" stroke="#001081" stroke-width="1.5" stroke-linecap="round" stroke-linejoin="round"/>
</g>
<defs>
<clipPath id="clip0_1_46">
<rect width="14" height="14" fill="white"/>
</clipPath>
</defs>
</svg>
