<svg width="960" height="721" viewBox="0 0 960 721" fill="none" xmlns="http://www.w3.org/2000/svg">
<g clip-path="url(#clip0_2_199)">
<path d="M420.611 658.631L390.717 688.525L420.611 718.419L450.504 688.525L420.611 658.631Z" fill="#1FED93"/>
<path d="M420.61 539.53L390.716 569.424L420.61 599.317L450.503 569.424L420.61 539.53Z" fill="#1FED93"/>
<path d="M121.667 362.684H2.31669C1.03603 362.684 0 361.648 0 360.367V241.017C0 239.736 1.03603 238.7 2.31669 238.7H121.667C122.947 238.7 123.983 239.736 123.983 241.017V360.367C123.983 361.648 122.947 362.684 121.667 362.684ZM4.63337 358.05H119.35V243.334H4.63337V358.05Z" fill="#001081"/>
<path d="M2.31671 362.684C1.55887 362.684 0.815424 362.314 0.374151 361.628C-0.321335 360.554 -0.0191582 359.12 1.05525 358.424L60.7327 319.621C61.5001 319.122 62.4882 319.122 63.2556 319.621L122.933 358.424C124.007 359.12 124.31 360.554 123.614 361.628C122.919 362.703 121.485 363.005 120.41 362.309L61.999 324.331L3.57818 362.309C3.18967 362.564 2.74839 362.684 2.31671 362.684Z" fill="#001081"/>
<path d="M102.265 286.502H61.9894V263.666H102.265L95.1424 275.081L102.265 286.502Z" fill="#1FED93"/>
<path d="M61.9893 341.627C55.3175 341.627 49.0965 338.322 45.3553 332.787C44.6406 331.727 44.9188 330.288 45.9788 329.574C47.0388 328.859 48.4777 329.137 49.1924 330.197C52.0703 334.456 56.8523 336.999 61.9845 336.999C67.1167 336.999 72.0571 334.375 74.9206 329.981C75.6209 328.907 77.055 328.605 78.1246 329.305C79.1942 330.005 79.4964 331.44 78.8009 332.509C75.0789 338.222 68.7907 341.632 61.9845 341.632L61.9893 341.627Z" fill="#001081"/>
<path d="M360.933 601.384H122.233C120.952 601.384 119.916 600.348 119.916 599.067V360.367C119.916 359.086 120.952 358.05 122.233 358.05H360.933C362.214 358.05 363.25 359.086 363.25 360.367V599.067C363.25 600.348 362.214 601.384 360.933 601.384ZM124.549 596.75H358.616V362.684H124.549V596.75Z" fill="#001081"/>
<path d="M122.233 601.384C121.638 601.384 121.048 601.158 120.597 600.708C119.691 599.801 119.691 598.338 120.597 597.432L359.297 358.731C360.204 357.83 361.667 357.83 362.573 358.731C363.48 359.638 363.48 361.101 362.573 362.007L123.873 600.708C123.422 601.158 122.827 601.384 122.238 601.384H122.233Z" fill="#001081"/>
<path d="M241.583 561.607C196.429 561.607 159.698 524.871 159.698 479.717C159.698 434.563 196.434 397.832 241.583 397.832C286.732 397.832 323.468 434.568 323.468 479.717C323.468 524.866 286.732 561.607 241.583 561.607ZM241.583 402.465C198.986 402.465 164.326 437.12 164.326 479.722C164.326 522.324 198.981 556.978 241.583 556.978C284.185 556.978 318.839 522.324 318.839 479.722C318.839 437.12 284.185 402.465 241.583 402.465Z" fill="#001081"/>
<path d="M241.583 486.72C245.45 486.72 248.586 483.585 248.586 479.717C248.586 475.85 245.45 472.714 241.583 472.714C237.715 472.714 234.58 475.85 234.58 479.717C234.58 483.585 237.715 486.72 241.583 486.72Z" fill="#1FED93"/>
<path d="M957.688 243.334H838.338C837.057 243.334 836.021 242.298 836.021 241.017V121.667C836.021 120.386 837.057 119.35 838.338 119.35H957.688C958.969 119.35 960.005 120.386 960.005 121.667V241.017C960.005 242.298 958.969 243.334 957.688 243.334ZM840.655 238.7H955.371V123.983H840.655V238.7Z" fill="#001081"/>
<path d="M838.333 243.334C837.738 243.334 837.149 243.108 836.698 242.657C835.796 241.751 835.796 240.288 836.698 239.381L956.048 120.031C956.954 119.129 958.417 119.129 959.324 120.031C960.225 120.938 960.225 122.401 959.324 123.307L839.974 242.657C839.523 243.108 838.928 243.334 838.338 243.334H838.333Z" fill="#001081"/>
<path d="M898.011 223.443C874.796 223.443 855.907 204.554 855.907 181.339C855.907 158.125 874.796 139.236 898.011 139.236C921.226 139.236 940.114 158.125 940.114 181.339C940.114 204.554 921.226 223.443 898.011 223.443ZM898.011 143.87C877.352 143.87 860.541 160.676 860.541 181.339C860.541 202.003 877.348 218.809 898.011 218.809C918.674 218.809 935.481 202.003 935.481 181.339C935.481 160.676 918.674 143.87 898.011 143.87Z" fill="#001081"/>
<path d="M905.143 181.344C905.143 185.282 901.949 188.477 898.011 188.477C894.073 188.477 890.878 185.282 890.878 181.344C890.878 177.406 894.073 174.212 898.011 174.212C901.949 174.212 905.143 177.406 905.143 181.344Z" fill="#001081"/>
<path d="M241.017 362.684H121.667C120.386 362.684 119.35 361.648 119.35 360.367V121.667C119.35 120.386 120.386 119.35 121.667 119.35H241.017C242.298 119.35 243.334 120.386 243.334 121.667V360.367C243.334 361.648 242.298 362.684 241.017 362.684ZM123.983 358.05H238.7V123.983H123.983V358.05Z" fill="#001081"/>
<path d="M184.831 338.342C184.831 340.27 183.268 341.829 181.344 341.829C179.421 341.829 177.857 340.265 177.857 338.342C177.857 336.418 179.421 334.855 181.344 334.855C183.268 334.855 184.831 336.418 184.831 338.342Z" fill="#1FED93"/>
<path d="M221.15 362.684H141.538C140.258 362.684 139.222 361.648 139.222 360.367V323.286C139.222 322.005 140.258 320.969 141.538 320.969H221.15C222.431 320.969 223.467 322.005 223.467 323.286V360.367C223.467 361.648 222.431 362.684 221.15 362.684ZM143.855 358.05H218.833V325.602H143.855V358.05Z" fill="#001081"/>
<path d="M221.15 325.602C219.869 325.602 218.833 324.566 218.833 323.286V121.667C218.833 120.386 219.869 119.35 221.15 119.35C222.431 119.35 223.467 120.386 223.467 121.667V323.286C223.467 324.566 222.431 325.602 221.15 325.602Z" fill="#001081"/>
<path d="M201.245 314.307C199.964 314.307 198.928 313.271 198.928 311.99V121.667C198.928 120.386 199.964 119.35 201.245 119.35C202.525 119.35 203.561 120.386 203.561 121.667V311.99C203.561 313.271 202.525 314.307 201.245 314.307Z" fill="#001081"/>
<path d="M181.344 303.011C180.064 303.011 179.028 301.975 179.028 300.694V121.667C179.028 120.386 180.064 119.35 181.344 119.35C182.625 119.35 183.661 120.386 183.661 121.667V300.694C183.661 301.975 182.625 303.011 181.344 303.011Z" fill="#001081"/>
<path d="M161.439 314.307C160.158 314.307 159.122 313.271 159.122 311.99V121.667C159.122 120.386 160.158 119.35 161.439 119.35C162.72 119.35 163.756 120.386 163.756 121.667V311.99C163.756 313.271 162.72 314.307 161.439 314.307Z" fill="#001081"/>
<path d="M141.538 325.602C140.258 325.602 139.222 324.566 139.222 323.286V121.667C139.222 120.386 140.258 119.35 141.538 119.35C142.819 119.35 143.855 120.386 143.855 121.667V323.286C143.855 324.566 142.819 325.602 141.538 325.602Z" fill="#001081"/>
<path d="M203.868 325.602C202.588 325.602 201.552 324.566 201.552 323.286C201.552 312.105 192.458 303.006 181.277 303.006C170.097 303.006 161.003 312.105 161.003 323.286C161.003 324.566 159.966 325.602 158.686 325.602C157.405 325.602 156.369 324.566 156.369 323.286C156.369 309.549 167.545 298.378 181.277 298.378C195.009 298.378 206.185 309.553 206.185 323.286C206.185 324.566 205.149 325.602 203.868 325.602Z" fill="#001081"/>
<path d="M838.333 482.034H599.633C598.352 482.034 597.316 480.998 597.316 479.717V241.017C597.316 239.736 598.352 238.7 599.633 238.7H838.333C839.614 238.7 840.65 239.736 840.65 241.017V479.717C840.65 480.998 839.614 482.034 838.333 482.034ZM601.95 477.4H836.017V243.334H601.95V477.4Z" fill="#001081"/>
<path d="M643.907 367.308C647.757 367.197 650.788 363.986 650.677 360.136C650.566 356.286 647.355 353.254 643.505 353.365C639.655 353.476 636.624 356.687 636.735 360.537C636.846 364.387 640.057 367.418 643.907 367.308Z" fill="#1FED93"/>
<path d="M673.801 442.295H599.638C598.357 442.295 597.321 441.259 597.321 439.978V280.755C597.321 279.475 598.357 278.439 599.638 278.439H673.801C675.081 278.439 676.117 279.475 676.117 280.755V439.978C676.117 441.259 675.081 442.295 673.801 442.295ZM601.95 437.662H671.484V283.072H601.95V437.662Z" fill="#001081"/>
<path d="M673.801 407.871C672.52 407.871 671.484 406.835 671.484 405.554C671.484 404.274 672.52 403.238 673.801 403.238C697.438 403.238 716.671 384.009 716.671 360.367C716.671 336.725 697.442 317.496 673.801 317.496C672.52 317.496 671.484 316.46 671.484 315.18C671.484 313.899 672.52 312.863 673.801 312.863C699.994 312.863 721.305 334.174 721.305 360.367C721.305 386.56 699.994 407.871 673.801 407.871Z" fill="#001081"/>
<path d="M801.078 361.972C801.957 358.223 799.631 354.47 795.881 353.59C792.131 352.711 788.378 355.038 787.498 358.787C786.619 362.537 788.946 366.29 792.696 367.17C796.446 368.049 800.198 365.722 801.078 361.972Z" fill="#1FED93"/>
<path d="M838.333 442.295H764.17C762.89 442.295 761.854 441.259 761.854 439.978V280.755C761.854 279.475 762.89 278.439 764.17 278.439H838.333C839.614 278.439 840.65 279.475 840.65 280.755V439.978C840.65 441.259 839.614 442.295 838.333 442.295ZM766.487 437.662H836.021V283.072H766.487V437.662Z" fill="#001081"/>
<path d="M764.171 407.871C737.977 407.871 716.667 386.56 716.667 360.367C716.667 334.174 737.977 312.863 764.171 312.863C765.451 312.863 766.487 313.899 766.487 315.18C766.487 316.46 765.451 317.496 764.171 317.496C740.534 317.496 721.3 336.725 721.3 360.367C721.3 384.009 740.529 403.238 764.171 403.238C765.451 403.238 766.487 404.274 766.487 405.554C766.487 406.835 765.451 407.871 764.171 407.871Z" fill="#001081"/>
<path d="M480.283 482.034H360.933C359.652 482.034 358.616 480.998 358.616 479.717V360.367C358.616 359.086 359.652 358.05 360.933 358.05H480.283C481.564 358.05 482.6 359.086 482.6 360.367V479.717C482.6 480.998 481.564 482.034 480.283 482.034ZM363.25 477.4H477.966V362.684H363.25V477.4Z" fill="#001081"/>
<path d="M420.61 455.145C416.634 455.145 412.73 454.483 408.998 453.173C408.969 453.164 408.941 453.154 408.907 453.145C394.906 448.2 385.5 434.899 385.5 420.044C385.5 417.876 385.702 415.713 386.095 413.617C387.539 405.78 391.692 398.59 397.789 393.376C404.125 387.942 412.231 384.944 420.605 384.944C428.98 384.944 437.081 387.937 443.422 393.376C449.518 398.59 453.667 405.78 455.116 413.622C455.509 415.708 455.706 417.867 455.706 420.04C455.706 434.894 446.3 448.195 432.299 453.14C428.563 454.464 424.63 455.14 420.605 455.14L420.61 455.145ZM410.375 448.751C410.403 448.761 410.432 448.77 410.461 448.78C416.989 451.087 424.294 451.077 430.76 448.78C442.914 444.487 451.077 432.942 451.077 420.044C451.077 418.159 450.905 416.284 450.564 414.476C449.307 407.665 445.705 401.425 440.415 396.897C434.913 392.177 427.882 389.577 420.61 389.577C413.339 389.577 406.307 392.177 400.806 396.897C395.51 401.425 391.908 407.665 390.652 414.466C390.306 416.289 390.134 418.164 390.134 420.044C390.134 432.913 398.264 444.434 410.37 448.751H410.375Z" fill="#001081"/>
<path d="M387.927 422.361C386.647 422.361 385.611 421.325 385.611 420.044V360.367C385.611 359.086 386.647 358.05 387.927 358.05C389.208 358.05 390.244 359.086 390.244 360.367V420.044C390.244 421.325 389.208 422.361 387.927 422.361Z" fill="#001081"/>
<path d="M404.293 393.918C403.012 393.918 401.976 392.882 401.976 391.601V360.367C401.976 359.086 403.012 358.05 404.293 358.05C405.573 358.05 406.609 359.086 406.609 360.367V391.601C406.609 392.882 405.573 393.918 404.293 393.918Z" fill="#001081"/>
<path d="M420.658 389.582C419.378 389.582 418.342 388.546 418.342 387.265V360.367C418.342 359.086 419.378 358.05 420.658 358.05C421.939 358.05 422.975 359.086 422.975 360.367V387.265C422.975 388.546 421.939 389.582 420.658 389.582Z" fill="#001081"/>
<path d="M437.024 393.918C435.743 393.918 434.707 392.882 434.707 391.601V360.367C434.707 359.086 435.743 358.05 437.024 358.05C438.304 358.05 439.341 359.086 439.341 360.367V391.601C439.341 392.882 438.304 393.918 437.024 393.918Z" fill="#001081"/>
<path d="M453.394 422.361C452.113 422.361 451.077 421.325 451.077 420.044V360.367C451.077 359.086 452.113 358.05 453.394 358.05C454.675 358.05 455.711 359.086 455.711 360.367V420.044C455.711 421.325 454.675 422.361 453.394 422.361Z" fill="#001081"/>
<path d="M429.297 434.323H411.914C410.912 434.323 410.02 433.676 409.713 432.721L404.341 416.193C404.029 415.238 404.37 414.193 405.18 413.603L419.243 403.386C420.054 402.796 421.152 402.796 421.968 403.386L436.031 413.603C436.842 414.193 437.182 415.238 436.87 416.193L431.498 432.721C431.187 433.676 430.299 434.323 429.297 434.323ZM413.598 429.69H427.613L431.944 416.361L420.606 408.12L409.267 416.361L413.598 429.69Z" fill="#001081"/>
<path d="M420.605 407.574H420.601C419.32 407.574 418.289 406.528 418.289 405.252L418.342 387.256C418.342 385.98 419.382 384.944 420.658 384.944H420.663C421.944 384.944 422.975 385.99 422.975 387.265L422.922 405.262C422.922 406.538 421.881 407.574 420.605 407.574Z" fill="#001081"/>
<path d="M406.547 417.79C406.307 417.79 406.063 417.752 405.823 417.675L388.724 412.068C387.51 411.67 386.848 410.36 387.246 409.147C387.644 407.929 388.954 407.267 390.167 407.67L407.267 413.277C408.48 413.675 409.142 414.984 408.744 416.198C408.423 417.171 407.516 417.795 406.542 417.795L406.547 417.79Z" fill="#001081"/>
<path d="M401.3 448.847C400.825 448.847 400.345 448.703 399.933 448.401C398.902 447.648 398.676 446.195 399.429 445.163L410.049 430.635C410.802 429.604 412.255 429.378 413.286 430.131C414.317 430.884 414.543 432.333 413.79 433.369L403.17 447.897C402.715 448.516 402.014 448.847 401.3 448.847Z" fill="#001081"/>
<path d="M439.835 448.909C439.115 448.909 438.41 448.578 437.954 447.95L427.417 433.364C426.668 432.328 426.903 430.88 427.939 430.131C428.975 429.383 430.424 429.613 431.172 430.654L441.71 445.24C442.458 446.276 442.223 447.725 441.187 448.473C440.779 448.77 440.305 448.909 439.835 448.909Z" fill="#001081"/>
<path d="M434.669 417.79C433.69 417.79 432.779 417.166 432.467 416.183C432.074 414.965 432.745 413.66 433.964 413.272L451.092 407.761C452.31 407.367 453.615 408.039 454.003 409.257C454.397 410.475 453.725 411.78 452.507 412.169L435.379 417.68C435.144 417.756 434.904 417.79 434.669 417.79Z" fill="#001081"/>
<path d="M838.333 601.384H718.983C717.703 601.384 716.667 600.348 716.667 599.067V479.717C716.667 478.436 717.703 477.4 718.983 477.4H838.333C839.614 477.4 840.65 478.436 840.65 479.717V599.067C840.65 600.348 839.614 601.384 838.333 601.384ZM721.3 596.75H836.017V482.034H721.3V596.75Z" fill="#001081"/>
<path d="M778.665 586.28C773.346 586.28 768.123 585.392 763.139 583.642C763.106 583.632 763.072 583.623 763.039 583.608C744.337 577.003 731.775 559.233 731.775 539.394C731.775 536.497 732.044 533.61 732.567 530.814C734.495 520.343 740.044 510.74 748.184 503.776C756.65 496.514 767.475 492.514 778.665 492.514C789.856 492.514 800.672 496.514 809.142 503.781C817.282 510.745 822.831 520.348 824.759 530.828C825.282 533.62 825.551 536.507 825.551 539.404C825.551 559.247 812.984 577.013 794.288 583.618C789.299 585.388 784.042 586.289 778.665 586.289V586.28ZM764.492 579.21C764.526 579.219 764.554 579.229 764.588 579.239C773.639 582.438 783.769 582.423 792.738 579.239C809.593 573.286 820.917 557.271 820.917 539.39C820.917 536.78 820.678 534.181 820.203 531.663C818.462 522.218 813.464 513.566 806.125 507.287C798.494 500.74 788.743 497.138 778.665 497.138C768.588 497.138 758.827 500.74 751.201 507.287C743.858 513.566 738.86 522.218 737.123 531.658C736.649 534.181 736.409 536.78 736.409 539.394C736.409 557.242 747.69 573.233 764.497 579.21H764.492Z" fill="#001081"/>
<path d="M778.661 516.554C773.178 526.036 765.303 533.912 755.82 539.394C765.303 544.877 773.178 552.753 778.661 562.235C784.143 552.753 792.019 544.877 801.501 539.394C792.019 533.912 784.143 526.036 778.661 516.554Z" fill="#1FED93"/>
<path d="M599.633 482.034H480.283C479.002 482.034 477.966 480.998 477.966 479.717V360.367C477.966 359.086 479.002 358.05 480.283 358.05H599.633C600.914 358.05 601.95 359.086 601.95 360.367V479.717C601.95 480.998 600.914 482.034 599.633 482.034ZM482.6 477.4H597.316V362.684H482.6V477.4Z" fill="#001081"/>
<path d="M546.21 448.761C542.896 448.761 539.644 448.209 536.536 447.12C536.507 447.111 536.483 447.101 536.454 447.092C524.78 442.967 516.933 431.872 516.933 419.488C516.933 417.68 517.101 415.876 517.427 414.126C518.631 407.593 522.094 401.592 527.178 397.247C532.464 392.714 539.222 390.215 546.205 390.215C553.189 390.215 559.947 392.714 565.233 397.252C570.317 401.597 573.78 407.598 574.984 414.14C575.31 415.876 575.478 417.68 575.478 419.493C575.478 431.882 567.636 442.976 555.957 447.096C552.844 448.2 549.558 448.765 546.205 448.765L546.21 448.761ZM537.927 442.703C537.951 442.712 537.975 442.717 538.003 442.727C543.284 444.593 549.189 444.583 554.422 442.727C564.25 439.254 570.854 429.915 570.854 419.488C570.854 417.963 570.715 416.447 570.437 414.984C569.42 409.473 566.509 404.427 562.226 400.767C557.774 396.949 552.086 394.849 546.21 394.849C540.335 394.849 534.641 396.949 530.195 400.767C525.912 404.432 522.995 409.473 521.983 414.974C521.705 416.452 521.566 417.967 521.566 419.488C521.566 429.891 528.137 439.211 537.927 442.703Z" fill="#001081"/>
<path d="M553.352 431.637H539.059C538.056 431.637 537.164 430.99 536.857 430.035L532.44 416.442C532.128 415.488 532.468 414.442 533.279 413.852L544.843 405.454C545.654 404.864 546.752 404.864 547.568 405.454L559.132 413.852C559.942 414.442 560.283 415.488 559.971 416.442L555.554 430.035C555.242 430.99 554.355 431.637 553.352 431.637ZM540.742 427.004H551.669L555.045 416.615L546.205 410.192L537.366 416.615L540.742 427.004Z" fill="#001081"/>
<path d="M546.21 409.646H546.205C544.925 409.646 543.894 408.6 543.898 407.324L543.942 392.527C543.942 391.251 544.982 390.215 546.258 390.215H546.263C547.544 390.215 548.575 391.261 548.575 392.537L548.532 407.334C548.532 408.61 547.491 409.646 546.215 409.646H546.21Z" fill="#001081"/>
<path d="M534.646 418.044C534.406 418.044 534.162 418.006 533.922 417.929L519.863 413.315C518.65 412.917 517.988 411.607 518.386 410.394C518.784 409.18 520.094 408.514 521.307 408.917L535.365 413.531C536.579 413.929 537.241 415.238 536.843 416.452C536.521 417.426 535.615 418.049 534.641 418.049L534.646 418.044Z" fill="#001081"/>
<path d="M530.329 443.585C529.854 443.585 529.375 443.441 528.962 443.139C527.931 442.386 527.705 440.938 528.458 439.902L537.188 427.954C537.941 426.922 539.39 426.697 540.426 427.45C541.457 428.203 541.682 429.652 540.929 430.688L532.2 442.636C531.744 443.254 531.044 443.585 530.329 443.585Z" fill="#001081"/>
<path d="M562.019 443.633C561.3 443.633 560.595 443.302 560.139 442.674L551.477 430.678C550.728 429.642 550.963 428.194 552 427.445C553.036 426.697 554.484 426.927 555.232 427.968L563.895 439.964C564.643 441 564.408 442.449 563.372 443.197C562.964 443.494 562.489 443.633 562.019 443.633Z" fill="#001081"/>
<path d="M557.77 418.044C556.791 418.044 555.88 417.421 555.568 416.437C555.175 415.219 555.846 413.915 557.065 413.521L571.147 408.989C572.365 408.595 573.67 409.267 574.058 410.485C574.452 411.703 573.78 413.008 572.562 413.401L558.479 417.934C558.244 418.011 558.005 418.044 557.77 418.044Z" fill="#001081"/>
<path d="M574.586 446.444H480.283V462.651H574.586V446.444Z" fill="#001081"/>
<path d="M506.937 403.713C506.323 403.713 505.733 403.468 505.301 403.031L491.291 389.016C490.384 388.11 490.384 386.647 491.291 385.74L505.301 371.725C506.169 370.857 507.709 370.857 508.577 371.725L522.593 385.74C523.499 386.647 523.499 388.11 522.593 389.016L508.577 403.031C508.141 403.468 507.556 403.708 506.937 403.708V403.713ZM496.198 387.381L506.937 398.12L517.676 387.381L506.937 376.641L496.198 387.381Z" fill="#001081"/>
<path d="M599.633 601.384H480.283C479.002 601.384 477.966 600.348 477.966 599.067V479.717C477.966 478.436 479.002 477.4 480.283 477.4H599.633C600.914 477.4 601.95 478.436 601.95 479.717V599.067C601.95 600.348 600.914 601.384 599.633 601.384ZM482.6 596.75H597.316V482.034H482.6V596.75Z" fill="#001081"/>
<path d="M539.96 577.828C539.366 577.828 538.776 577.603 538.32 577.152L502.198 541.03C501.296 540.124 501.296 538.661 502.198 537.754L538.32 501.632C539.227 500.726 540.69 500.726 541.596 501.632L577.718 537.754C578.62 538.661 578.62 540.124 577.718 541.03L541.596 577.152C541.145 577.603 540.55 577.828 539.96 577.828ZM507.114 539.39L539.96 572.236L572.807 539.39L539.96 506.544L507.114 539.39Z" fill="#001081"/>
<path d="M515.115 504.768L505.337 494.99L495.559 504.768L505.337 514.546L515.115 504.768Z" fill="#001081"/>
<path d="M574.586 514.545L584.364 504.767L574.586 494.989L564.808 504.767L574.586 514.545Z" fill="#001081"/>
<path d="M539.96 577.828C539.366 577.828 538.776 577.603 538.32 577.152L502.198 541.03C501.296 540.124 501.296 538.661 502.198 537.754L538.32 501.632C539.227 500.726 540.69 500.726 541.596 501.632L577.718 537.754C578.62 538.661 578.62 540.124 577.718 541.03L541.596 577.152C541.145 577.603 540.55 577.828 539.96 577.828ZM507.114 539.39L539.96 572.236L572.807 539.39L539.96 506.544L507.114 539.39Z" fill="#001081"/>
<path d="M505.333 564.244L495.555 574.022L505.333 583.8L515.111 574.022L505.333 564.244Z" fill="#001081"/>
<path d="M564.809 574.021L574.587 583.799L584.365 574.021L574.587 564.243L564.809 574.021Z" fill="#001081"/>
<path d="M599.633 362.684H360.933C359.652 362.684 358.616 361.648 358.616 360.367C358.616 359.086 359.652 358.05 360.933 358.05H597.316V123.983H363.25V217.687C363.25 218.968 362.214 220.004 360.933 220.004C359.652 220.004 358.616 218.968 358.616 217.687V121.667C358.616 120.386 359.652 119.35 360.933 119.35H599.633C600.914 119.35 601.95 120.386 601.95 121.667V360.367C601.95 361.648 600.914 362.684 599.633 362.684Z" fill="#001081"/>
<path d="M552.476 148.69L532.92 168.246L552.476 187.802L572.032 168.246L552.476 148.69Z" fill="#1FED93"/>
<path d="M599.633 362.684C599.23 362.684 598.818 362.578 598.448 362.357L359.748 219.677C358.65 219.02 358.29 217.601 358.947 216.502C359.604 215.404 361.029 215.049 362.122 215.701L600.823 358.381C601.921 359.038 602.281 360.458 601.624 361.556C601.187 362.281 600.42 362.684 599.633 362.684Z" fill="#001081"/>
<path d="M417.114 197.657C416.207 197.657 415.349 197.125 414.979 196.237C414.485 195.057 415.037 193.7 416.217 193.206L452.838 177.809C454.018 177.315 455.375 177.867 455.869 179.047C456.363 180.227 455.812 181.584 454.632 182.078L418.011 197.475C417.718 197.599 417.416 197.657 417.114 197.657Z" fill="#001081"/>
<path d="M506.04 250.811C505.133 250.811 504.275 250.279 503.905 249.391C503.411 248.212 503.963 246.854 505.143 246.36L541.764 230.963C542.944 230.469 544.301 231.021 544.795 232.201C545.289 233.381 544.738 234.738 543.558 235.232L506.937 250.629C506.644 250.754 506.342 250.811 506.04 250.811Z" fill="#001081"/>
<path d="M506.04 306.743C505.133 306.743 504.275 306.21 503.905 305.323C503.411 304.143 503.963 302.785 505.143 302.291L541.764 286.895C542.944 286.401 544.301 286.952 544.795 288.132C545.289 289.312 544.738 290.67 543.558 291.164L506.937 306.56C506.644 306.685 506.337 306.743 506.04 306.743Z" fill="#001081"/>
<path d="M417.114 253.584C416.207 253.584 415.349 253.051 414.979 252.164C414.485 250.984 415.037 249.626 416.217 249.132L452.838 233.736C454.018 233.242 455.375 233.793 455.869 234.973C456.363 236.153 455.812 237.511 454.632 238.005L418.011 253.401C417.718 253.526 417.416 253.584 417.114 253.584Z" fill="#001081"/>
<path d="M241.583 308.69C240.676 308.69 239.818 308.158 239.448 307.27C238.954 306.09 239.506 304.733 240.686 304.239L396.657 238.662C397.837 238.168 399.194 238.719 399.688 239.899C400.182 241.079 399.631 242.437 398.451 242.931L242.48 308.508C242.187 308.632 241.885 308.69 241.583 308.69Z" fill="#001081"/>
<path d="M241.583 270.198C240.676 270.198 239.818 269.666 239.448 268.779C238.954 267.599 239.506 266.241 240.686 265.747L360.036 215.567C361.216 215.068 362.573 215.624 363.067 216.804C363.561 217.984 363.01 219.342 361.83 219.836L242.48 270.016C242.187 270.141 241.885 270.198 241.583 270.198Z" fill="#001081"/>
<path d="M242.374 340.658C241.468 340.658 240.609 340.126 240.24 339.239C239.746 338.059 240.297 336.701 241.477 336.207L428.064 257.761C429.244 257.267 430.601 257.819 431.095 258.999C431.589 260.179 431.038 261.536 429.858 262.03L243.271 340.476C242.979 340.601 242.676 340.658 242.374 340.658Z" fill="#001081"/>
<path d="M266.016 362.684C265.109 362.684 264.251 362.151 263.881 361.264C263.387 360.084 263.939 358.727 265.119 358.232L460.68 276.012C461.86 275.518 463.217 276.069 463.711 277.249C464.205 278.429 463.654 279.787 462.474 280.281L266.913 362.501C266.62 362.626 266.318 362.684 266.016 362.684Z" fill="#001081"/>
<path d="M342.049 362.684C341.143 362.684 340.284 362.151 339.915 361.264C339.421 360.084 339.972 358.727 341.152 358.232L492.375 294.656C493.555 294.157 494.912 294.713 495.406 295.893C495.9 297.073 495.349 298.43 494.169 298.924L342.946 362.501C342.654 362.626 342.351 362.684 342.049 362.684Z" fill="#001081"/>
<path d="M418.087 362.684C417.181 362.684 416.322 362.151 415.953 361.264C415.459 360.084 416.011 358.727 417.19 358.233L523.456 313.554C524.636 313.06 525.993 313.611 526.487 314.791C526.981 315.971 526.43 317.328 525.25 317.822L418.984 362.501C418.692 362.626 418.39 362.684 418.087 362.684Z" fill="#001081"/>
<path d="M494.121 362.684C493.214 362.684 492.356 362.151 491.986 361.264C491.492 360.084 492.044 358.727 493.224 358.232L555.165 332.188C556.345 331.694 557.703 332.245 558.197 333.425C558.691 334.605 558.139 335.963 556.959 336.457L495.018 362.501C494.725 362.626 494.418 362.684 494.121 362.684Z" fill="#001081"/>
<path d="M506.04 306.738C504.759 306.738 503.723 305.702 503.723 304.421V248.495C503.723 247.214 504.759 246.178 506.04 246.178C507.321 246.178 508.357 247.214 508.357 248.495V304.421C508.357 305.702 507.321 306.738 506.04 306.738Z" fill="#001081"/>
<path d="M417.109 253.584C415.828 253.584 414.792 252.548 414.792 251.267V195.34C414.792 194.06 415.828 193.024 417.109 193.024C418.39 193.024 419.426 194.06 419.426 195.34V251.267C419.426 252.548 418.39 253.584 417.109 253.584Z" fill="#001081"/>
<path d="M453.73 238.187C452.449 238.187 451.413 237.151 451.413 235.87V179.944C451.413 178.663 452.449 177.627 453.73 177.627C455.011 177.627 456.047 178.663 456.047 179.944V235.87C456.047 237.151 455.011 238.187 453.73 238.187Z" fill="#001081"/>
<path d="M542.661 291.346C541.38 291.346 540.344 290.31 540.344 289.029V233.103C540.344 231.822 541.38 230.786 542.661 230.786C543.942 230.786 544.978 231.822 544.978 233.103V289.029C544.978 290.31 543.942 291.346 542.661 291.346Z" fill="#001081"/>
<path d="M506.04 250.811C505.637 250.811 505.225 250.706 504.855 250.485L415.924 197.331C414.826 196.674 414.466 195.254 415.123 194.156C415.78 193.057 417.205 192.697 418.298 193.355L507.229 246.509C508.328 247.166 508.688 248.586 508.031 249.684C507.594 250.408 506.827 250.811 506.04 250.811Z" fill="#001081"/>
<path d="M542.656 235.419C542.253 235.419 541.841 235.314 541.471 235.093L452.54 181.934C451.442 181.277 451.082 179.857 451.739 178.759C452.396 177.661 453.821 177.301 454.915 177.958L543.846 231.117C544.944 231.774 545.304 233.194 544.647 234.292C544.215 235.016 543.443 235.419 542.656 235.419Z" fill="#001081"/>
<path d="M542.656 291.346C542.253 291.346 541.841 291.24 541.471 291.02L452.54 237.861C451.442 237.204 451.082 235.784 451.739 234.686C452.396 233.587 453.821 233.232 454.915 233.885L543.846 287.039C544.944 287.696 545.304 289.116 544.647 290.214C544.215 290.938 543.443 291.341 542.656 291.341V291.346Z" fill="#001081"/>
<path d="M957.688 482.034H838.338C837.057 482.034 836.021 480.998 836.021 479.717V360.367C836.021 359.086 837.057 358.05 838.338 358.05H957.688C958.969 358.05 960.005 359.086 960.005 360.367V479.717C960.005 480.998 958.969 482.034 957.688 482.034ZM840.655 477.4H955.371V362.684H840.655V477.4Z" fill="#001081"/>
<path d="M937.816 405.804C936.536 405.804 935.5 404.768 935.5 403.487V380.234C935.5 378.953 936.536 377.917 937.816 377.917C939.097 377.917 940.133 378.953 940.133 380.234V403.487C940.133 404.768 939.097 405.804 937.816 405.804Z" fill="#001081"/>
<path d="M917.911 405.804C916.63 405.804 915.594 404.768 915.594 403.487V380.234C915.594 378.953 916.63 377.917 917.911 377.917C919.192 377.917 920.228 378.953 920.228 380.234V403.487C920.228 404.768 919.192 405.804 917.911 405.804Z" fill="#001081"/>
<path d="M898.011 405.804C896.73 405.804 895.694 404.768 895.694 403.487V380.234C895.694 378.953 896.73 377.917 898.011 377.917C899.291 377.917 900.327 378.953 900.327 380.234V403.487C900.327 404.768 899.291 405.804 898.011 405.804Z" fill="#001081"/>
<path d="M878.105 405.804C876.825 405.804 875.789 404.768 875.789 403.487V380.234C875.789 378.953 876.825 377.917 878.105 377.917C879.386 377.917 880.422 378.953 880.422 380.234V403.487C880.422 404.768 879.386 405.804 878.105 405.804Z" fill="#001081"/>
<path d="M858.205 405.804C856.924 405.804 855.888 404.768 855.888 403.487V380.234C855.888 378.953 856.924 377.917 858.205 377.917C859.486 377.917 860.522 378.953 860.522 380.234V403.487C860.522 404.768 859.486 405.804 858.205 405.804Z" fill="#001081"/>
<path d="M898.01 416.914L888.232 426.692L898.01 436.47L907.788 426.692L898.01 416.914Z" fill="#1FED93"/>
<path d="M957.688 405.804H838.338C837.057 405.804 836.021 404.768 836.021 403.487V380.234C836.021 378.953 837.057 377.917 838.338 377.917H957.688C958.969 377.917 960.005 378.953 960.005 380.234V403.487C960.005 404.768 958.969 405.804 957.688 405.804ZM840.655 401.17H955.371V382.551H840.655V401.17Z" fill="#001081"/>
<path d="M898.011 449.859C885.233 449.859 874.839 439.465 874.839 426.688H858.224C858.224 448.66 876.038 466.474 898.011 466.474C919.983 466.474 937.797 448.66 937.797 426.688H921.182C921.182 439.465 910.788 449.859 898.011 449.859Z" fill="#1FED93"/>
<path d="M360.933 123.983H241.017C239.736 123.983 238.7 122.947 238.7 121.667C238.7 120.386 239.736 119.35 241.017 119.35H360.933C362.214 119.35 363.25 120.386 363.25 121.667C363.25 122.947 362.214 123.983 360.933 123.983Z" fill="#001081"/>
<path d="M659.325 228.225C653.996 228.225 648.778 227.342 643.813 225.596C643.775 225.587 643.736 225.572 643.698 225.558C625.002 218.953 612.44 201.182 612.44 181.339C612.44 178.423 612.703 175.536 613.226 172.759C615.154 162.298 620.704 152.69 628.853 145.716C637.324 138.454 648.144 134.449 659.325 134.449C670.505 134.449 681.331 138.45 689.802 145.716C693.687 149.04 696.982 152.944 699.591 157.314C702.45 162.091 704.407 167.291 705.414 172.759C705.942 175.569 706.21 178.457 706.21 181.335C706.21 189.815 703.918 198.127 699.582 205.37C693.989 214.751 685.235 221.917 674.942 225.553C669.944 227.323 664.692 228.22 659.325 228.22V228.225ZM645.137 221.155C645.175 221.164 645.214 221.179 645.252 221.193C654.255 224.383 664.4 224.383 673.398 221.193C682.674 217.917 690.564 211.456 695.605 203C699.514 196.477 701.577 188.99 701.577 181.344C701.577 178.749 701.337 176.15 700.862 173.617C700.862 173.617 700.862 173.617 700.862 173.612C699.956 168.686 698.191 164.005 695.615 159.698C693.26 155.76 690.291 152.239 686.785 149.242C679.153 142.694 669.397 139.092 659.32 139.092C649.243 139.092 639.492 142.694 631.86 149.242C624.512 155.53 619.51 164.183 617.773 173.612C617.303 176.116 617.068 178.716 617.068 181.344C617.068 199.192 628.34 215.178 645.137 221.16V221.155ZM659.325 206.497C658.5 206.497 657.732 206.056 657.32 205.341C652.049 196.223 644.441 188.616 635.323 183.344C634.609 182.932 634.168 182.164 634.168 181.339C634.168 180.514 634.609 179.747 635.323 179.335C644.441 174.063 652.049 166.461 657.32 157.348C657.732 156.633 658.5 156.192 659.325 156.192C660.15 156.192 660.917 156.633 661.33 157.348C666.601 166.461 674.208 174.063 683.317 179.335C684.031 179.747 684.473 180.514 684.473 181.339C684.473 182.164 684.031 182.932 683.317 183.344C674.203 188.62 666.596 196.228 661.33 205.341C660.917 206.056 660.15 206.497 659.325 206.497ZM640.883 181.339C648.207 186.169 654.49 192.458 659.325 199.782C664.155 192.458 670.438 186.174 677.758 181.339C670.438 176.509 664.155 170.226 659.325 162.907C654.49 170.226 648.207 176.509 640.883 181.339Z" fill="#001081"/>
<path d="M838.333 139.087H659.325C658.044 139.087 657.008 138.051 657.008 136.771C657.008 135.49 658.044 134.454 659.325 134.454H838.333C839.614 134.454 840.65 135.49 840.65 136.771C840.65 138.051 839.614 139.087 838.333 139.087Z" fill="#001081"/>
<path d="M838.333 228.225H659.325C658.044 228.225 657.008 227.189 657.008 225.908C657.008 224.627 658.044 223.591 659.325 223.591H838.333C839.614 223.591 840.65 224.627 840.65 225.908C840.65 227.189 839.614 228.225 838.333 228.225Z" fill="#001081"/>
<path d="M838.338 183.656H703.894C702.613 183.656 701.577 182.62 701.577 181.339C701.577 180.059 702.613 179.023 703.894 179.023H838.338C839.619 179.023 840.655 180.059 840.655 181.339C840.655 182.62 839.619 183.656 838.338 183.656Z" fill="#001081"/>
<path d="M838.338 160.82H697.601C696.32 160.82 695.284 159.784 695.284 158.504C695.284 157.223 696.32 156.187 697.601 156.187H838.338C839.619 156.187 840.655 157.223 840.655 158.504C840.655 159.784 839.619 160.82 838.338 160.82Z" fill="#001081"/>
<path d="M838.338 206.497H697.591C696.31 206.497 695.274 205.461 695.274 204.18C695.274 202.899 696.31 201.863 697.591 201.863H838.338C839.619 201.863 840.655 202.899 840.655 204.18C840.655 205.461 839.619 206.497 838.338 206.497Z" fill="#001081"/>
<path d="M838.333 123.983H599.633C598.352 123.983 597.316 122.947 597.316 121.667C597.316 120.386 598.352 119.35 599.633 119.35H838.333C839.614 119.35 840.65 120.386 840.65 121.667C840.65 122.947 839.614 123.983 838.333 123.983Z" fill="#001081"/>
<path d="M480.283 720.734H360.933C359.652 720.734 358.616 719.698 358.616 718.417V479.717C358.616 478.436 359.652 477.4 360.933 477.4H480.283C481.564 477.4 482.6 478.436 482.6 479.717V718.417C482.6 719.698 481.564 720.734 480.283 720.734ZM363.25 716.1H477.966V482.034H363.25V716.1Z" fill="#001081"/>
<path d="M420.61 660.951C420.016 660.951 419.426 660.725 418.975 660.275L389.083 630.383C388.177 629.477 388.177 628.014 389.083 627.107L418.975 597.216C419.881 596.309 421.344 596.309 422.251 597.216L452.142 627.107C453.044 628.014 453.044 629.477 452.142 630.383L422.251 660.275C421.8 660.725 421.205 660.951 420.615 660.951H420.61ZM393.995 628.743L420.61 655.358L447.226 628.743L420.61 602.127L393.995 628.743Z" fill="#001081"/>
<path d="M420.61 541.845C419.996 541.845 419.406 541.601 418.975 541.169L389.083 511.278C388.177 510.371 388.177 508.908 389.083 508.002L418.975 478.11C419.843 477.242 421.383 477.242 422.251 478.11L452.142 508.002C453.044 508.908 453.044 510.371 452.142 511.278L422.251 541.169C421.814 541.606 421.229 541.845 420.615 541.845H420.61ZM393.995 509.637L420.61 536.253L447.226 509.637L420.61 483.022L393.995 509.637Z" fill="#001081"/>
<path d="M390.714 511.954H360.933C359.652 511.954 358.616 510.918 358.616 509.637C358.616 508.357 359.652 507.321 360.933 507.321H390.714C391.995 507.321 393.031 508.357 393.031 509.637C393.031 510.918 391.995 511.954 390.714 511.954Z" fill="#001081"/>
<path d="M480.283 511.954H450.502C449.221 511.954 448.185 510.918 448.185 509.637C448.185 508.357 449.221 507.321 450.502 507.321H480.283C481.564 507.321 482.6 508.357 482.6 509.637C482.6 510.918 481.564 511.954 480.283 511.954Z" fill="#001081"/>
<path d="M390.714 631.059H360.933C359.652 631.059 358.616 630.023 358.616 628.743C358.616 627.462 359.652 626.426 360.933 626.426H390.714C391.995 626.426 393.031 627.462 393.031 628.743C393.031 630.023 391.995 631.059 390.714 631.059Z" fill="#001081"/>
<path d="M480.283 631.059H450.502C449.221 631.059 448.185 630.023 448.185 628.743C448.185 627.462 449.221 626.426 450.502 626.426H480.283C481.564 626.426 482.6 627.462 482.6 628.743C482.6 630.023 481.564 631.059 480.283 631.059Z" fill="#001081"/>
<path d="M718.983 123.983H599.633C598.352 123.983 597.316 122.947 597.316 121.667V2.31669C597.316 1.03603 598.352 0 599.633 0H718.983C720.264 0 721.3 1.03603 721.3 2.31669V121.667C721.3 122.947 720.264 123.983 718.983 123.983ZM601.95 119.35H716.667V4.63337H601.95V119.35Z" fill="#001081"/>
<path d="M659.31 91.2621C655.996 91.2621 652.744 90.7105 649.636 89.6217C649.607 89.6121 649.583 89.6025 649.554 89.5929C637.88 85.4679 630.033 74.3738 630.033 61.9893C630.033 60.1811 630.201 58.3776 630.527 56.6317C631.731 50.0989 635.194 44.0986 640.278 39.753C645.564 35.2203 652.322 32.7214 659.306 32.7214C666.289 32.7214 673.048 35.2203 678.333 39.7578C683.413 44.1034 686.876 50.0989 688.084 56.6461C688.411 58.3824 688.578 60.1859 688.578 61.9989C688.578 74.3881 680.731 85.4823 669.057 89.6025C665.944 90.7057 662.658 91.2669 659.306 91.2669L659.31 91.2621ZM651.027 85.2041C651.051 85.2137 651.075 85.2185 651.099 85.2281C656.38 87.0939 662.289 87.0844 667.517 85.2281C677.35 81.7555 683.95 72.4168 683.95 61.9893C683.95 60.464 683.811 58.9484 683.533 57.4855C682.516 51.9743 679.604 46.9285 675.321 43.2688C670.87 39.4508 665.181 37.35 659.306 37.35C653.43 37.35 647.737 39.4508 643.29 43.2688C639.007 46.9333 636.091 51.9743 635.079 57.4807C634.801 58.958 634.661 60.4736 634.661 61.9941C634.661 72.3976 641.233 81.7171 651.022 85.2089L651.027 85.2041Z" fill="#001081"/>
<path d="M666.457 74.1435H652.164C651.161 74.1435 650.269 73.496 649.962 72.5415L645.545 58.9484C645.233 57.9939 645.573 56.9483 646.384 56.3583L657.943 47.9597C658.754 47.3698 659.853 47.3698 660.668 47.9597L672.232 56.3583C673.043 56.9483 673.383 57.9939 673.072 58.9484L668.654 72.5415C668.342 73.496 667.455 74.1435 666.452 74.1435H666.457ZM653.847 69.5102H664.774L668.15 59.1211L659.31 52.6986L650.471 59.1211L653.847 69.5102Z" fill="#001081"/>
<path d="M659.311 52.1518H659.306C658.025 52.1518 656.994 51.1062 656.999 49.8303L657.042 35.0333C657.042 33.7574 658.083 32.7214 659.359 32.7214H659.363C660.644 32.7214 661.675 33.767 661.675 35.0429L661.632 49.8399C661.632 51.1158 660.591 52.147 659.315 52.147L659.311 52.1518Z" fill="#001081"/>
<path d="M647.746 60.5504C647.506 60.5504 647.262 60.512 647.022 60.4353L632.964 55.8259C631.75 55.4278 631.088 54.1184 631.486 52.9049C631.884 51.6866 633.194 51.0246 634.407 51.4275L648.466 56.0417C649.679 56.4398 650.341 57.7493 649.943 58.9628C649.622 59.9365 648.715 60.56 647.741 60.56L647.746 60.5504Z" fill="#001081"/>
<path d="M643.434 86.0867C642.959 86.0867 642.48 85.9428 642.067 85.6406C641.036 84.8876 640.811 83.4391 641.564 82.403L650.293 70.4599C651.046 69.4286 652.5 69.2032 653.531 69.9562C654.562 70.7093 654.787 72.1626 654.034 73.1938L645.305 85.137C644.849 85.7557 644.149 86.0867 643.434 86.0867Z" fill="#001081"/>
<path d="M675.12 86.1347C674.4 86.1347 673.695 85.8037 673.239 85.1754L664.577 73.1795C663.829 72.1434 664.064 70.6949 665.1 69.9466C666.136 69.1984 667.584 69.4286 668.333 70.4695L676.995 82.4654C677.743 83.5014 677.508 84.9499 676.472 85.6982C676.065 85.9956 675.59 86.1347 675.12 86.1347Z" fill="#001081"/>
<path d="M670.87 60.5504C669.892 60.5504 668.98 59.9269 668.668 58.9436C668.275 57.7253 668.947 56.4206 670.165 56.0273L684.247 51.4947C685.466 51.1014 686.77 51.7729 687.159 52.9912C687.552 54.2095 686.881 55.5141 685.662 55.9026L671.58 60.4353C671.345 60.512 671.105 60.5456 670.87 60.5456V60.5504Z" fill="#001081"/>
<path d="M659.315 113.244C653.502 113.244 647.794 112.275 642.341 110.362C642.302 110.352 642.269 110.338 642.235 110.328C621.793 103.109 608.06 83.6837 608.06 61.9941C608.06 58.8285 608.353 55.6724 608.929 52.6123C611.039 41.1679 617.102 30.6685 626.004 23.0565C635.256 15.1184 647.089 10.744 659.32 10.744C671.551 10.744 683.374 15.1184 692.631 23.0565C701.529 30.6685 707.596 41.1679 709.707 52.6171C710.282 55.6628 710.57 58.8189 710.57 61.9893C710.57 83.6789 696.838 103.1 676.395 110.323C670.942 112.261 665.196 113.239 659.32 113.239L659.315 113.244ZM643.679 105.925C643.712 105.934 643.746 105.949 643.78 105.958C653.771 109.489 664.942 109.474 674.841 105.958C693.437 99.3873 705.932 81.7219 705.932 61.9941C705.932 59.1115 705.668 56.2432 705.145 53.4708C703.227 43.0529 697.711 33.5032 689.614 26.5771C681.192 19.3537 670.433 15.3774 659.315 15.3774C648.197 15.3774 637.429 19.3537 629.011 26.5771C620.91 33.5032 615.394 43.0529 613.476 53.466C612.953 56.2528 612.689 59.121 612.689 61.9989C612.689 81.6931 625.141 99.3345 643.679 105.93V105.925Z" fill="#001081"/>
<path d="M599.633 123.983H539.961C538.68 123.983 537.644 122.947 537.644 121.667V61.9893C537.644 60.7087 538.68 59.6726 539.961 59.6726H599.633C600.914 59.6726 601.95 60.7087 601.95 61.9893V121.667C601.95 122.947 600.914 123.983 599.633 123.983ZM542.272 119.35H597.317V64.306H542.272V119.35Z" fill="#001081"/>
<path d="M599.633 123.983C599.038 123.983 598.448 123.758 597.998 123.307L538.32 63.6297C537.418 62.7232 537.418 61.2603 538.32 60.3537C539.227 59.452 540.69 59.452 541.596 60.3537L601.269 120.031C602.17 120.938 602.17 122.401 601.269 123.307C600.818 123.758 600.223 123.983 599.633 123.983Z" fill="#001081"/>
<path d="M569.794 114.04C557.549 114.04 547.587 104.078 547.587 91.8328C547.587 79.5875 557.549 69.6253 569.794 69.6253C582.04 69.6253 592.002 79.5875 592.002 91.8328C592.002 104.078 582.04 114.04 569.794 114.04ZM569.794 74.2538C560.101 74.2538 552.22 82.1392 552.22 91.828C552.22 101.517 560.106 109.407 569.794 109.407C579.483 109.407 587.369 101.522 587.369 91.828C587.369 82.1344 579.483 74.2538 569.794 74.2538Z" fill="#001081"/>
<path d="M61.9893 323.885C60.7086 323.885 59.6726 322.849 59.6726 321.568V263.666C59.6726 262.385 60.7086 261.349 61.9893 261.349C63.2699 261.349 64.306 262.385 64.306 263.666V321.568C64.306 322.849 63.2699 323.885 61.9893 323.885Z" fill="#001081"/>
</g>
<defs>
<clipPath id="clip0_2_199">
<rect width="960" height="720.734" fill="white"/>
</clipPath>
</defs>
</svg>
