<svg width="760" height="425" viewBox="0 0 760 425" fill="none" xmlns="http://www.w3.org/2000/svg">
<g clip-path="url(#clip0_7_1020)">
<path d="M222.975 0.858917H117.291V106.543H222.975V0.858917Z" fill="#001081"/>
<path d="M352.847 0.858917H247.163V106.543H352.847V0.858917Z" fill="#CCEEFF"/>
<path d="M482.714 0.858917H377.03V106.543H482.714V0.858917Z" fill="url(#paint0_linear_7_1020)"/>
<path d="M612.581 0.858917H506.897V106.543H612.581V0.858917Z" fill="white"/>
<path d="M161.553 12.579H135.513C132.256 12.579 129.616 15.2191 129.616 18.4759C129.616 21.7328 132.256 24.3729 135.513 24.3729H161.553C164.81 24.3729 167.45 21.7328 167.45 18.4759C167.45 15.2191 164.81 12.579 161.553 12.579Z" fill="white"/>
<path d="M288.585 21.9439H262.545C259.289 21.9439 256.648 19.3025 256.648 16.047C256.648 12.7914 259.289 10.15 262.545 10.15H288.585C291.84 10.15 294.482 12.7914 294.482 16.047C294.482 19.3025 291.84 21.9439 288.585 21.9439Z" fill="#001081"/>
<path d="M420.562 21.9439H394.522C391.267 21.9439 388.625 19.3025 388.625 16.047C388.625 12.7914 391.267 10.15 394.522 10.15H420.562C423.818 10.15 426.459 12.7914 426.459 16.047C426.459 19.3025 423.818 21.9439 420.562 21.9439Z" fill="#001081"/>
<path d="M547.858 21.9439H521.818C518.562 21.9439 515.921 19.3025 515.921 16.047C515.921 12.7914 518.562 10.15 521.818 10.15H547.858C551.113 10.15 553.755 12.7914 553.755 16.047C553.755 19.3025 551.113 21.9439 547.858 21.9439Z" fill="#001081"/>
<path d="M135.827 84.0676H132.082V91.1883H135.827V84.0676Z" fill="white"/>
<path d="M146.236 76.9423H142.491V91.1836H146.236V76.9423Z" fill="white"/>
<path d="M156.649 84.0676H152.904V91.1883H156.649V84.0676Z" fill="white"/>
<path d="M167.062 81.7494H163.317V91.1836H167.062V81.7494Z" fill="white"/>
<path d="M177.475 76.9423H173.73V91.1836H177.475V76.9423Z" fill="white"/>
<path d="M187.888 64.8528H184.143V91.1836H187.888V64.8528Z" fill="white"/>
<path d="M198.302 59.2468H194.557V91.1837H198.302V59.2468Z" fill="white"/>
<path d="M208.715 53.4421H204.97V91.1883H208.715V53.4421Z" fill="white"/>
<path d="M263.048 89.475L259.303 89.3088C259.77 78.7617 267.481 69.0227 277.636 66.1504C283.454 64.5065 289.439 65.0421 295.23 65.5639C299.409 65.938 303.727 66.3305 307.818 65.8456C316.07 64.8805 323.796 60.2119 328.488 53.359C332.681 47.2358 332.653 41.5605 332.611 32.1586L332.602 29.1016H336.347L336.356 32.1401C336.402 41.9253 336.435 48.3856 331.577 55.474C326.28 63.2088 317.562 68.4732 308.248 69.563C303.773 70.0894 299.257 69.6784 294.893 69.2905C289.19 68.7779 283.801 68.2931 278.657 69.7523C270.007 72.1998 263.445 80.4934 263.048 89.4704V89.475Z" fill="#001081"/>
<path d="M428.976 87.12C404.807 87.12 394.92 38.6466 394.513 36.5871L398.189 35.8575C398.282 36.3331 407.868 83.3749 428.976 83.3749C450.084 83.3749 459.671 36.3331 459.763 35.8575L463.439 36.5871C463.028 38.6512 453.141 87.12 428.976 87.12Z" fill="#001081"/>
<path d="M559.744 90.0892C543.558 90.0892 530.388 76.9192 530.388 60.7337C530.388 44.5482 543.558 31.3781 559.744 31.3781C575.929 31.3781 589.1 44.5436 589.1 60.7337C589.1 76.9238 575.934 90.0892 559.744 90.0892ZM559.744 35.1278C545.623 35.1278 534.133 46.617 534.133 60.7337C534.133 74.8504 545.623 86.3442 559.744 86.3442C573.865 86.3442 585.35 74.855 585.35 60.7337C585.35 46.6124 573.861 35.1278 559.744 35.1278Z" fill="#001081"/>
<path d="M587.22 62.6085H557.869V33.2576H561.614V58.8635H587.22V62.6085Z" fill="#001081"/>
<path d="M288.58 82.7885H280.25V84.8711H288.58V82.7885Z" fill="#001081"/>
<path d="M288.58 87.6787H280.25V89.7614H288.58V87.6787Z" fill="#001081"/>
<path d="M140.634 53.3174H132.304V55.4001H140.634V53.3174Z" fill="white"/>
<path d="M140.634 58.2077H132.304V60.2904H140.634V58.2077Z" fill="white"/>
<path d="M415.876 36.2084H407.545V38.291H415.876V36.2084Z" fill="#001081"/>
<path d="M415.876 41.0987H407.545V43.1813H415.876V41.0987Z" fill="#001081"/>
<path d="M461.601 80.5811H453.271V82.6638H461.601V80.5811Z" fill="#001081"/>
<path d="M461.601 85.4668H453.271V87.5494H461.601V85.4668Z" fill="#001081"/>
<path d="M597.314 83.0239H588.984V85.1066H597.314V83.0239Z" fill="#001081"/>
<path d="M597.314 87.9142H588.984V89.9968H597.314V87.9142Z" fill="#001081"/>
<path d="M581.914 423.56H587.511V346.373H581.914V423.56Z" fill="#001081"/>
<path d="M566.394 346.373H752.104V227.321H598.663L566.394 346.373Z" fill="#001081"/>
<path d="M752.104 347.232H566.394C566.126 347.232 565.877 347.107 565.71 346.895C565.549 346.683 565.493 346.406 565.562 346.147L597.836 227.095C597.938 226.721 598.275 226.462 598.663 226.462H752.104C752.58 226.462 752.963 226.845 752.963 227.321V346.373C752.963 346.849 752.58 347.232 752.104 347.232ZM567.516 345.514H751.245V228.18H599.323L567.516 345.514Z" fill="#001081"/>
<path d="M604.976 328.853V330.317H718.329L718.468 329.758L742.882 227.321H741.382L717.189 328.853H604.976Z" fill="#001081"/>
<path d="M753.369 241.392L715.129 200.376L702.333 186.661C701.645 185.918 700.911 185.248 700.126 184.666C697.286 182.5 693.883 181.346 690.331 181.161C688.364 180.621 686.3 180.307 684.162 180.307H638.921C636.571 180.307 634.303 180.662 632.165 181.309C631.685 181.378 631.209 181.457 630.734 181.572C629.778 181.785 628.831 182.094 627.903 182.491L610.628 189.797L558.986 211.657C549.298 215.799 545.004 228.083 549.405 239.096C553.796 250.105 565.216 255.67 574.909 251.528L610.129 236.617L613.191 235.324L615.657 234.28V291.389C615.657 292.22 616.331 292.89 617.157 292.89H705.921C706.752 292.89 707.422 292.215 707.422 291.389V255.042L722.582 271.301C729.745 279.031 742.439 278.607 750.936 270.345C759.442 262.084 760.532 249.117 753.369 241.387V241.392Z" fill="#1FED93"/>
<path d="M705.921 293.758H617.157C615.855 293.758 614.798 292.7 614.798 291.398V235.582L575.241 252.327C573.011 253.282 570.646 253.763 568.222 253.763C559.915 253.763 552.032 248 548.61 239.424C544.048 228 548.55 215.195 558.654 210.877L627.57 181.711C628.563 181.286 629.57 180.958 630.549 180.741C631.034 180.626 631.537 180.542 632.041 180.469C634.197 179.804 636.552 179.457 638.921 179.457H684.167C686.245 179.457 688.364 179.748 690.475 180.316C694.261 180.533 697.78 181.798 700.652 183.992C701.451 184.583 702.236 185.29 702.97 186.088L754.007 240.814C761.474 248.877 760.365 262.407 751.541 270.978C747.075 275.314 741.418 277.706 735.605 277.706C730.271 277.706 725.427 275.642 721.964 271.897L708.29 257.235V291.403C708.29 292.705 707.233 293.762 705.93 293.762L705.921 293.758ZM615.656 233.43C615.823 233.43 615.989 233.477 616.132 233.574C616.372 233.731 616.515 234.003 616.515 234.289V291.398C616.515 291.754 616.806 292.04 617.157 292.04H705.921C706.277 292.04 706.563 291.749 706.563 291.398V255.051C706.563 254.7 706.78 254.381 707.108 254.252C707.436 254.123 707.81 254.206 708.05 254.465L723.21 270.724C726.35 274.113 730.751 275.984 735.595 275.984C740.883 275.984 746.253 273.707 750.335 269.74C758.495 261.812 759.576 249.362 752.737 241.978L701.7 187.252C701.036 186.532 700.329 185.894 699.609 185.359C696.981 183.355 693.758 182.2 690.281 182.02C690.221 182.02 690.156 182.006 690.096 181.992C688.106 181.447 686.111 181.17 684.153 181.17H638.907C636.709 181.17 634.52 181.494 632.401 182.14C631.823 182.233 631.371 182.311 630.918 182.417C630.027 182.611 629.127 182.907 628.226 183.29L559.31 212.461C550.06 216.414 545.969 228.226 550.19 238.792C553.353 246.72 560.598 252.049 568.208 252.049C570.402 252.049 572.535 251.611 574.558 250.747L615.31 233.5C615.416 233.453 615.532 233.43 615.643 233.43H615.656Z" fill="#001081"/>
<path d="M650.05 232.816L670.438 180.312H640.117L650.05 232.816Z" fill="white"/>
<path d="M650.05 233.675C650.022 233.675 649.999 233.675 649.972 233.675C649.588 233.638 649.279 233.357 649.205 232.978L639.272 180.473C639.226 180.224 639.291 179.961 639.457 179.767C639.618 179.568 639.863 179.457 640.117 179.457H670.438C670.719 179.457 670.987 179.596 671.144 179.831C671.306 180.067 671.338 180.362 671.237 180.626L650.844 233.13C650.715 233.463 650.396 233.68 650.046 233.68L650.05 233.675ZM641.156 181.17L650.336 229.708L669.186 181.17H641.156Z" fill="#001081"/>
<path d="M655.965 166.943C659.531 166.943 662.421 164.053 662.421 160.487C662.421 156.922 659.531 154.031 655.965 154.031C652.4 154.031 649.51 156.922 649.51 160.487C649.51 164.053 652.4 166.943 655.965 166.943Z" fill="#001081"/>
<path d="M665.344 180.385L657.046 152.641C655.753 146.744 649.916 143.004 644.019 144.311C640.736 145.027 638.131 147.151 636.686 149.894C635.896 151.39 635.453 153.066 635.425 154.812V154.983L635.384 168.144C635.375 168.758 635.485 169.353 635.689 169.903C636.566 172.267 639.194 173.883 641.77 173.315L645.012 172.604L650.406 191.722L665.344 180.39V180.385Z" fill="white"/>
<path d="M650.406 192.336C650.341 192.336 650.272 192.327 650.207 192.304C650.013 192.239 649.861 192.082 649.805 191.884L644.569 173.329L641.895 173.916C639.129 174.521 636.1 172.803 635.102 170.115C634.862 169.473 634.751 168.804 634.761 168.13L634.802 154.807C634.834 152.992 635.296 151.196 636.137 149.598C637.725 146.574 640.551 144.426 643.885 143.697C644.707 143.517 645.548 143.424 646.384 143.424C651.763 143.424 656.501 147.243 657.656 152.503L665.945 180.205C666.019 180.455 665.931 180.722 665.723 180.875L650.784 192.207C650.674 192.29 650.544 192.332 650.41 192.332L650.406 192.336ZM645.012 171.981C645.285 171.981 645.529 172.161 645.608 172.433L650.757 190.674L664.629 180.15L656.464 152.854C656.437 152.785 656.423 152.711 656.423 152.637C655.407 148.074 651.177 144.666 646.379 144.666C645.635 144.666 644.883 144.75 644.149 144.911C641.17 145.562 638.649 147.483 637.231 150.18C636.478 151.607 636.067 153.214 636.04 154.821L635.998 168.144C635.989 168.67 636.077 169.187 636.261 169.686C637.056 171.815 639.448 173.186 641.627 172.711L644.869 171.999C644.915 171.99 644.957 171.986 645.003 171.986L645.012 171.981Z" fill="#001081"/>
<path d="M635.633 152.845H643.945C647.376 152.798 647.603 158.174 651.883 160.039C655.407 161.577 658.45 161.503 659.669 161.383L657.055 152.646C655.758 146.745 649.925 143.004 644.024 144.302C639.66 145.258 636.525 148.43 635.638 152.845H635.633Z" fill="#001081"/>
<path d="M655.022 159.592C655.351 157.638 654.033 155.787 652.079 155.459C650.125 155.13 648.274 156.447 647.946 158.402C647.617 160.356 648.935 162.206 650.889 162.535C652.843 162.864 654.694 161.546 655.022 159.592Z" fill="white"/>
<path d="M638.672 164.666H637.037V162.09H637.619V164.089H638.672V164.666Z" fill="#001081"/>
<path d="M638.076 168.781V168.199C639.623 168.199 640.718 166.712 640.731 166.698L641.202 167.04C641.152 167.109 639.919 168.781 638.081 168.781H638.076Z" fill="#001081"/>
<path d="M664.342 174.405L650.35 186.398L656.136 194.664L668.434 180.159L664.342 174.405Z" fill="white"/>
<path d="M656.136 195.523C656.136 195.523 656.109 195.523 656.095 195.523C655.827 195.509 655.582 195.375 655.43 195.158L649.644 186.892C649.39 186.532 649.454 186.033 649.787 185.747L663.784 173.754C663.968 173.597 664.204 173.523 664.448 173.556C664.689 173.583 664.901 173.713 665.044 173.911L669.136 179.665C669.362 179.984 669.343 180.418 669.089 180.718L656.792 195.222C656.626 195.416 656.39 195.527 656.136 195.527V195.523ZM651.5 186.546L656.201 193.26L667.348 180.113L664.19 175.671L651.5 186.546Z" fill="#001081"/>
<path d="M646.236 176.945L650.35 186.398L644.938 193.708L641.632 181.06L646.236 176.945Z" fill="white"/>
<path d="M644.938 194.567C644.883 194.567 644.832 194.562 644.777 194.553C644.453 194.488 644.19 194.248 644.107 193.925L640.801 181.277C640.717 180.963 640.819 180.635 641.059 180.418L645.663 176.299C645.871 176.114 646.153 176.04 646.42 176.1C646.688 176.16 646.915 176.345 647.025 176.594L651.14 186.047C651.26 186.329 651.223 186.652 651.043 186.901L645.631 194.211C645.469 194.433 645.211 194.558 644.938 194.558V194.567ZM642.592 181.351L645.312 191.754L649.362 186.282L645.922 178.372L642.592 181.351Z" fill="#001081"/>
<path d="M650.35 186.398L655.277 193.435L651.255 198.496L657.083 214.705L650.05 232.816L645.991 212.364L649.149 198.524L645.543 192.89L650.35 186.398Z" fill="#001081"/>
<path d="M639.272 154.031C642.98 154.031 645.986 151.025 645.986 147.317C645.986 143.609 642.98 140.603 639.272 140.603C635.564 140.603 632.558 143.609 632.558 147.317C632.558 151.025 635.564 154.031 639.272 154.031Z" fill="#001081"/>
<path d="M577.781 245.497C584.634 237.186 583.453 224.892 575.141 218.038C566.83 211.185 554.536 212.366 547.683 220.678C540.829 228.989 542.011 241.283 550.322 248.136C558.633 254.99 570.927 253.809 577.781 245.497Z" fill="#F5EEF3"/>
<path d="M736.921 234.746C736.884 234.733 736.847 234.733 736.81 234.719L678.441 222.638L672.414 221.392L672.35 221.378L668.836 220.436L667.136 219.983L666.891 219.919L665.164 219.461C665.164 219.461 654.89 216.723 653.357 216.307L647.908 214.857C635.661 211.431 632.295 215.624 632.807 217.799L639.771 247.034C640.344 249.482 642.916 250.941 645.368 250.101C647.099 249.51 648.166 247.847 648.222 246.069C648.235 245.668 648.199 245.27 648.097 244.859C647.852 243.825 648.803 242.897 649.833 243.169L661.438 246.259L665.035 247.219L665.423 247.325C665.423 247.325 667.958 248.623 672.063 250.659C672.234 250.738 672.401 250.826 672.576 250.909C685.931 257.535 714.4 271.343 726.212 274.487C739.087 277.918 748.47 270.886 751.388 259.904C751.813 258.344 752.035 256.769 752.09 255.226C752.377 245.922 746.277 237.3 736.916 234.746H736.921Z" fill="white"/>
<path d="M732.585 276.219C730.465 276.219 728.249 275.914 726 275.314C714.413 272.229 687.321 259.179 672.202 251.675L671.703 251.431C668 249.588 665.571 248.355 665.118 248.124L661.225 247.081L649.621 243.991C649.302 243.977 649.15 244.047 649.043 244.185C648.983 244.264 648.887 244.425 648.942 244.652C649.057 245.123 649.104 245.594 649.09 246.088C649.016 248.291 647.635 250.225 645.654 250.904C645.1 251.094 644.527 251.191 643.955 251.191C641.553 251.191 639.489 249.56 638.944 247.224L631.981 217.988C631.764 217.074 632.031 216.058 632.715 215.195C633.454 214.262 635.356 212.696 639.808 212.696C642.186 212.696 644.994 213.144 648.148 214.026L653.587 215.472C655.125 215.887 665.395 218.626 665.395 218.626L672.581 220.542L736.99 233.874C737.032 233.883 737.179 233.92 737.216 233.938C746.761 236.534 753.259 245.307 752.954 255.25C752.894 256.917 752.649 258.556 752.224 260.126C749.588 270.05 742.06 276.219 732.585 276.219ZM649.473 242.255C649.672 242.255 649.87 242.283 650.064 242.334L665.658 246.494C665.714 246.508 665.769 246.531 665.82 246.554C665.82 246.554 668.355 247.847 672.451 249.888L672.945 250.133C685.09 256.159 714.57 270.498 726.438 273.656C728.544 274.22 730.613 274.501 732.58 274.501C741.243 274.501 748.133 268.821 750.562 259.678C750.954 258.233 751.181 256.727 751.231 255.19C751.513 246.046 745.533 237.979 736.69 235.568C736.667 235.564 736.533 235.527 736.514 235.518L672.239 222.223L664.947 220.283C664.947 220.283 654.668 217.545 653.135 217.129L647.691 215.679C644.675 214.834 642.024 214.41 639.803 214.41C635.938 214.41 634.497 215.703 634.059 216.257C633.708 216.7 633.555 217.199 633.648 217.591L640.611 246.827C641.064 248.762 643.174 249.939 645.095 249.279C646.407 248.831 647.321 247.524 647.372 246.032C647.381 245.695 647.349 245.377 647.27 245.053C647.109 244.37 647.261 243.663 647.695 243.119C648.129 242.569 648.78 242.255 649.473 242.255Z" fill="#001081"/>
<path d="M714.598 270.364C719.193 272.22 723.238 273.698 726.221 274.487C739.096 277.919 748.479 270.886 751.398 259.904C751.822 258.344 752.044 256.773 752.1 255.227C752.386 245.922 746.286 237.3 736.925 234.746C736.888 234.733 736.852 234.733 736.815 234.719L719.789 231.195C727.168 234.705 731.776 242.283 731.518 250.392C731.472 251.939 731.241 253.509 730.825 255.069C728.632 263.312 722.809 269.325 714.598 270.359V270.364Z" fill="white"/>
<path d="M732.585 276.219C730.465 276.219 728.248 275.914 726 275.314C723.178 274.566 719.341 273.204 714.279 271.153C713.919 271.006 713.698 270.636 713.748 270.248C713.799 269.86 714.104 269.556 714.492 269.509C722.01 268.563 727.805 263.086 729.999 254.852C730.396 253.361 730.617 251.851 730.664 250.369C730.913 242.555 726.498 235.338 719.424 231.971C719.031 231.786 718.842 231.334 718.98 230.923C719.119 230.512 719.548 230.272 719.969 230.355L736.995 233.878C737.036 233.888 737.184 233.924 737.225 233.943C746.771 236.543 753.268 245.312 752.963 255.254C752.903 256.926 752.658 258.565 752.233 260.131C749.597 270.054 742.07 276.224 732.594 276.224L732.585 276.219ZM717.595 270.627C721.266 272.054 724.236 273.07 726.438 273.656C728.544 274.22 730.613 274.501 732.58 274.501C741.243 274.501 748.133 268.821 750.562 259.678C750.954 258.233 751.181 256.727 751.236 255.19C751.518 246.051 745.538 237.979 736.694 235.568C736.671 235.564 736.542 235.527 736.519 235.518L724.296 232.996C729.518 237.148 732.589 243.576 732.377 250.415C732.331 252.026 732.086 253.67 731.656 255.287C729.565 263.141 724.411 268.692 717.6 270.618L717.595 270.627Z" fill="#001081"/>
<path d="M501.135 356.763L551.76 389.494L561.803 373.955L528.855 352.653C528.855 352.653 518.969 355.637 511.894 352.704C505.475 350.044 501.135 356.763 501.135 356.763Z" fill="url(#paint1_linear_7_1020)"/>
<path d="M589.201 423.56H649.482L647.653 405.057H608.42C608.42 405.057 602.514 412.93 595.121 414.306C588.411 415.558 589.201 423.556 589.201 423.556V423.56Z" fill="url(#paint2_linear_7_1020)"/>
<path d="M686.78 329.578H639.198L647.649 405.057H608.42L601.489 385.722L587.382 346.429L579.661 324.928C572.683 305.478 586.241 284.31 606.896 283.418C607.344 283.4 607.806 283.386 608.268 283.386C608.55 283.386 608.831 283.418 609.113 283.437V283.386H707.5L711.869 295.771C716.829 312.705 704.425 329.574 686.78 329.574V329.578Z" fill="white"/>
<path d="M647.649 405.92H608.42C608.056 405.92 607.737 405.694 607.612 405.352L578.852 325.224C575.412 315.632 576.756 304.84 582.454 296.362C588.056 288.022 596.95 282.993 606.86 282.569C607.525 282.546 608.213 282.513 608.896 282.569C608.965 282.55 609.039 282.536 609.113 282.536H707.501C707.865 282.536 708.189 282.767 708.309 283.109L712.677 295.494C715.152 303.945 713.587 312.737 708.396 319.668C703.271 326.512 695.393 330.437 686.78 330.437H640.159L648.503 404.964C648.531 405.204 648.452 405.449 648.291 405.634C648.129 405.814 647.894 405.92 647.649 405.92ZM609.025 404.202H646.688L638.344 329.675C638.316 329.435 638.395 329.19 638.556 329.006C638.718 328.825 638.954 328.719 639.198 328.719H686.776C694.838 328.719 702.218 325.043 707.02 318.639C711.883 312.141 713.351 303.898 711.042 296.016L706.891 284.245H609.367C609.27 284.282 609.164 284.3 609.058 284.291L608.771 284.273C608.153 284.222 607.525 284.254 606.924 284.273C597.573 284.679 589.169 289.431 583.877 297.309C578.4 305.459 577.158 315.42 580.464 324.632L609.021 404.193L609.025 404.202Z" fill="#001081"/>
<path d="M711.984 296.122L707.505 283.391L618.183 256.496H618.178L618.118 256.473H618.113C610.803 253.421 602.556 253.421 595.213 256.215C588.749 258.644 582.99 263.275 579.203 269.842L528.86 352.649L561.803 373.951C561.803 373.951 573.745 361.284 587.386 346.433L579.665 324.933C573.667 308.211 582.852 290.234 598.672 284.947L623.881 305.025L654.71 329.592H688.3C692.132 329.592 695.707 328.756 698.888 327.279C710.11 322.06 716.478 308.849 711.994 296.127L711.984 296.122Z" fill="white"/>
<path d="M561.799 374.81C561.637 374.81 561.476 374.764 561.332 374.671L528.389 353.369C527.996 353.115 527.881 352.598 528.121 352.201L578.465 269.394C582.168 262.975 588.01 258.002 594.904 255.411C602.486 252.52 610.992 252.599 618.335 255.642C618.363 255.651 618.39 255.656 618.413 255.67L707.75 282.573C708.013 282.652 708.221 282.85 708.313 283.109L712.793 295.84C717.267 308.53 711.444 322.384 699.239 328.054C695.813 329.643 692.128 330.451 688.286 330.451H654.696C654.502 330.451 654.312 330.386 654.16 330.262L598.497 285.912C591.27 288.461 585.179 293.956 581.739 301.054C578.127 308.493 577.675 316.87 580.464 324.646L588.185 346.147C588.291 346.447 588.227 346.784 588.01 347.02C574.516 361.704 562.538 374.422 562.418 374.547C562.251 374.722 562.02 374.814 561.794 374.814L561.799 374.81ZM530.023 352.381L561.665 372.838C564.025 370.326 574.599 359.072 586.403 346.23L578.857 325.219C575.911 317.008 576.386 308.156 580.201 300.297C583.914 292.645 590.549 286.752 598.4 284.125C598.677 284.033 598.977 284.083 599.208 284.268L655.01 328.724H688.3C691.888 328.724 695.328 327.971 698.528 326.489C709.925 321.192 715.365 308.258 711.181 296.404L706.845 284.083L617.938 257.314C617.882 257.305 617.831 257.286 617.776 257.268C610.812 254.354 602.731 254.271 595.513 257.014C588.988 259.466 583.456 264.171 579.942 270.267L530.023 352.376V352.381Z" fill="#001081"/>
<path d="M654.252 330.155L656.178 329.883L596.663 282.416L595.758 283.557L654.252 330.155Z" fill="#001081"/>
<path d="M680.482 329.587H679.027V346.373H680.482V329.587Z" fill="#001081"/>
<path d="M746.507 423.56H752.104V346.373H746.507V423.56Z" fill="#001081"/>
<path d="M679.752 423.56H685.349V346.373H679.752V423.56Z" fill="#001081"/>
<path d="M606.721 205.58L600.413 185.788C599.245 182.126 595.269 180.224 591.533 181.54L590.924 181.752C587.188 183.068 585.1 187.104 586.269 190.766L588.301 197.143C579.887 201.54 559.171 212.729 551.557 220.2C543.637 227.977 544.699 237.683 551.335 244.43C555.713 248.886 561.924 250.447 567.576 249.089C570.499 248.387 573.27 246.91 575.569 244.661L602.634 214.331C606.001 212.816 607.829 209.048 606.721 205.58Z" fill="white"/>
<path d="M563.572 250.424C558.705 250.424 554.142 248.512 550.725 245.035C547.225 241.479 545.239 237.106 545.133 232.724C545.018 227.991 547.031 223.447 550.956 219.591C558.446 212.239 578.363 201.392 587.266 196.719L585.451 191.029C584.149 186.933 586.477 182.413 590.642 180.944L591.251 180.732C592.129 180.422 593.034 180.265 593.948 180.265C597.305 180.265 600.233 182.38 601.235 185.53L607.543 205.322C608.753 209.127 606.873 213.269 603.156 215.038L576.211 245.238C573.842 247.566 570.938 249.173 567.779 249.93C566.403 250.258 564.99 250.429 563.572 250.429V250.424ZM593.948 181.983C593.232 181.983 592.517 182.108 591.819 182.353L591.21 182.565C587.913 183.724 586.061 187.289 587.086 190.508L589.118 196.885C589.243 197.282 589.067 197.711 588.698 197.905C580.215 202.339 559.67 213.444 552.157 220.814C548.578 224.329 546.74 228.434 546.846 232.682C546.943 236.626 548.753 240.583 551.944 243.83C555.034 246.974 559.162 248.706 563.568 248.706C564.851 248.706 566.13 248.554 567.373 248.258C570.231 247.575 572.854 246.12 574.964 244.051L601.992 213.763C602.071 213.675 602.173 213.601 602.279 213.551C605.308 212.188 606.864 208.877 605.899 205.848L599.591 186.056C598.815 183.622 596.543 181.988 593.939 181.988L593.948 181.983Z" fill="#001081"/>
<path d="M283.224 423.556H289.245V340.532H283.224V423.556Z" fill="#001081"/>
<path d="M266.531 340.527H466.279V212.479H301.243L266.531 340.527Z" fill="white"/>
<path d="M466.279 341.386H266.53C266.263 341.386 266.013 341.261 265.847 341.049C265.685 340.836 265.63 340.559 265.699 340.301L300.411 212.248C300.513 211.874 300.85 211.616 301.238 211.616H466.275C466.75 211.616 467.134 211.999 467.134 212.475V340.527C467.134 341.003 466.75 341.386 466.275 341.386H466.279ZM267.653 339.668H465.42V213.334H301.898L267.653 339.668Z" fill="#001081"/>
<path d="M308.026 323.256H429.955L430.098 322.661L456.42 213.347L454.896 212.983L428.722 321.691H308.026V323.256Z" fill="#001081"/>
<path d="M289.786 264.647C296.722 270.673 307.227 269.93 313.253 262.998L335.197 237.896L337.104 235.716L356.19 213.888C362.216 206.952 361.473 196.446 354.541 190.42C351.392 187.682 347.504 186.338 343.634 186.338C339.764 186.338 335.987 187.654 332.925 190.249C332.265 190.794 331.651 191.404 331.069 192.068L320.305 204.375L288.132 241.179C282.106 248.115 282.85 258.621 289.79 264.647H289.786Z" fill="#1FED93"/>
<path d="M300.684 269.583C296.472 269.583 292.404 268.059 289.222 265.298C285.694 262.232 283.565 257.979 283.238 253.319C282.91 248.66 284.415 244.148 287.477 240.62L330.418 191.505C331.037 190.794 331.692 190.147 332.371 189.589C335.493 186.943 339.497 185.479 343.629 185.479C347.762 185.479 351.914 187.003 355.1 189.769C358.628 192.835 360.752 197.088 361.08 201.747C361.408 206.407 359.903 210.918 356.836 214.442L313.9 263.557C310.58 267.381 305.759 269.574 300.688 269.574L300.684 269.583ZM343.629 187.197C339.903 187.197 336.296 188.513 333.475 190.905C332.861 191.408 332.274 191.99 331.715 192.632L288.774 241.747C286.013 244.924 284.655 248.992 284.951 253.195C285.246 257.397 287.163 261.234 290.349 264C293.217 266.494 296.888 267.866 300.684 267.866C305.26 267.866 309.601 265.884 312.602 262.435L355.544 213.32C358.305 210.143 359.663 206.074 359.367 201.872C359.072 197.67 357.155 193.832 353.978 191.071C351.101 188.573 347.43 187.197 343.634 187.197H343.629Z" fill="#001081"/>
<path d="M310.635 238.358C310.635 238.358 310.584 238.321 310.561 238.302L266.525 208.416L264.193 206.633L263.062 205.765L261.755 204.768C261.755 204.768 254.921 199.549 253.905 198.764L250.28 195.998C242.19 189.653 238.38 191.745 238.094 193.532L234.265 217.522C233.942 219.531 235.411 221.41 237.498 221.539C238.976 221.632 240.287 220.727 240.878 219.411C241.012 219.115 241.109 218.801 241.164 218.464C241.298 217.614 242.296 217.213 242.979 217.739L253.083 225.455L253.342 225.654C253.342 225.654 254.967 227.556 257.576 230.54C265.505 239.627 282.512 258.731 290.363 264.725C298.924 271.264 308.104 268.914 313.683 261.608C314.477 260.574 315.133 259.466 315.645 258.33C318.735 251.468 316.841 243.142 310.64 238.344L310.635 238.358Z" fill="white"/>
<path d="M300.758 269.431C297.045 269.431 293.272 268.046 289.836 265.423C281.783 259.272 264.138 239.383 256.925 231.117C255.512 229.501 253.309 226.961 252.751 226.296L242.453 218.427C242.314 218.321 242.051 218.325 242.005 218.603C241.94 219 241.825 219.392 241.654 219.766C240.929 221.369 239.377 222.403 237.701 222.403L237.438 222.394C236.21 222.32 235.069 221.729 234.307 220.773C233.545 219.822 233.217 218.584 233.411 217.379L237.239 193.389C237.442 192.124 238.717 190.849 241.114 190.849C242.938 190.849 246.096 191.625 250.802 195.315L254.418 198.076C255.438 198.866 262.268 204.079 262.268 204.079L267.038 207.728L311.037 237.582C317.585 242.643 319.751 251.288 316.417 258.685C315.867 259.904 315.17 261.068 314.352 262.135C310.764 266.831 305.934 269.422 300.748 269.422L300.758 269.431ZM242.287 216.654C242.725 216.654 243.145 216.797 243.496 217.065L253.859 224.984C253.905 225.021 253.951 225.067 253.993 225.114C254.044 225.174 255.655 227.058 258.213 229.99C265.394 238.219 282.947 258.002 290.875 264.06C294.052 266.485 297.377 267.718 300.753 267.718C305.389 267.718 309.735 265.372 312.995 261.105C313.734 260.14 314.362 259.096 314.856 257.993C317.862 251.32 315.909 243.525 310.109 239.036L266.045 209.127L261.234 205.451C261.234 205.451 254.394 200.233 253.379 199.443L249.758 196.682C245.427 193.288 242.67 192.576 241.118 192.576C239.65 192.576 239.008 193.232 238.939 193.671L235.11 217.66C234.995 218.385 235.189 219.134 235.651 219.711C236.117 220.293 236.791 220.644 237.549 220.69H237.563C238.717 220.69 239.65 220.053 240.093 219.069C240.199 218.833 240.273 218.589 240.31 218.339C240.467 217.365 241.298 216.658 242.287 216.658V216.654Z" fill="#001081"/>
<path d="M196.335 351.702L250.784 386.908L261.589 370.197L226.152 347.287C226.152 347.287 215.517 350.497 207.907 347.343C201.003 344.48 196.33 351.707 196.33 351.707L196.335 351.702Z" fill="#001081"/>
<path d="M291.06 423.551H355.899L353.932 403.653H311.734C311.734 403.653 305.38 412.122 297.428 413.604C290.21 414.948 291.06 423.556 291.06 423.556V423.551Z" fill="#001081"/>
<path d="M335.807 187.968C331.771 179.342 327.661 151.436 337.044 149.806C344.618 148.49 359.921 151.759 370.071 160.404C378.993 168 370.727 185.137 400.655 186.462C430.579 187.788 441.444 225.936 399.584 231.5C368.155 235.679 346.52 210.877 335.807 187.968Z" fill="#001081"/>
<path d="M371.849 213.237L400.433 236.764L412.149 246.406L422.216 254.691C429.286 260.551 439.777 259.572 445.642 252.497C451.502 245.418 450.518 234.936 443.448 229.071L410.934 202.311L397.159 190.969L393.077 187.612C391.452 186.259 389.642 185.276 387.753 184.643C387.739 184.638 387.721 184.629 387.707 184.629C386.007 184.057 384.234 183.779 382.479 183.779C382.41 183.779 382.345 183.779 382.276 183.784C377.561 183.84 372.902 185.881 369.656 189.801C363.796 196.871 364.779 207.358 371.849 213.227V213.237Z" fill="#1FED93"/>
<path d="M432.823 259.378C428.759 259.378 424.797 257.946 421.671 255.351L371.304 213.897C363.879 207.732 362.844 196.682 368.995 189.261C372.278 185.299 377.113 182.99 382.262 182.934C382.281 182.93 382.378 182.925 382.475 182.925C384.354 182.925 386.201 183.225 387.961 183.812C388.03 183.83 388.099 183.858 388.155 183.886C390.08 184.518 391.964 185.567 393.627 186.952L443.989 228.406C451.414 234.562 452.449 245.612 446.298 253.042C442.964 257.069 438.05 259.373 432.818 259.373L432.823 259.378ZM382.475 184.643C382.447 184.643 382.308 184.652 382.281 184.652C377.635 184.708 373.271 186.786 370.316 190.36C364.765 197.051 365.698 207.016 372.394 212.576L422.76 254.03C425.587 256.372 429.161 257.665 432.823 257.665C437.542 257.665 441.975 255.582 444.981 251.952C450.532 245.252 449.595 235.287 442.903 229.736L392.537 188.282C391.036 187.035 389.341 186.088 387.494 185.47C387.476 185.465 387.453 185.46 387.434 185.451C385.846 184.915 384.179 184.648 382.479 184.648L382.475 184.643Z" fill="#001081"/>
<path d="M328.386 207.801L333.489 230.341L335.193 237.891L343.089 272.788H418.309L412.149 246.402L406.381 221.701L401.057 198.903C400.36 195.915 398.997 193.223 397.159 190.969C394.726 187.996 391.461 185.779 387.753 184.648C387.739 184.643 387.721 184.634 387.707 184.634C385.975 184.103 384.146 183.812 382.272 183.793C382.184 183.789 382.096 183.789 382.008 183.789H347.444C341.598 183.789 336.453 186.315 332.916 190.254C328.816 194.802 326.853 201.23 328.386 207.801Z" fill="#1FED93"/>
<path d="M418.309 273.652H343.089C342.687 273.652 342.341 273.375 342.253 272.982L327.55 207.991C326.031 201.493 327.8 194.645 332.279 189.676C336.13 185.386 341.658 182.925 347.444 182.925H382.008C382.119 182.925 382.23 182.925 382.345 182.934C384.211 182.953 386.118 183.248 387.961 183.812C388.035 183.83 388.104 183.858 388.159 183.886C391.867 185.003 395.266 187.284 397.829 190.425C399.81 192.853 401.182 195.638 401.897 198.704L419.149 272.594C419.21 272.848 419.149 273.116 418.988 273.324C418.826 273.527 418.577 273.647 418.314 273.647L418.309 273.652ZM343.777 271.934H417.228L400.226 199.101C399.57 196.294 398.314 193.74 396.499 191.514C394.149 188.642 391.041 186.55 387.508 185.47C387.508 185.47 387.476 185.46 387.462 185.456C385.776 184.939 384.031 184.671 382.272 184.652L382.018 184.643H347.453C342.078 184.643 337.146 186.836 333.563 190.822C329.457 195.375 327.841 201.646 329.231 207.603L343.786 271.929L343.777 271.934Z" fill="#001081"/>
<path d="M354.814 192.752L366.603 183.812L360.06 161.923L346.927 164.805L354.814 192.752Z" fill="white"/>
<path d="M342.965 184.301C342.965 184.301 339.377 269.168 365.832 276.15C392.288 283.132 379.256 183.784 379.256 183.784H347.449C345.902 183.784 344.401 183.96 342.965 184.301Z" fill="#001081"/>
<path d="M342.965 184.301C342.965 184.301 345.749 203.461 360.263 202.209C374.786 200.967 379.251 183.784 379.251 183.784H347.444C345.897 183.784 344.396 183.96 342.96 184.301H342.965Z" fill="white"/>
<path d="M342.992 163.632V163.761C342.992 164.371 343.061 164.999 343.195 165.622C344.133 169.88 348.053 172.706 352.274 172.378C352.676 172.35 353.078 172.29 353.475 172.203C353.955 172.092 354.426 171.953 354.869 171.768C358.707 170.221 360.974 166.089 360.06 161.919C359.182 157.933 355.687 155.195 351.775 155.135C351.115 155.13 350.45 155.19 349.78 155.338C345.786 156.216 343.057 159.721 342.997 163.632H342.992Z" fill="white"/>
<path d="M342.965 174.156C342.965 174.313 342.969 174.47 342.983 174.622C343.242 176.959 345.638 178.751 347.993 178.233L354.634 176.774L354.865 171.769L355.266 163.013L353.535 163.101L342.988 163.632V163.761L342.96 174.151L342.965 174.156Z" fill="white"/>
<path d="M343.094 162.08C343.094 162.08 348.658 167.201 355.691 168.162C358.697 168.573 361.159 168.91 362.124 168.818L360.06 161.923C359.035 157.264 354.435 154.313 349.776 155.338C346.331 156.096 343.763 158.829 343.094 162.08Z" fill="#001081"/>
<path d="M350.556 177.67L355.691 176.543L351.374 180.556L350.556 177.67Z" fill="#001081"/>
<path d="M354.001 167.525C354.338 169.053 355.848 170.018 357.372 169.681C358.896 169.344 359.866 167.834 359.529 166.31C359.192 164.782 357.682 163.817 356.158 164.154C354.629 164.491 353.664 166.001 354.001 167.525Z" fill="white"/>
<path d="M345.006 171.847H346.446V171.334H345.518V169.122H345.006V171.847Z" fill="#001081"/>
<path d="M347.74 174.599C349.365 174.599 350.45 173.122 350.496 173.062L350.081 172.761C350.081 172.761 349.097 174.087 347.74 174.087V174.599Z" fill="#001081"/>
<path d="M448.56 237.937C448.177 236.691 447.655 235.518 447.023 234.437C443.218 227.944 435.33 224.67 427.826 226.952C427.799 226.961 427.766 226.97 427.739 226.979L377.88 245.598L375.077 246.471L373.715 246.891L372.145 247.381C372.145 247.381 363.934 249.935 362.706 250.309L358.351 251.666C348.497 254.594 347.993 258.912 349.286 260.177L366.636 277.184C368.086 278.611 370.473 278.5 371.784 276.875C372.717 275.725 372.736 274.132 372.006 272.89C371.84 272.608 371.641 272.349 371.401 272.109C370.787 271.509 371.036 270.465 371.863 270.211L384.003 266.439L384.317 266.342C384.317 266.342 386.811 266.115 390.755 265.718C402.752 264.508 428.177 261.696 437.607 258.764C447.896 255.568 451.29 246.721 448.56 237.942V237.937Z" fill="#1FED93"/>
<path d="M369.074 279.036C367.933 279.036 366.853 278.593 366.04 277.794L348.695 260.786C348.003 260.108 347.753 259.027 348.035 257.9C348.441 256.261 350.288 253.167 358.116 250.84L362.456 249.487C363.689 249.113 371.895 246.559 371.895 246.559L377.631 244.781L427.438 226.176C429.239 225.626 430.953 225.372 432.675 225.372C438.858 225.372 444.64 228.679 447.762 234.003C448.44 235.157 448.985 236.395 449.382 237.683C450.823 242.315 450.592 246.979 448.74 250.812C446.736 254.959 442.973 257.988 437.866 259.577C428.196 262.583 401.759 265.464 390.842 266.563C387.328 266.919 384.968 267.136 384.488 267.177L372.117 271.019C371.983 271.061 371.941 271.163 371.928 271.218C371.914 271.278 371.904 271.389 372.006 271.486C372.292 271.768 372.546 272.091 372.75 272.442C373.696 274.063 373.581 276.007 372.454 277.401C371.623 278.431 370.39 279.027 369.069 279.027L369.074 279.036ZM432.68 227.09C431.128 227.09 429.576 227.321 428.08 227.778L378.189 246.406L372.408 248.203C372.408 248.203 364.193 250.756 362.964 251.131L358.614 252.484C351.133 254.705 349.9 257.508 349.702 258.311C349.545 258.939 349.702 259.364 349.896 259.558L367.245 276.565C367.739 277.05 368.386 277.314 369.078 277.314C369.873 277.314 370.621 276.953 371.124 276.33C371.798 275.494 371.858 274.312 371.272 273.315C371.142 273.093 370.985 272.89 370.805 272.714C370.297 272.216 370.094 271.509 370.265 270.821C370.431 270.133 370.935 269.597 371.614 269.385L384.068 265.515C384.123 265.497 384.276 265.478 384.336 265.473C384.816 265.427 387.171 265.215 390.671 264.859C401.537 263.765 427.84 260.897 437.358 257.942C442.003 256.496 445.406 253.777 447.198 250.068C448.865 246.628 449.059 242.407 447.748 238.196C447.392 237.037 446.898 235.919 446.288 234.876C443.472 230.073 438.263 227.09 432.684 227.09H432.68Z" fill="#001081"/>
<path d="M396.005 322.467H344.835L353.932 403.653H311.725L304.267 382.863L289.102 340.573L280.8 317.452C273.291 296.533 287.892 273.79 310.09 272.816C310.585 272.797 311.065 272.783 311.577 272.783C311.873 272.783 312.173 272.816 312.469 272.834V272.783H418.314L422.992 286.115C428.335 304.323 414.989 322.467 396 322.467H396.005Z" fill="white"/>
<path d="M353.932 404.272H311.725C311.462 404.272 311.231 404.105 311.143 403.861L280.218 317.664C276.496 307.297 277.895 296.094 284.05 286.923C290.021 278.029 299.502 272.663 310.063 272.202C310.783 272.179 311.485 272.146 312.214 272.202H312.279C312.339 272.183 312.404 272.169 312.468 272.169H418.314C418.577 272.169 418.812 272.336 418.9 272.585L423.578 285.917C426.21 294.889 424.548 304.245 419.025 311.624C413.567 318.916 405.176 323.095 396.005 323.095H345.527L354.546 403.593C354.565 403.768 354.509 403.944 354.394 404.078C354.278 404.211 354.107 404.285 353.932 404.285V404.272ZM312.164 403.029H353.239L344.221 322.531C344.202 322.356 344.258 322.18 344.373 322.046C344.493 321.917 344.659 321.839 344.835 321.839H396.005C404.783 321.839 412.809 317.84 418.032 310.867C423.319 303.806 424.913 294.847 422.401 286.286L417.875 273.402H312.681C312.602 273.435 312.519 273.448 312.436 273.448L312.122 273.425C311.439 273.375 310.774 273.407 310.109 273.43C299.95 273.878 290.825 279.045 285.076 287.607C279.142 296.445 277.793 307.246 281.381 317.239L312.159 403.025L312.164 403.029Z" fill="#001081"/>
<path d="M423.13 286.48L418.314 272.788L322.235 243.857L322.212 243.848L322.166 243.825C314.293 240.533 305.413 240.533 297.525 243.543C290.58 246.171 284.392 251.149 280.31 258.214L226.166 347.274L261.589 370.197C261.589 370.197 274.441 356.551 289.107 340.578L280.804 317.456C274.348 299.47 284.244 280.149 301.257 274.46L328.363 296.053L361.519 322.476H397.649C401.768 322.476 405.615 321.576 409.041 319.987C421.112 314.376 427.961 300.167 423.135 286.48H423.13Z" fill="white"/>
<path d="M261.585 370.815C261.469 370.815 261.349 370.783 261.248 370.714L225.824 347.791C225.543 347.606 225.455 347.237 225.63 346.946L279.779 257.886C283.736 251.043 289.961 245.742 297.304 242.957C305.422 239.858 314.537 239.96 322.406 243.243L418.494 272.183C418.683 272.239 418.836 272.386 418.9 272.571L423.717 286.263C428.482 299.765 422.28 314.501 409.3 320.536C405.656 322.227 401.736 323.085 397.649 323.085H361.519C361.381 323.085 361.242 323.039 361.131 322.952L301.132 275.148C293.212 277.895 286.53 283.894 282.767 291.652C278.851 299.719 278.361 308.807 281.386 317.239L289.689 340.361C289.767 340.578 289.717 340.823 289.564 340.989C275.06 356.786 262.167 370.478 262.042 370.617C261.922 370.746 261.756 370.811 261.589 370.811L261.585 370.815ZM227.002 347.08L261.488 369.393C263.644 367.098 275.337 354.648 288.396 340.43L280.222 317.664C277.082 308.913 277.59 299.488 281.654 291.116C285.616 282.957 292.686 276.672 301.063 273.873C301.261 273.809 301.483 273.846 301.644 273.975L361.741 321.853H397.654C401.56 321.853 405.305 321.035 408.783 319.419C421.181 313.656 427.102 299.581 422.553 286.683L417.838 273.287L322.06 244.449C322.023 244.439 321.921 244.393 321.889 244.375C314.399 241.248 305.574 241.138 297.752 244.121C290.672 246.799 284.674 251.916 280.85 258.519L227.011 347.075L227.002 347.08Z" fill="#001081"/>
<path d="M361.03 323.085L363.098 322.795L299.091 271.74L298.116 272.964L361.03 323.085Z" fill="#001081"/>
<path d="M389.24 322.471H387.674V340.527H389.24V322.471Z" fill="#001081"/>
<path d="M460.262 423.556H466.284V340.532H460.262V423.556Z" fill="#001081"/>
<path d="M388.459 423.556H394.481V340.532H388.459V423.556Z" fill="#001081"/>
<path d="M167.87 346.96H162.306V423.694H167.87V346.96Z" fill="#001081"/>
<path d="M183.299 346.96H15.1726V228.609H151.218L183.299 346.96Z" fill="url(#paint3_linear_7_1020)"/>
<path d="M183.299 347.814H15.1726C14.697 347.814 14.3137 347.431 14.3137 346.955V228.605C14.3137 228.129 14.697 227.746 15.1726 227.746H151.218C151.606 227.746 151.943 228.004 152.045 228.378L184.125 346.729C184.194 346.987 184.139 347.264 183.977 347.477C183.816 347.689 183.562 347.814 183.294 347.814H183.299ZM16.0269 346.096H182.176L150.558 229.464H16.0269V346.096Z" fill="#001081"/>
<path d="M48.7443 330.996H161.433V329.55H49.8803L25.6921 229.076L24.2837 229.413L48.7443 330.996Z" fill="#001081"/>
<path d="M257.572 405.158C257.572 405.158 266.683 413.045 274.602 414.426C281.788 415.678 284.295 423.694 284.295 423.694H226.54L214.806 405.158H257.576H257.572Z" fill="white"/>
<path d="M284.295 424.553H226.54C226.244 424.553 225.972 424.401 225.815 424.156L214.081 405.62C213.915 405.357 213.906 405.02 214.053 404.747C214.206 404.475 214.492 404.304 214.806 404.304H257.576C257.784 404.304 257.983 404.378 258.14 404.512C258.227 404.59 267.168 412.26 274.755 413.581C282.369 414.906 285.011 423.089 285.117 423.44C285.2 423.699 285.149 423.985 284.988 424.207C284.826 424.428 284.568 424.558 284.295 424.558V424.553ZM227.011 422.835H283.03C282.069 420.693 279.469 416.144 274.454 415.271C267.034 413.978 258.805 407.319 257.258 406.017H216.362L227.011 422.835Z" fill="#001081"/>
<path d="M190.775 284.527H128.153L214.802 405.154H257.466L214.432 300.384C210.493 290.788 201.147 284.527 190.77 284.527H190.775Z" fill="white"/>
<path d="M257.47 406.017H214.806C214.529 406.017 214.27 405.883 214.109 405.662L127.46 285.035C127.27 284.771 127.247 284.43 127.391 284.143C127.534 283.857 127.834 283.677 128.152 283.677H190.775C201.539 283.677 211.139 290.11 215.226 300.07L258.26 404.84C258.371 405.103 258.338 405.408 258.181 405.643C258.024 405.879 257.752 406.022 257.47 406.022V406.017ZM215.245 404.299H256.191L213.642 300.717C209.819 291.407 200.842 285.39 190.775 285.39H129.829L215.245 404.304V404.299Z" fill="#001081"/>
<path d="M177.115 423.694H117.189L119.009 405.301H158.011C158.011 405.301 163.885 413.129 171.232 414.495C177.905 415.738 177.115 423.694 177.115 423.694Z" fill="white"/>
<path d="M177.115 424.553H117.19C116.949 424.553 116.719 424.451 116.552 424.271C116.391 424.091 116.312 423.851 116.335 423.611L118.155 405.218C118.196 404.779 118.566 404.442 119.009 404.442H158.011C158.279 404.442 158.533 404.567 158.699 404.784C158.755 404.858 164.467 412.362 171.394 413.65C177.281 414.749 178.274 420.753 177.974 423.777C177.932 424.216 177.563 424.553 177.12 424.553H177.115ZM118.136 422.835H176.293C176.293 420.942 175.799 416.218 171.075 415.34C164.291 414.075 158.852 407.735 157.591 406.16H119.785L118.136 422.835Z" fill="#001081"/>
<path d="M159.526 284.383C159.073 284.36 158.621 284.351 158.159 284.351C157.877 284.351 157.6 284.383 157.319 284.393V284.356H56.2067L55.1677 296.667C54.0733 316.477 62.5701 330.275 80.1132 330.275H127.409L119.005 405.301H158.011L164.906 386.091L186.605 325.644C193.536 306.309 180.052 285.279 159.531 284.388L159.526 284.383Z" fill="white"/>
<path d="M158.011 406.156H119.005C118.76 406.156 118.529 406.049 118.367 405.869C118.206 405.685 118.127 405.444 118.155 405.2L126.453 331.125H80.1179C72.6324 331.125 66.5599 328.724 62.0806 323.986C56.3453 317.927 53.6623 308.461 54.3181 296.611L55.3571 284.277C55.394 283.834 55.7634 283.492 56.2114 283.492H157.323C157.397 283.492 157.466 283.501 157.531 283.52H157.633C158.279 283.474 158.93 283.492 159.577 283.525C169.417 283.949 178.261 288.951 183.83 297.24C189.579 305.796 190.886 316.251 187.413 325.925L158.82 405.583C158.695 405.925 158.372 406.151 158.011 406.151V406.156ZM119.965 404.438H157.406L185.792 325.348C189.076 316.191 187.838 306.3 182.398 298.2C177.138 290.368 168.785 285.644 159.489 285.238C158.903 285.205 158.316 285.182 157.744 285.224C157.61 285.233 157.476 285.242 157.342 285.247C157.254 285.252 157.157 285.238 157.069 285.21H57.001L56.0313 296.732C55.4032 308.073 57.9292 317.096 63.3274 322.808C67.4743 327.191 73.1218 329.412 80.1179 329.412H127.414C127.658 329.412 127.889 329.518 128.051 329.698C128.213 329.883 128.291 330.123 128.263 330.368L119.965 404.442V404.438Z" fill="#001081"/>
<path d="M87.8204 330.271H86.375V346.96H87.8204V330.271Z" fill="#001081"/>
<path d="M20.7371 346.96H15.1726V423.694H20.7371V346.96Z" fill="#001081"/>
<path d="M87.0953 346.96H81.5308V423.694H87.0953V346.96Z" fill="#001081"/>
<path d="M184.679 241.114L165.46 224.282L135.546 198.095C133.588 194.654 130.872 191.704 127.617 189.482C123.489 186.67 118.497 185.031 113.131 185.031H82.0574C79.0558 185.031 76.1789 185.543 73.5098 186.481C70.1619 186.619 66.8232 187.718 63.9232 189.843L57.0888 194.816L28.9986 215.231L8.33839 230.253C0.520406 235.975 -1.16972 246.942 4.54716 254.746C10.2686 262.555 21.236 264.254 29.0401 258.537L51.2611 242.384L56.2807 238.732V284.346H138.917V247.625L140.842 249.311L161.507 267.399C168.771 273.799 179.849 273.102 186.245 265.838C192.645 258.584 191.948 247.505 184.684 241.105L184.679 241.114Z" fill="#001081"/>
<path d="M138.907 285.21H56.2713C55.7957 285.21 55.4124 284.827 55.4124 284.351V240.422L29.5341 259.235C26.3663 261.553 22.6166 262.781 18.696 262.781C12.8499 262.781 7.29464 259.969 3.8405 255.254C-2.1442 247.076 -0.36173 235.55 7.81644 229.561L63.4059 189.155C66.3105 187.026 69.7415 185.811 73.3342 185.631C76.128 184.661 79.0557 184.172 82.048 184.172H113.121C118.492 184.172 123.669 185.76 128.088 188.771C131.394 191.025 134.202 194.054 136.211 197.541L185.233 240.463C188.918 243.714 191.121 248.198 191.431 253.102C191.74 258.002 190.124 262.73 186.877 266.411C183.391 270.368 178.362 272.64 173.079 272.64C168.605 272.64 164.287 271.01 160.93 268.05L139.762 249.519V284.351C139.762 284.827 139.378 285.21 138.903 285.21H138.907ZM57.1302 283.492H138.048V247.626C138.048 247.288 138.247 246.984 138.552 246.845C138.857 246.707 139.217 246.757 139.471 246.979L162.061 266.757C165.109 269.445 169.025 270.922 173.079 270.922C177.868 270.922 182.426 268.863 185.589 265.275C188.535 261.936 189.999 257.651 189.717 253.208C189.436 248.766 187.441 244.698 184.102 241.752L134.973 198.737C134.899 198.672 134.839 198.598 134.793 198.515C132.909 195.199 130.254 192.322 127.123 190.189C122.985 187.372 118.146 185.885 113.121 185.885H82.048C79.2081 185.885 76.4281 186.356 73.7821 187.289C73.7036 187.317 73.6205 187.335 73.5328 187.335C70.2356 187.474 67.0817 188.577 64.4172 190.535L8.82775 230.946C1.41614 236.372 -0.204717 246.822 5.22585 254.238C8.35674 258.51 13.3902 261.059 18.696 261.059C22.2472 261.059 25.6459 259.946 28.5228 257.84L55.7634 238.034C56.022 237.845 56.3683 237.817 56.6592 237.965C56.9455 238.113 57.1302 238.408 57.1302 238.732V283.492Z" fill="#001081"/>
<path d="M260.389 234.622C259.479 234.631 258.671 235.18 258.292 236.007C258.034 236.575 257.71 237.092 257.364 237.591L243.164 240.846C242.942 240.339 242.97 239.72 243.372 239.212C243.884 238.561 244.66 238.177 245.491 238.168L248.368 238.136C249.795 238.117 251.061 237.06 251.181 235.638C251.319 234.003 250.022 232.645 248.424 232.664L244.369 232.71C242.559 232.733 240.855 233.569 239.733 234.991L234.247 241.95L227.874 242.024L187.718 238.482L184.675 238.21C184.642 238.2 184.619 238.2 184.592 238.2L183.843 238.136C183.811 238.127 183.783 238.136 183.779 238.127C183.756 238.136 183.747 238.127 183.747 238.127L180.994 237.882L165.46 224.282L140.838 249.316L161.502 267.404C164.084 269.68 167.15 271.038 170.318 271.546C172.29 272.202 174.497 272.566 176.963 272.539C188.415 272.405 214.995 267.26 223.774 265.496C225.598 265.132 226.651 264.91 226.651 264.91L245.371 264.693C248.488 264.656 251.296 262.818 252.575 259.978L262.527 237.891C263.224 236.349 262.079 234.603 260.389 234.622Z" fill="white"/>
<path d="M176.7 273.398C174.358 273.398 172.119 273.047 170.045 272.363C166.734 271.846 163.534 270.345 160.934 268.05L140.274 249.962C140.099 249.805 139.993 249.583 139.983 249.348C139.974 249.112 140.062 248.882 140.228 248.715L164.85 223.682C165.169 223.359 165.686 223.336 166.028 223.636L181.35 237.055L183.783 237.272C183.834 237.272 183.88 237.277 183.931 237.286C183.982 237.291 184.033 237.3 184.07 237.309L184.67 237.351C184.712 237.351 184.841 237.369 184.882 237.379L227.953 241.17L233.831 241.096L239.063 234.46C240.352 232.825 242.282 231.874 244.36 231.851L248.415 231.805C249.458 231.805 250.423 232.23 251.102 232.964C251.79 233.712 252.123 234.686 252.035 235.707C251.947 236.75 251.384 237.674 250.557 238.27L256.847 236.829C257.128 236.409 257.341 236.03 257.512 235.651C258.024 234.515 259.151 233.777 260.379 233.763C261.497 233.763 262.494 234.308 263.081 235.213C263.667 236.122 263.755 237.254 263.307 238.242L253.356 260.329C251.943 263.46 248.812 265.51 245.376 265.552L226.743 265.769C226.471 265.824 225.478 266.032 223.931 266.342C215.863 267.962 188.623 273.264 176.958 273.398H176.69H176.7ZM142.089 249.269L162.066 266.762C164.425 268.84 167.326 270.202 170.452 270.701C172.484 271.361 174.543 271.684 176.7 271.684H176.949C188.461 271.55 215.568 266.272 223.603 264.661C224.947 264.393 225.875 264.199 226.263 264.12C226.378 264.056 226.498 264.042 226.651 264.019C226.738 264.019 226.817 264.028 226.895 264.051L245.362 263.839C248.133 263.806 250.654 262.153 251.795 259.627L261.746 237.54C261.954 237.078 261.917 236.575 261.64 236.15C261.368 235.725 260.92 235.485 260.416 235.485C259.834 235.49 259.313 235.836 259.077 236.367C258.823 236.921 258.505 237.471 258.066 238.09C257.946 238.26 257.761 238.385 257.558 238.431L243.358 241.687C242.952 241.779 242.541 241.571 242.379 241.188C242.014 240.339 242.134 239.401 242.702 238.681C243.377 237.822 244.392 237.323 245.482 237.314L248.359 237.282C249.384 237.268 250.248 236.515 250.326 235.568C250.373 235.033 250.197 234.525 249.837 234.132C249.481 233.749 248.978 233.527 248.456 233.527L244.379 233.573C242.822 233.592 241.372 234.303 240.407 235.527L234.921 242.486C234.76 242.689 234.515 242.809 234.256 242.814L227.884 242.888L183.765 238.999C183.714 238.999 183.663 238.995 183.613 238.985L180.911 238.745C180.731 238.732 180.56 238.658 180.422 238.538L165.497 225.469L142.08 249.279L142.089 249.269ZM247.352 239.009L245.501 239.032C244.933 239.036 244.402 239.3 244.046 239.747C244.041 239.757 244.032 239.766 244.028 239.775L247.348 239.013L247.352 239.009Z" fill="#001081"/>
<path d="M98.0395 173.99C102.982 173.99 106.989 169.983 106.989 165.04C106.989 160.098 102.982 156.091 98.0395 156.091C93.0969 156.091 89.0901 160.098 89.0901 165.04C89.0901 169.983 93.0969 173.99 98.0395 173.99Z" fill="#001081"/>
<path d="M114.747 164.385C119.69 164.385 123.696 160.378 123.696 155.435C123.696 150.493 119.69 146.486 114.747 146.486C109.804 146.486 105.798 150.493 105.798 155.435C105.798 160.378 109.804 164.385 114.747 164.385Z" fill="#001081"/>
<path d="M118.986 159.508H118.977C118.898 154.521 115.43 150.06 110.351 148.943C104.417 147.64 98.5522 151.395 97.25 157.324L88.9102 185.211L103.927 196.599L109.349 177.388L112.613 178.104C115.814 178.806 119.074 176.165 119.028 172.904L118.986 159.508Z" fill="white"/>
<path d="M103.927 197.457C103.743 197.457 103.558 197.397 103.41 197.282L88.3929 185.894C88.1066 185.677 87.9865 185.308 88.0881 184.966L96.4279 157.079C97.5962 151.746 102.463 147.825 107.982 147.825C108.836 147.825 109.695 147.917 110.535 148.102C115.883 149.275 119.693 153.893 119.836 159.356C119.845 159.402 119.85 159.453 119.85 159.503L119.891 172.9C119.914 174.465 119.286 175.985 118.122 177.167C116.926 178.377 115.306 179.074 113.675 179.074C113.26 179.074 112.844 179.028 112.438 178.94L109.963 178.395L104.758 196.825C104.68 197.097 104.472 197.314 104.204 197.407C104.117 197.434 104.024 197.453 103.932 197.453L103.927 197.457ZM89.9029 184.888L103.442 195.158L108.522 177.157C108.647 176.719 109.085 176.456 109.533 176.553L112.798 177.268C114.225 177.582 115.804 177.074 116.894 175.966C117.735 175.116 118.187 174.036 118.169 172.918L118.127 159.642C118.122 159.6 118.118 159.564 118.118 159.522C118.044 154.803 114.775 150.794 110.166 149.783C109.446 149.626 108.711 149.543 107.982 149.543C103.262 149.543 99.1016 152.895 98.0903 157.509L89.9075 184.883L89.9029 184.888Z" fill="#001081"/>
<path d="M118.778 157.532H110.425C106.975 157.481 106.749 162.884 102.45 164.763C98.9077 166.31 95.8507 166.236 94.6223 166.116L97.2499 157.333C98.5521 151.399 104.417 147.64 110.351 148.947C114.738 149.908 117.887 153.099 118.778 157.536V157.532Z" fill="#001081"/>
<path d="M106.416 164.463C105.992 166.407 104.066 167.64 102.122 167.211C100.178 166.786 98.9447 164.86 99.3742 162.916C99.799 160.972 101.725 159.739 103.669 160.168C105.613 160.593 106.846 162.519 106.416 164.463Z" fill="white"/>
<path d="M104.832 159.688L103.35 175.218C103.35 175.218 105.71 179.508 109.963 180.861C114.216 182.214 120.394 180.838 121.166 179.259C121.937 177.679 119.023 169.012 119.023 169.012C119.023 169.012 115.042 168.836 113.44 169.413C111.833 169.995 111.187 171.676 111.187 171.676C111.187 171.676 108.439 171.487 107.986 168.203C107.534 164.92 107.792 158.058 107.792 158.058L104.828 159.688H104.832Z" fill="#001081"/>
<path d="M118.607 168.762H116.968V168.18H118.025V166.172H118.607V168.762Z" fill="#001081"/>
<path d="M116.968 172.978C115.121 172.978 113.879 171.297 113.828 171.228L114.299 170.886C114.299 170.886 115.421 172.396 116.968 172.396V172.978Z" fill="white"/>
<path d="M71.8089 226.561L50.8232 241.813L51.6703 242.979L72.6559 227.726L71.8089 226.561Z" fill="#001081"/>
<path d="M85.5945 264.25L81.7664 262.49C80.6858 262.001 73.4589 258.69 73.4589 258.69L72.0781 258.057L70.8821 257.512L68.4162 256.381L47.3312 245.243L51.2564 242.389L28.9984 215.231L8.33365 230.258C0.520286 235.975 -1.17447 246.942 4.5424 254.746C4.59782 254.82 4.66247 254.885 4.71788 254.963C6.21406 257.545 8.64304 259.775 12.111 261.368C20.4093 265.173 43.3784 270.765 54.2349 273.296C57.8044 274.132 60.0579 274.631 60.0579 274.631L60.335 274.755L71.0161 279.65C71.7411 279.983 71.8473 280.966 71.2146 281.446C70.9653 281.636 70.7528 281.848 70.5681 282.088C69.7554 283.141 69.5799 284.605 70.3003 285.769C71.3116 287.417 73.4866 287.796 74.9828 286.665L92.8999 273.13C94.2345 272.123 94.2899 268.106 85.5992 264.254L85.5945 264.25Z" fill="white"/>
<path d="M73.0432 288.17C71.6163 288.17 70.3141 287.44 69.5614 286.217C68.6932 284.804 68.8225 282.933 69.8846 281.562C70.1201 281.257 70.3926 280.989 70.6928 280.763C70.762 280.708 70.7713 280.638 70.7666 280.588C70.7574 280.514 70.7205 280.463 70.6558 280.435L59.7485 275.434C58.6818 275.217 55.2092 274.404 54.0362 274.132C44.1587 271.828 20.2615 266.055 11.7508 262.149C8.25511 260.546 5.63679 258.274 3.96976 255.397L3.84508 255.259C0.945086 251.301 -0.237078 246.443 0.51101 241.595C1.26372 236.741 3.85893 232.47 7.82103 229.57L28.4858 214.543C28.8552 214.276 29.3678 214.345 29.6541 214.696L51.9121 241.853C52.0644 242.038 52.1291 242.273 52.1014 242.509C52.0737 242.744 51.9444 242.957 51.7551 243.095L48.9474 245.136L68.8133 255.633L73.8144 257.923C73.8144 257.923 81.0321 261.234 82.1173 261.724L85.9501 263.483C92.8676 266.549 94.2021 269.634 94.3822 271.195C94.5069 272.285 94.1421 273.268 93.4079 273.822L75.4907 287.353C74.7795 287.893 73.9299 288.179 73.0386 288.179L73.0432 288.17ZM28.846 216.404L8.83695 230.951C5.24428 233.578 2.89381 237.448 2.21037 241.849C1.53155 246.249 2.60288 250.65 5.23504 254.238L5.40129 254.446C6.94364 257.097 9.29873 259.133 12.4666 260.583C20.8387 264.421 44.5974 270.165 54.4288 272.456C57.9291 273.273 60.1641 273.772 60.2426 273.786C60.3026 273.799 60.3627 273.818 60.4181 273.846L71.3762 278.87C71.9904 279.151 72.406 279.719 72.4799 280.398C72.5537 281.072 72.2767 281.724 71.7364 282.13C71.5517 282.268 71.3947 282.425 71.2515 282.61C70.6235 283.423 70.5358 284.508 71.0345 285.316C71.4686 286.027 72.2259 286.452 73.0525 286.452C73.5651 286.452 74.0545 286.286 74.4701 285.977L92.3873 272.442C92.5767 272.299 92.7521 271.948 92.6875 271.38C92.5997 270.627 91.8101 267.939 85.2574 265.035L81.4154 263.271C80.3394 262.781 73.1125 259.47 73.1125 259.47L68.0652 257.161L46.9386 246C46.6754 245.861 46.5046 245.598 46.4861 245.303C46.463 245.007 46.5969 244.721 46.8371 244.545L50.0234 242.227L28.8552 216.4L28.846 216.404Z" fill="#001081"/>
<path d="M191.024 236.857H147.363C146.324 236.857 145.483 236.016 145.483 234.977V233.181C145.483 232.142 146.324 231.302 147.363 231.302H191.024V236.861V236.857Z" fill="white"/>
<path d="M191.024 237.323H147.363C146.07 237.323 145.017 236.27 145.017 234.977V233.181C145.017 231.888 146.07 230.835 147.363 230.835H191.024C191.283 230.835 191.491 231.043 191.491 231.302V236.861C191.491 237.12 191.283 237.328 191.024 237.328V237.323ZM147.363 231.763C146.582 231.763 145.945 232.396 145.945 233.181V234.977C145.945 235.758 146.582 236.395 147.363 236.395H190.562V231.763H147.363Z" fill="#001081"/>
<path d="M218.667 236.857H178.394C177.355 236.857 176.515 236.016 176.515 234.977V233.181C176.515 232.142 177.355 231.302 178.394 231.302H218.667V236.861V236.857Z" fill="white"/>
<path d="M218.667 237.323H178.394C177.101 237.323 176.049 236.27 176.049 234.977V233.181C176.049 231.888 177.101 230.835 178.394 230.835H218.667C218.925 230.835 219.133 231.043 219.133 231.302V236.861C219.133 237.12 218.925 237.328 218.667 237.328V237.323ZM178.394 231.763C177.614 231.763 176.977 232.396 176.977 233.181V234.977C176.977 235.758 177.614 236.395 178.394 236.395H218.205V231.763H178.394Z" fill="#001081"/>
<path d="M188.729 246.605H147.349C146.07 246.605 145.031 245.566 145.031 244.287V239.184C145.031 237.905 146.07 236.866 147.349 236.866H188.729V246.61V246.605Z" fill="white"/>
<path d="M188.725 247.067H147.344C145.811 247.067 144.56 245.82 144.56 244.282V239.18C144.56 237.646 145.807 236.395 147.344 236.395H188.725C188.983 236.395 189.191 236.603 189.191 236.861V246.605C189.191 246.864 188.983 247.071 188.725 247.071V247.067ZM147.344 237.323C146.319 237.323 145.488 238.154 145.488 239.18V244.282C145.488 245.307 146.319 246.139 147.344 246.139H188.263V237.323H147.344Z" fill="#001081"/>
<path d="M221.585 246.605H179.84C178.561 246.605 177.522 245.566 177.522 244.287V239.184C177.522 237.905 178.561 236.866 179.84 236.866H221.585V246.61V246.605Z" fill="white"/>
<path d="M221.59 247.067H179.845C178.311 247.067 177.06 245.82 177.06 244.282V239.18C177.06 237.646 178.307 236.395 179.845 236.395H221.59C221.848 236.395 222.056 236.603 222.056 236.861V246.605C222.056 246.864 221.848 247.071 221.59 247.071V247.067ZM179.845 237.323C178.819 237.323 177.988 238.154 177.988 239.18V244.282C177.988 245.307 178.819 246.139 179.845 246.139H221.123V237.323H179.845Z" fill="#001081"/>
<path d="M228.415 246.563H189.787V257.863H228.415V246.563Z" fill="white"/>
<path d="M228.415 258.33H189.787C189.528 258.33 189.32 258.122 189.32 257.863V246.559C189.32 246.3 189.528 246.092 189.787 246.092H228.415C228.673 246.092 228.881 246.3 228.881 246.559V257.863C228.881 258.122 228.673 258.33 228.415 258.33ZM190.253 257.401H227.953V247.03H190.253V257.401Z" fill="#001081"/>
<path d="M137.693 257.868H189.787V246.568H137.693V257.868Z" fill="url(#paint4_linear_7_1020)"/>
<path d="M189.787 258.487H137.693C137.351 258.487 137.074 258.21 137.074 257.868V246.563C137.074 246.222 137.351 245.945 137.693 245.945H189.787C190.128 245.945 190.406 246.222 190.406 246.563V257.868C190.406 258.21 190.128 258.487 189.787 258.487ZM138.316 257.244H189.168V247.182H138.316V257.244Z" fill="#001081"/>
<path d="M181.59 395.396L179.531 391.406L432.472 260.671L620.51 391.559L617.943 395.244L432.13 265.908L181.59 395.396Z" fill="#001081"/>
<path d="M281.335 390.136H111.939V396.661H281.335V390.136Z" fill="#001081"/>
<path d="M721.991 257.868H89.2427V268.904H721.991V257.868Z" fill="white"/>
<path d="M721.991 269.763H89.2427C88.7671 269.763 88.3838 269.38 88.3838 268.905V257.868C88.3838 257.392 88.7671 257.009 89.2427 257.009H721.991C722.467 257.009 722.85 257.392 722.85 257.868V268.905C722.85 269.38 722.467 269.763 721.991 269.763ZM90.1016 268.046H721.133V258.727H90.1016V268.046Z" fill="#001081"/>
<path d="M318.495 257.868H89.2427V268.904H318.495V257.868Z" fill="white"/>
<path d="M318.495 269.763H89.2427C88.7671 269.763 88.3838 269.38 88.3838 268.905V257.868C88.3838 257.392 88.7671 257.009 89.2427 257.009H318.495C318.97 257.009 319.354 257.392 319.354 257.868V268.905C319.354 269.38 318.97 269.763 318.495 269.763ZM90.1016 268.046H317.636V258.727H90.1016V268.046Z" fill="#001081"/>
<path d="M303.695 268.904H289.934L267.653 423.551H281.409L303.695 268.904Z" fill="#001081"/>
<path d="M138.589 268.904H124.828L102.547 423.551H116.303L138.589 268.904Z" fill="#001081"/>
<path d="M532.277 396.666H701.673V390.141H532.277V396.666Z" fill="#001081"/>
<path d="M523.684 268.904H509.922L532.203 423.551H545.965L523.684 268.904Z" fill="#001081"/>
<path d="M688.789 268.904H675.028L697.309 423.551H711.07L688.789 268.904Z" fill="#001081"/>
<path d="M273 208.328H333.734C334.828 208.328 335.719 209.214 335.719 210.314L339.243 253.398C339.243 253.892 339.053 254.335 338.767 254.682C338.402 255.111 337.862 255.379 337.243 255.379H276.509C275.415 255.379 274.524 254.492 274.524 253.393L271.014 210.309C271.014 209.214 271.901 208.323 273 208.323V208.328Z" fill="white"/>
<path d="M273.919 208.328H334.652C335.747 208.328 336.638 209.214 336.638 210.314L340.162 253.398C340.162 253.892 339.972 254.335 339.686 254.682C339.321 255.111 338.781 255.379 338.162 255.379H277.428C276.334 255.379 275.443 254.492 275.443 253.393L271.933 210.309C271.933 209.214 272.82 208.323 273.919 208.323V208.328Z" fill="#001081"/>
<path d="M350.09 255.43V255.725C350.09 257.748 339.201 257.868 338.721 257.868H287.5C287.02 257.868 276.26 257.628 276.26 255.674V255.434V255.379H350.09V255.425V255.43Z" fill="white"/>
<path d="M338.721 258.727H287.5C285.482 258.727 275.406 258.579 275.406 255.679V255.439C275.406 254.963 275.789 254.529 276.265 254.529H350.09C350.566 254.529 350.949 254.913 350.949 255.388V255.73C350.949 258.339 343.288 258.731 338.721 258.731V258.727ZM278.814 256.242C281.113 256.69 285.149 257.014 287.5 257.014H338.721C341.496 257.014 345.384 256.727 347.601 256.242H278.814Z" fill="#001081"/>
<path d="M362.867 255.43V255.725C362.867 257.748 351.979 257.868 351.498 257.868H300.277C299.797 257.868 289.038 257.628 289.038 255.674V255.434V255.379H362.863V255.425L362.867 255.43Z" fill="white"/>
<path d="M351.498 258.727H300.277C298.259 258.727 288.179 258.579 288.179 255.679V255.439C288.179 254.963 288.562 254.529 289.038 254.529H362.863C363.338 254.529 363.722 254.913 363.722 255.388V255.73C363.722 258.339 356.061 258.731 351.494 258.731L351.498 258.727ZM291.591 256.242C293.896 256.69 297.932 257.014 300.282 257.014H351.503C354.278 257.014 358.167 256.727 360.383 256.242H291.596H291.591Z" fill="#001081"/>
<path d="M278.883 251.842H336.915L333.35 212.138H275.318L278.883 251.842Z" fill="white"/>
<path d="M284.521 223.46H300.093L299.986 222.288H284.42L284.521 223.46Z" fill="#001081"/>
<path d="M284.743 225.908H300.31L300.208 224.735H284.637L284.743 225.908Z" fill="#001081"/>
<path d="M284.96 228.351H300.531L300.425 227.178H284.858L284.96 228.351Z" fill="#001081"/>
<path d="M318.504 246.088H327.509L327.435 245.298H318.43L318.504 246.088Z" fill="#001081"/>
<path d="M318.675 248.023H327.68L327.61 247.228H318.605L318.675 248.023Z" fill="#001081"/>
<path d="M286.382 243.252H327.255L326.373 233.43H285.5L286.382 243.252Z" fill="#001081"/>
<path d="M404.636 413.198C412.061 411.619 415.529 402.494 415.529 402.494H454.213L452.176 423.69H398.097C398.097 423.69 397.917 414.629 404.636 413.198Z" fill="white"/>
<path d="M452.176 424.553H398.097C397.63 424.553 397.247 424.179 397.238 423.713C397.238 423.616 397.127 413.923 404.46 412.362C411.35 410.898 414.693 402.281 414.73 402.194C414.855 401.861 415.178 401.639 415.534 401.639H454.217C454.457 401.639 454.688 401.736 454.855 401.916C455.016 402.097 455.095 402.337 455.072 402.577L453.035 423.777C452.994 424.216 452.624 424.553 452.181 424.553H452.176ZM398.988 422.835H451.396L453.266 403.353H416.102C415.192 405.435 411.609 412.597 404.816 414.043C399.999 415.068 399.14 420.683 398.988 422.84V422.835Z" fill="#001081"/>
<path d="M415.529 402.498L414.056 300.047L463.633 297.572L454.217 402.498H415.529Z" fill="white"/>
<path d="M454.217 403.353H415.529C415.058 403.353 414.679 402.974 414.67 402.508L413.197 300.061C413.192 299.599 413.553 299.216 414.014 299.193L463.591 296.713C463.832 296.695 464.081 296.796 464.252 296.976C464.423 297.156 464.51 297.401 464.487 297.646L455.072 402.572C455.03 403.016 454.661 403.353 454.217 403.353ZM416.374 401.635H453.432L462.691 298.472L414.929 300.86L416.379 401.635H416.374Z" fill="#001081"/>
<path d="M462.631 363.016L462.511 364.332C461.61 374.394 460.876 381.87 460.599 384.6L460.567 384.946L460.502 385.616C460.493 385.703 460.488 385.749 460.488 385.749H404.386L404.419 384.946C404.428 384.803 404.432 384.646 404.442 384.456C404.806 376.578 406.871 333.96 410.32 294.894C410.329 294.806 410.334 294.714 410.343 294.626C411.627 280.038 420.516 269.098 431.031 269.098H446.381C458.41 269.098 467.96 283.303 467.189 300.093C467.138 301.211 467.082 302.305 467.027 303.377C465.951 323.866 464.095 346.632 462.631 363.02V363.016Z" fill="#001081"/>
<path d="M460.488 386.604H404.386C404.151 386.604 403.929 386.507 403.767 386.34C403.606 386.174 403.518 385.943 403.527 385.712L403.583 384.42C403.961 376.301 406.016 333.854 409.466 294.815L409.489 294.547C410.81 279.549 420.073 268.24 431.031 268.24H446.381C451.165 268.24 455.695 270.336 459.486 274.303C465.309 280.398 468.509 290.054 468.048 300.13C467.997 301.248 467.941 302.347 467.886 303.418C466.787 324.374 464.884 347.44 463.485 363.099L463.365 364.415C462.488 374.237 461.749 381.783 461.453 384.692L461.356 385.699C461.356 385.722 461.333 385.879 461.333 385.902C461.259 386.308 460.904 386.608 460.488 386.608V386.604ZM405.282 384.886L459.712 384.863L459.745 384.521C460.04 381.607 460.779 374.076 461.657 364.258L461.777 362.942C463.176 347.301 465.074 324.258 466.173 303.326C466.228 302.259 466.284 301.165 466.334 300.052C466.778 290.433 463.753 281.253 458.249 275.49C454.79 271.869 450.689 269.957 446.385 269.957H431.036C420.973 269.957 412.444 280.597 411.207 294.704L411.184 294.968C407.739 333.979 405.684 376.394 405.305 384.503L405.287 384.895L405.282 384.886Z" fill="#001081"/>
<path d="M337.525 413.198C344.95 411.618 348.418 402.494 348.418 402.494H387.102L385.065 423.689H330.986C330.986 423.689 330.806 414.629 337.525 413.198Z" fill="white"/>
<path d="M385.061 424.553H330.981C330.515 424.553 330.132 424.179 330.122 423.713C330.122 423.616 330.012 413.923 337.345 412.362C344.235 410.898 347.578 402.281 347.61 402.194C347.735 401.861 348.058 401.639 348.414 401.639H387.097C387.337 401.639 387.568 401.736 387.734 401.916C387.896 402.097 387.975 402.337 387.951 402.577L385.915 423.777C385.873 424.216 385.504 424.553 385.061 424.553ZM331.873 422.835H384.28L386.151 403.353H348.986C348.077 405.435 344.493 412.597 337.7 414.043C332.884 415.068 332.025 420.683 331.873 422.84V422.835Z" fill="#001081"/>
<path d="M348.413 402.498L346.94 300.047L396.517 297.572L387.102 402.498H348.413Z" fill="white"/>
<path d="M387.102 403.353H348.414C347.943 403.353 347.564 402.974 347.555 402.508L346.082 300.061C346.077 299.599 346.437 299.216 346.899 299.193L396.476 296.713C396.716 296.695 396.965 296.796 397.136 296.976C397.307 297.156 397.395 297.401 397.372 297.646L387.956 402.572C387.914 403.016 387.545 403.353 387.102 403.353ZM349.259 401.635H386.317L395.575 298.472L347.813 300.86L349.263 401.635H349.259Z" fill="#001081"/>
<path d="M382.83 269.094H367.139C356.393 269.094 347.305 280.034 345.989 294.621C345.98 294.709 345.976 294.801 345.966 294.889C341.639 336.99 335.839 385.745 335.839 385.745H397.247C397.247 385.745 397.256 385.699 397.266 385.611L397.33 384.941L397.363 384.595C397.649 381.866 398.397 374.39 399.316 364.327L399.436 363.011C400.517 351.19 401.805 336.052 402.853 320.846H462.705C475.593 320.846 486.039 310.4 486.039 297.512V269.089H382.826L382.83 269.094Z" fill="#001081"/>
<path d="M397.247 386.604H335.839C335.595 386.604 335.359 386.498 335.197 386.317C335.036 386.133 334.957 385.888 334.985 385.648C335.045 385.163 340.836 336.417 345.107 294.806C345.107 294.806 345.13 294.552 345.13 294.547C346.483 279.549 355.941 268.24 367.134 268.24H486.039C486.514 268.24 486.898 268.623 486.898 269.098V297.521C486.898 310.862 476.046 321.714 462.705 321.714H403.652C402.553 337.562 401.223 352.926 400.29 363.099L400.166 364.415C399.265 374.265 398.512 381.797 398.208 384.692L398.111 385.703C398.111 385.726 398.088 385.883 398.083 385.906C398.009 386.313 397.653 386.613 397.238 386.613L397.247 386.604ZM336.804 384.886L396.476 384.858L396.508 384.516C396.813 381.616 397.561 374.094 398.462 364.249L398.582 362.933C399.528 352.603 400.886 336.902 401.994 320.79C402.027 320.343 402.401 319.992 402.853 319.992H462.705C475.099 319.992 485.18 309.911 485.18 297.517V269.953H367.134C356.837 269.953 348.113 280.592 346.839 294.7L346.811 294.981C342.868 333.374 337.636 377.83 336.8 384.886H336.804Z" fill="#001081"/>
<path d="M512.947 241.959L497.934 222.426L482.571 202.417C482.451 202.2 482.335 201.969 482.215 201.757C481.952 201.3 481.675 200.842 481.393 200.404C479.837 197.915 478.082 195.809 476.157 194.04C469.918 188.36 461.708 186.227 451.114 186.227H438.503C434.014 186.227 429.78 187.455 426.007 189.663C424.229 190.688 422.548 191.948 420.997 193.394C419.833 194.465 418.642 195.578 417.589 196.825L388.136 219.203L372.316 231.223L340.868 239.429L340.66 258.02C340.66 258.02 358.73 265.848 372.089 268.027C375.811 269.44 379.93 269.325 383.68 267.487C385.878 266.633 387.758 265.307 389.3 263.608L404.894 251.763C403.962 259.045 403.116 266.425 402.373 273.495C399.81 297.821 416.365 319.239 437.704 319.239H497.283L492.979 268.891C498.655 272.982 506.21 272.52 511.511 267.182C517.971 260.68 518.613 249.38 512.942 241.959H512.947Z" fill="white"/>
<path d="M497.288 320.098H437.709C428.177 320.098 419.163 315.919 412.338 308.336C404.095 299.179 400.152 286.448 401.528 273.407C402.258 266.471 403.019 259.849 403.795 253.684L389.826 264.291C388.279 266.018 386.28 267.399 383.999 268.286C380.277 270.114 375.857 270.345 371.872 268.858C358.568 266.665 340.503 258.884 340.323 258.805C340.005 258.667 339.801 258.353 339.806 258.006L340.014 239.415C340.014 239.027 340.282 238.69 340.656 238.593L371.937 230.433L416.998 196.192C418.046 194.964 419.214 193.865 420.415 192.757C422.026 191.256 423.763 189.958 425.578 188.915C429.604 186.559 433.954 185.363 438.503 185.363H451.114C462.571 185.363 470.712 187.917 476.734 193.403C478.747 195.25 480.562 197.453 482.123 199.947C482.405 200.385 482.686 200.852 482.959 201.323C483.037 201.461 483.116 201.604 483.19 201.747L483.323 202.001L513.626 241.438C519.541 249.182 518.867 260.999 512.12 267.787C509.119 270.812 505.258 272.474 501.259 272.474C498.719 272.474 496.235 271.814 493.986 270.549L498.142 319.165C498.165 319.405 498.082 319.641 497.92 319.816C497.759 319.992 497.528 320.093 497.288 320.093V320.098ZM404.899 250.904C405.047 250.904 405.194 250.941 405.328 251.02C405.629 251.191 405.795 251.528 405.749 251.869C404.885 258.588 404.04 265.894 403.232 273.582C401.911 286.138 405.693 298.389 413.613 307.186C420.11 314.404 428.667 318.38 437.709 318.38H496.355L492.134 268.96C492.107 268.627 492.273 268.304 492.568 268.143C492.859 267.976 493.224 267.995 493.492 268.193C495.819 269.87 498.507 270.761 501.268 270.761C504.806 270.761 508.232 269.274 510.91 266.582C517.071 260.38 517.685 249.57 512.268 242.486L481.472 202.186C481.213 201.743 480.95 201.3 480.673 200.875C479.186 198.501 477.473 196.419 475.575 194.678C469.89 189.501 462.114 187.086 451.11 187.086H438.498C434.259 187.086 430.2 188.203 426.436 190.406C424.733 191.39 423.102 192.604 421.579 194.022C420.387 195.116 419.242 196.197 418.24 197.379C418.198 197.425 418.152 197.471 418.101 197.508L372.828 231.907C372.736 231.976 372.634 232.027 372.523 232.054L341.709 240.094L341.515 257.457C344.576 258.745 360.378 265.252 372.219 267.182C372.274 267.191 372.329 267.205 372.385 267.228C375.954 268.581 379.852 268.406 383.297 266.72C385.393 265.903 387.176 264.67 388.653 263.035L404.368 251.084C404.52 250.969 404.705 250.909 404.885 250.909L404.899 250.904Z" fill="#001081"/>
<path d="M493.049 269.653L491.732 254.248L496.166 270.641L493.049 269.653Z" fill="#001081"/>
<path d="M436.3 160.182L437.108 166.938L437.39 169.376L438.263 176.654L440.558 199.023L455.159 187.571L453.206 169.917L451.414 156.493L445.596 157.915L436.3 160.182Z" fill="#FCB795"/>
<path d="M432.089 176.705C432.975 177.384 434.116 177.67 435.312 177.375L438.267 176.654L442.959 175.518L444.003 169.247L444.03 169.113L445.896 157.892L445.596 157.91L436.258 158.451L432.107 158.686L432.052 159.111L431.839 160.727L430.362 172.152C430.094 174.064 430.837 175.768 432.089 176.705Z" fill="#FCB795"/>
<path d="M432.089 176.705C435.423 171.676 436.125 162.468 436.258 158.451L432.107 158.686L432.052 159.111L431.839 160.727L430.362 172.152C430.094 174.064 430.837 175.768 432.089 176.705Z" fill="#FFC8B0"/>
<path d="M431.839 160.732C431.899 160.894 431.946 161.069 432.006 161.24C432.837 163.83 434.744 165.659 437.104 166.943C439.14 168.06 441.509 168.762 443.79 169.21C443.86 169.229 443.929 169.243 443.998 169.252C448.819 170.166 453.206 169.921 453.206 169.921L451.414 156.497C451.031 150.531 447.628 147.663 442.146 147.663C435.991 147.663 432.823 153.68 432.116 158.695H432.107L432.052 159.125L431.839 160.741V160.732Z" fill="#593D51"/>
<path d="M433.529 166.052C433.257 168.204 433.631 169.944 434.365 169.944C435.099 169.944 435.912 168.204 436.185 166.052C436.457 163.9 436.083 162.159 435.349 162.159C434.615 162.159 433.802 163.9 433.529 166.052Z" fill="#FCB795"/>
<path d="M404.903 251.703L417.538 242.2L403.472 263.525L404.903 251.703Z" fill="#001081"/>
<path d="M340.868 258.043H321.889V247.538C321.889 243.059 325.523 239.424 330.002 239.424H340.868V258.043Z" fill="white"/>
<path d="M340.868 258.902H321.889C321.413 258.902 321.03 258.519 321.03 258.043V247.538C321.03 242.592 325.052 238.57 329.998 238.57H340.863C341.339 238.57 341.722 238.953 341.722 239.429V258.048C341.722 258.524 341.339 258.907 340.863 258.907L340.868 258.902ZM322.748 257.184H340.009V240.283H330.002C326.003 240.283 322.748 243.539 322.748 247.538V257.189V257.184Z" fill="#001081"/>
<path d="M448.57 186.873C458.241 186.873 466.08 177.872 466.08 166.767C466.08 155.663 458.241 146.661 448.57 146.661C438.899 146.661 431.059 155.663 431.059 166.767C431.059 177.872 438.899 186.873 448.57 186.873Z" fill="#001081"/>
<path d="M465.222 160.547L486.875 272.326H470.975C446.104 272.326 426.469 248.069 428.279 219.582L431.063 164.685L465.226 160.547H465.222Z" fill="#001081"/>
<path d="M494.997 327.902C494.78 326.623 492.605 325.191 490.029 325.191H413.483C410.902 325.191 408.732 326.623 408.515 327.902L392.14 423.694H389.572L406.044 327.343C406.538 324.466 409.734 322.296 413.488 322.296H490.033C493.783 322.296 496.983 324.466 497.477 327.343L513.949 423.694H511.381L495.007 327.902H494.997Z" fill="#001081"/>
<path d="M438.577 327.902C438.36 326.623 436.185 325.191 433.608 325.191H373.174C370.593 325.191 368.423 326.623 368.205 327.902L351.831 423.694H349.263L365.735 327.343C366.229 324.466 369.425 322.296 373.179 322.296H433.612C437.362 322.296 440.562 324.466 441.056 327.343L457.528 423.694H454.961L438.586 327.902H438.577Z" fill="#001081"/>
<path d="M422.095 318.144C425.494 315.595 427.743 311.195 427.743 306.184V279.95H511.15H513.164V306.184C513.164 315.332 506.685 322.776 498.719 322.776H388.076V318.144H422.091H422.095Z" fill="url(#paint5_linear_7_1020)"/>
<path d="M498.719 323.635H388.076C387.6 323.635 387.217 323.252 387.217 322.776V318.144C387.217 317.669 387.6 317.285 388.076 317.285H421.8C424.986 314.778 426.88 310.65 426.88 306.184V279.95C426.88 279.475 427.263 279.091 427.738 279.091H513.164C513.639 279.091 514.023 279.475 514.023 279.95V306.184C514.023 315.808 507.156 323.635 498.719 323.635ZM388.935 321.917H498.719C506.209 321.917 512.305 314.861 512.305 306.184V280.805H428.597V306.184C428.597 311.292 426.358 316.02 422.608 318.832C422.46 318.943 422.28 319.003 422.091 319.003H388.935V321.917Z" fill="#001081"/>
<path d="M417.431 322.776H363.685V318.144H417.431C423.176 318.144 427.845 312.778 427.845 306.184V279.95H431.876V306.184C431.876 315.332 425.397 322.776 417.431 322.776Z" fill="url(#paint6_linear_7_1020)"/>
<path d="M417.432 323.635H363.685C363.209 323.635 362.826 323.252 362.826 322.776V318.144C362.826 317.669 363.209 317.285 363.685 317.285H417.432C422.7 317.285 426.986 312.307 426.986 306.184V279.95C426.986 279.475 427.369 279.091 427.845 279.091H431.876C432.352 279.091 432.735 279.475 432.735 279.95V306.184C432.735 315.808 425.868 323.635 417.432 323.635ZM364.544 321.917H417.432C424.922 321.917 431.017 314.861 431.017 306.184V280.805H428.704V306.184C428.704 313.254 423.647 319.003 417.432 319.003H364.544V321.917Z" fill="#001081"/>
<path d="M647.538 255.222H554.835C554.087 255.222 553.482 255.827 553.482 256.575C553.482 257.323 554.087 257.928 554.835 257.928H647.538C648.286 257.928 648.891 257.323 648.891 256.575C648.891 255.827 648.286 255.222 647.538 255.222Z" fill="url(#paint7_linear_7_1020)"/>
<path d="M647.538 258.551H554.835C553.745 258.551 552.859 257.665 552.859 256.575C552.859 255.485 553.745 254.599 554.835 254.599H647.538C648.628 254.599 649.514 255.485 649.514 256.575C649.514 257.665 648.628 258.551 647.538 258.551ZM554.835 255.841C554.429 255.841 554.101 256.169 554.101 256.575C554.101 256.981 554.429 257.309 554.835 257.309H647.538C647.944 257.309 648.272 256.981 648.272 256.575C648.272 256.169 647.94 255.841 647.538 255.841H554.835Z" fill="#001081"/>
<path d="M647.538 255.222H615.315C614.567 255.222 613.962 255.827 613.962 256.575C613.962 257.323 614.567 257.928 615.315 257.928H647.538C648.286 257.928 648.891 257.323 648.891 256.575C648.891 255.827 648.286 255.222 647.538 255.222Z" fill="url(#paint8_linear_7_1020)"/>
<path d="M647.538 258.551H615.315C614.225 258.551 613.338 257.665 613.338 256.575C613.338 255.485 614.225 254.599 615.315 254.599H647.538C648.628 254.599 649.514 255.485 649.514 256.575C649.514 257.665 648.628 258.551 647.538 258.551ZM615.315 255.841C614.908 255.841 614.581 256.169 614.581 256.575C614.581 256.981 614.908 257.309 615.315 257.309H647.538C647.944 257.309 648.272 256.981 648.272 256.575C648.272 256.169 647.94 255.841 647.538 255.841H615.315Z" fill="#001081"/>
<path d="M600.27 207.677H534.189C532.633 207.677 531.746 208.739 532.208 210.05L547.331 252.927C547.793 254.238 549.432 255.3 550.984 255.3H617.065C618.621 255.3 619.508 254.238 619.046 252.927L603.923 210.05C603.461 208.739 601.821 207.677 600.27 207.677Z" fill="white"/>
<path d="M617.07 255.924H550.989C549.164 255.924 547.299 254.7 546.749 253.135L531.626 210.258C531.349 209.478 531.437 208.716 531.861 208.111C532.337 207.441 533.182 207.058 534.189 207.058H600.27C602.094 207.058 603.96 208.282 604.509 209.847L619.633 252.724C619.91 253.504 619.826 254.266 619.397 254.871C618.921 255.541 618.076 255.924 617.07 255.924ZM534.189 208.296C533.593 208.296 533.113 208.489 532.873 208.827C532.683 209.099 532.651 209.45 532.794 209.847L547.918 252.724C548.292 253.786 549.7 254.686 550.989 254.686H617.07C617.665 254.686 618.146 254.492 618.386 254.155C618.575 253.883 618.603 253.532 618.464 253.135L603.341 210.254C602.967 209.191 601.558 208.291 600.27 208.291H534.189V208.296Z" fill="#001081"/>
<path d="M598.451 207.677H532.369C530.813 207.677 529.927 208.739 530.388 210.05L545.512 252.927C545.974 254.238 547.613 255.3 549.164 255.3H615.246C616.802 255.3 617.688 254.238 617.227 252.927L602.103 210.05C601.641 208.739 600.002 207.677 598.451 207.677Z" fill="url(#paint9_linear_7_1020)"/>
<path d="M615.25 255.924H549.169C547.345 255.924 545.48 254.7 544.93 253.135L529.807 210.258C529.53 209.478 529.617 208.716 530.042 208.111C530.518 207.441 531.363 207.058 532.369 207.058H598.451C600.275 207.058 602.14 208.282 602.69 209.847L617.813 252.724C618.09 253.504 618.002 254.266 617.578 254.871C617.102 255.541 616.257 255.924 615.25 255.924ZM532.369 208.296C531.774 208.296 531.294 208.489 531.053 208.827C530.864 209.099 530.832 209.45 530.975 209.847L546.098 252.724C546.472 253.786 547.881 254.686 549.169 254.686H615.25C615.846 254.686 616.326 254.492 616.566 254.155C616.756 253.883 616.788 253.532 616.645 253.135L601.521 210.258C601.147 209.196 599.739 208.296 598.451 208.296H532.369Z" fill="#001081"/>
</g>
<defs>
<linearGradient id="paint0_linear_7_1020" x1="429.872" y1="0.858917" x2="429.872" y2="106.543" gradientUnits="userSpaceOnUse">
<stop stop-color="#1FED93"/>
<stop offset="1" stop-color="#E3FFF3"/>
</linearGradient>
<linearGradient id="paint1_linear_7_1020" x1="531.469" y1="352.081" x2="531.469" y2="389.494" gradientUnits="userSpaceOnUse">
<stop stop-color="#1FED93"/>
<stop offset="1" stop-color="#D1FFEB"/>
</linearGradient>
<linearGradient id="paint2_linear_7_1020" x1="589.172" y1="414.308" x2="649.482" y2="414.308" gradientUnits="userSpaceOnUse">
<stop stop-color="#1FED93"/>
<stop offset="1" stop-color="#CAFFE8"/>
</linearGradient>
<linearGradient id="paint3_linear_7_1020" x1="99.2356" y1="228.609" x2="99.2356" y2="346.96" gradientUnits="userSpaceOnUse">
<stop stop-color="#1FED93"/>
<stop offset="1" stop-color="#D2FFEB"/>
</linearGradient>
<linearGradient id="paint4_linear_7_1020" x1="189.787" y1="252.218" x2="137.693" y2="252.218" gradientUnits="userSpaceOnUse">
<stop stop-color="#1FED93"/>
<stop offset="1" stop-color="#CBFFE8"/>
</linearGradient>
<linearGradient id="paint5_linear_7_1020" x1="450.62" y1="279.95" x2="450.62" y2="322.776" gradientUnits="userSpaceOnUse">
<stop stop-color="#1FED93"/>
<stop offset="1" stop-color="#F3FFFA"/>
</linearGradient>
<linearGradient id="paint6_linear_7_1020" x1="397.78" y1="279.95" x2="397.78" y2="322.776" gradientUnits="userSpaceOnUse">
<stop stop-color="#1FED93"/>
<stop offset="1" stop-color="#F3FFFA"/>
</linearGradient>
<linearGradient id="paint7_linear_7_1020" x1="601.187" y1="255.222" x2="601.187" y2="257.928" gradientUnits="userSpaceOnUse">
<stop stop-color="#1FED93"/>
<stop offset="1" stop-color="#F0FFF8"/>
</linearGradient>
<linearGradient id="paint8_linear_7_1020" x1="631.426" y1="255.222" x2="631.426" y2="257.928" gradientUnits="userSpaceOnUse">
<stop stop-color="#1FED93"/>
<stop offset="1" stop-color="#F0FFF8"/>
</linearGradient>
<linearGradient id="paint9_linear_7_1020" x1="573.807" y1="207.677" x2="573.807" y2="255.3" gradientUnits="userSpaceOnUse">
<stop stop-color="#1FED93"/>
<stop offset="1" stop-color="#F0FFF8"/>
</linearGradient>
<clipPath id="clip0_7_1020">
<rect width="760" height="424.799" fill="white"/>
</clipPath>
</defs>
</svg>
