<svg width="98" height="55" viewBox="0 0 98 55" fill="none" xmlns="http://www.w3.org/2000/svg">
<path d="M57.9117 20.6644C57.0904 20.6644 56.3997 20.5571 55.8397 20.3424C55.2797 20.1278 54.8317 19.8384 54.4957 19.4744C54.1597 19.1198 53.917 18.7278 53.7677 18.2984C53.6184 17.8691 53.5437 17.4444 53.5437 17.0244C53.5437 16.5858 53.595 16.1144 53.6977 15.6104C53.8097 15.1064 53.9777 14.5604 54.2017 13.9724L56.0637 14.5604C55.9424 14.9431 55.849 15.2931 55.7837 15.6104C55.7277 15.9184 55.6997 16.1938 55.6997 16.4364C55.6997 16.8844 55.7977 17.2578 55.9937 17.5564C56.199 17.8644 56.4837 18.0931 56.8477 18.2424C57.221 18.3918 57.655 18.4664 58.1497 18.4664C58.467 18.4664 58.7704 18.4291 59.0597 18.3544C59.3584 18.2798 59.6244 18.1491 59.8577 17.9624C60.1004 17.7851 60.2917 17.5424 60.4317 17.2344C60.5717 16.9264 60.6417 16.5391 60.6417 16.0724V7.08444H62.8957V16.0864C62.8957 17.0384 62.7044 17.8551 62.3217 18.5364C61.9484 19.2178 61.393 19.7404 60.6557 20.1044C59.9184 20.4778 59.0037 20.6644 57.9117 20.6644ZM67.5137 17.4444C67.0471 17.4444 66.6457 17.3978 66.3097 17.3044C65.9737 17.2111 65.6937 17.0664 65.4697 16.8704C65.2551 16.6651 65.0917 16.4038 64.9797 16.0864C64.8771 15.7691 64.8257 15.3864 64.8257 14.9384V7.08444H67.0797V14.1264C67.0797 14.3318 67.0937 14.5091 67.1217 14.6584C67.1497 14.7984 67.2011 14.9151 67.2757 15.0084C67.3504 15.0924 67.4531 15.1531 67.5837 15.1904C67.7237 15.2278 67.9057 15.2464 68.1297 15.2464H68.6757V17.4444H67.5137ZM64.4197 6.10444V4.94244H64.7557C64.7277 4.89578 64.6997 4.83044 64.6717 4.74644C64.6531 4.66244 64.6437 4.56911 64.6437 4.46644C64.6437 4.07444 64.7837 3.76178 65.0637 3.52844C65.3437 3.29511 65.7124 3.17844 66.1697 3.17844C66.3657 3.17844 66.5524 3.20178 66.7297 3.24844C66.9071 3.29511 67.0657 3.35578 67.2057 3.43044L66.7717 4.46644C66.6877 4.42911 66.6037 4.40111 66.5197 4.38244C66.4451 4.36378 66.3657 4.35444 66.2817 4.35444C66.1417 4.35444 66.0344 4.38244 65.9597 4.43844C65.8944 4.49444 65.8617 4.56444 65.8617 4.64844C65.8617 4.72311 65.8991 4.79311 65.9737 4.85844C66.0484 4.91444 66.2117 4.94244 66.4637 4.94244H67.3037V6.10444H64.4197ZM68.6722 15.2464H69.7922V17.4444H68.6722V15.2464ZM68.6722 15.2464H68.8122V17.4444H68.6722C68.3922 17.4444 68.2522 17.0804 68.2522 16.3524C68.2522 15.6151 68.3922 15.2464 68.6722 15.2464ZM69.7933 15.2464H70.9133V17.4444H69.7933V15.2464ZM69.7933 15.2464H69.9333V17.4444H69.7933C69.5133 17.4444 69.3733 17.0804 69.3733 16.3524C69.3733 15.6151 69.5133 15.2464 69.7933 15.2464ZM80.3504 17.4444C79.7064 17.4444 79.1604 17.3838 78.7124 17.2624C78.2738 17.1318 77.9051 16.9824 77.6064 16.8144C77.3078 16.6371 77.0511 16.4738 76.8364 16.3244L78.0824 14.9804C78.2504 15.0551 78.4791 15.1204 78.7684 15.1764C79.0671 15.2231 79.3938 15.2464 79.7484 15.2464H81.4704C81.3584 14.8264 81.1951 14.4204 80.9804 14.0284C80.7751 13.6271 80.5371 13.2538 80.2664 12.9084L82.2824 10.8644C82.4971 11.2564 82.6931 11.6811 82.8704 12.1384C83.0478 12.5864 83.1738 13.0764 83.2484 13.6084C83.3324 14.1311 83.3418 14.7098 83.2764 15.3444C83.2111 15.9791 83.0431 16.6791 82.7724 17.4444H80.3504ZM70.9144 17.4444V15.2464H72.2584C72.2864 15.0504 72.3051 14.8498 72.3144 14.6444C72.3331 14.4391 72.3424 14.2198 72.3424 13.9864C72.3424 13.7531 72.3284 13.5011 72.3004 13.2304L74.9464 12.3204C74.8158 12.9738 74.6898 13.5291 74.5684 13.9864C74.4471 14.4438 74.3118 14.8498 74.1624 15.2044C74.0224 15.5591 73.8498 15.9091 73.6444 16.2544C73.4484 16.5998 73.2011 16.9964 72.9024 17.4444H70.9144ZM75.2544 17.4444C74.5544 17.4444 73.9618 17.3838 73.4764 17.2624C72.9911 17.1318 72.6038 16.9871 72.3144 16.8284C72.0344 16.6604 71.8384 16.5251 71.7264 16.4224L72.5524 14.7844C72.7858 14.9338 73.0751 15.0504 73.4204 15.1344C73.7658 15.2091 74.1438 15.2464 74.5544 15.2464H76.2484C76.2764 15.1064 76.2951 14.9338 76.3044 14.7284C76.3231 14.5138 76.3324 14.2804 76.3324 14.0284C76.3324 13.7671 76.3184 13.5011 76.2904 13.2304L78.9644 12.3204C78.8244 12.9738 78.6938 13.5291 78.5724 13.9864C78.4511 14.4438 78.3158 14.8498 78.1664 15.2044C78.0171 15.5591 77.8398 15.9091 77.6344 16.2544C77.4384 16.5998 77.1958 16.9964 76.9064 17.4444H75.2544ZM70.9144 15.2464H71.0544V17.4444H70.9144C70.6344 17.4444 70.4944 17.0804 70.4944 16.3524C70.4944 15.6151 70.6344 15.2464 70.9144 15.2464ZM85.1148 7.08444H87.3688V17.4444H85.1148V7.08444ZM84.7368 21.2104V20.0484H85.0728C85.0448 20.0018 85.0168 19.9364 84.9888 19.8524C84.9701 19.7684 84.9608 19.6751 84.9608 19.5724C84.9608 19.1804 85.0961 18.8678 85.3668 18.6344C85.6468 18.4011 86.0201 18.2844 86.4868 18.2844C86.6828 18.2844 86.8695 18.3078 87.0468 18.3544C87.2241 18.4011 87.3828 18.4618 87.5228 18.5364L87.0888 19.5724C87.0048 19.5351 86.9208 19.5071 86.8368 19.4884C86.7621 19.4698 86.6828 19.4604 86.5988 19.4604C86.4588 19.4604 86.3515 19.4884 86.2768 19.5444C86.2115 19.6004 86.1788 19.6704 86.1788 19.7544C86.1788 19.8011 86.1928 19.8478 86.2208 19.8944C86.2581 19.9411 86.3188 19.9784 86.4028 20.0064C86.4868 20.0344 86.6128 20.0484 86.7808 20.0484H87.6208V21.2104H84.7368Z" fill="white"/>
<path d="M57.8137 39.5844C56.9924 39.5844 56.2737 39.4211 55.6577 39.0944C55.051 38.7678 54.5797 38.3198 54.2437 37.7504C53.917 37.1718 53.7537 36.5138 53.7537 35.7764C53.7537 35.1978 53.847 34.6704 54.0337 34.1944C54.2204 33.7091 54.4817 33.2938 54.8177 32.9484C55.163 32.6031 55.5644 32.3371 56.0217 32.1504C56.4884 31.9544 56.997 31.8564 57.5477 31.8564C58.0704 31.8564 58.5464 31.9498 58.9757 32.1364C59.405 32.3231 59.7784 32.5844 60.0957 32.9204C60.413 33.2564 60.6557 33.6531 60.8237 34.1104C60.9917 34.5678 61.071 35.0671 61.0617 35.6084L61.0477 36.2244H55.1397L54.8037 34.9504H59.2137L58.9757 35.2024V34.9224C58.957 34.6891 58.8824 34.4884 58.7517 34.3204C58.6304 34.1431 58.467 34.0031 58.2617 33.9004C58.0657 33.7978 57.8417 33.7464 57.5897 33.7464C57.2164 33.7464 56.899 33.8211 56.6377 33.9704C56.3857 34.1104 56.1944 34.3158 56.0637 34.5864C55.933 34.8571 55.8677 35.1931 55.8677 35.5944C55.8677 35.9958 55.9517 36.3504 56.1197 36.6584C56.297 36.9664 56.549 37.2044 56.8757 37.3724C57.2117 37.5404 57.6084 37.6244 58.0657 37.6244C58.3737 37.6244 58.6537 37.5778 58.9057 37.4844C59.1577 37.3911 59.4284 37.2324 59.7177 37.0084L60.7677 38.4924C60.4784 38.7351 60.1704 38.9404 59.8437 39.1084C59.517 39.2671 59.181 39.3838 58.8357 39.4584C58.4997 39.5424 58.159 39.5844 57.8137 39.5844ZM64.9945 39.5844C64.2852 39.5844 63.6505 39.4724 63.0905 39.2484C62.5305 39.0151 62.0825 38.6978 61.7465 38.2964L63.1185 37.1204C63.4078 37.4098 63.7345 37.6244 64.0985 37.7644C64.4625 37.8951 64.8078 37.9604 65.1345 37.9604C65.2558 37.9604 65.3632 37.9464 65.4565 37.9184C65.5498 37.8904 65.6292 37.8531 65.6945 37.8064C65.7692 37.7504 65.8252 37.6898 65.8625 37.6244C65.8998 37.5498 65.9185 37.4658 65.9185 37.3724C65.9185 37.1858 65.8392 37.0458 65.6805 36.9524C65.6058 36.9058 65.4705 36.8498 65.2745 36.7844C65.0785 36.7098 64.8265 36.6351 64.5185 36.5604C64.0798 36.4484 63.6972 36.3131 63.3705 36.1544C63.0532 35.9958 62.7918 35.8138 62.5865 35.6084C62.3998 35.4218 62.2552 35.2071 62.1525 34.9644C62.0592 34.7218 62.0125 34.4511 62.0125 34.1524C62.0125 33.6951 62.1478 33.2938 62.4185 32.9484C62.6985 32.6031 63.0625 32.3371 63.5105 32.1504C63.9585 31.9544 64.4438 31.8564 64.9665 31.8564C65.3772 31.8564 65.7645 31.9031 66.1285 31.9964C66.5018 32.0898 66.8472 32.2204 67.1645 32.3884C67.4912 32.5564 67.7805 32.7571 68.0325 32.9904L66.8425 34.3204C66.6838 34.1618 66.4972 34.0218 66.2825 33.9004C66.0678 33.7698 65.8532 33.6671 65.6385 33.5924C65.4238 33.5084 65.2232 33.4664 65.0365 33.4664C64.8965 33.4664 64.7705 33.4804 64.6585 33.5084C64.5558 33.5271 64.4672 33.5644 64.3925 33.6204C64.3272 33.6671 64.2758 33.7278 64.2385 33.8024C64.2012 33.8678 64.1825 33.9424 64.1825 34.0264C64.1825 34.1291 64.2058 34.2224 64.2525 34.3064C64.3085 34.3811 64.3832 34.4511 64.4765 34.5164C64.5605 34.5631 64.7052 34.6238 64.9105 34.6984C65.1252 34.7731 65.4052 34.8571 65.7505 34.9504C66.1892 35.0718 66.5625 35.2118 66.8705 35.3704C67.1878 35.5198 67.4398 35.6971 67.6265 35.9024C67.7852 36.0611 67.8972 36.2478 67.9625 36.4624C68.0372 36.6678 68.0745 36.8918 68.0745 37.1344C68.0745 37.6104 67.9392 38.0351 67.6685 38.4084C67.4072 38.7724 67.0432 39.0618 66.5765 39.2764C66.1192 39.4818 65.5918 39.5844 64.9945 39.5844ZM73.3821 39.4444V34.8804C73.3821 34.4978 73.2748 34.2178 73.0601 34.0404C72.8548 33.8538 72.5655 33.7604 72.1921 33.7604C71.8281 33.7604 71.5015 33.8304 71.2121 33.9704C70.9321 34.1011 70.6615 34.3204 70.4001 34.6284L69.0561 33.3264C69.5041 32.8691 70.0175 32.5098 70.5961 32.2484C71.1748 31.9871 71.8048 31.8564 72.4861 31.8564C73.1115 31.8564 73.6528 31.9498 74.1101 32.1364C74.5675 32.3231 74.9221 32.6078 75.1741 32.9904C75.4261 33.3731 75.5521 33.8584 75.5521 34.4464V39.4444H73.3821ZM71.4501 39.5844C70.9835 39.5844 70.5588 39.4911 70.1761 39.3044C69.8028 39.1178 69.5041 38.8611 69.2801 38.5344C69.0655 38.1984 68.9581 37.8064 68.9581 37.3584C68.9581 36.9758 69.0281 36.6398 69.1681 36.3504C69.3081 36.0611 69.5135 35.8231 69.7841 35.6364C70.0641 35.4404 70.4095 35.2958 70.8201 35.2024C71.2401 35.0998 71.7255 35.0484 72.2761 35.0484H74.5301L74.4041 36.4624H72.3321C72.1361 36.4624 71.9635 36.4811 71.8141 36.5184C71.6648 36.5464 71.5388 36.5978 71.4361 36.6724C71.3335 36.7378 71.2541 36.8171 71.1981 36.9104C71.1515 37.0038 71.1281 37.1158 71.1281 37.2464C71.1281 37.3864 71.1655 37.5078 71.2401 37.6104C71.3148 37.7131 71.4128 37.7924 71.5341 37.8484C71.6648 37.9044 71.8141 37.9324 71.9821 37.9324C72.2248 37.9324 72.4535 37.8951 72.6681 37.8204C72.8921 37.7364 73.0881 37.6198 73.2561 37.4704C73.4335 37.3211 73.5735 37.1484 73.6761 36.9524L74.0681 37.9604C73.8721 38.2778 73.6341 38.5578 73.3541 38.8004C73.0835 39.0431 72.7848 39.2344 72.4581 39.3744C72.1408 39.5144 71.8048 39.5844 71.4501 39.5844ZM81.3118 39.4444V34.8804C81.3118 34.4978 81.2045 34.2178 80.9898 34.0404C80.7845 33.8538 80.4952 33.7604 80.1218 33.7604C79.7578 33.7604 79.4312 33.8304 79.1418 33.9704C78.8618 34.1011 78.5912 34.3204 78.3298 34.6284L76.9858 33.3264C77.4338 32.8691 77.9472 32.5098 78.5258 32.2484C79.1045 31.9871 79.7345 31.8564 80.4158 31.8564C81.0412 31.8564 81.5825 31.9498 82.0398 32.1364C82.4972 32.3231 82.8518 32.6078 83.1038 32.9904C83.3558 33.3731 83.4818 33.8584 83.4818 34.4464V39.4444H81.3118ZM79.3798 39.5844C78.9132 39.5844 78.4885 39.4911 78.1058 39.3044C77.7325 39.1178 77.4338 38.8611 77.2098 38.5344C76.9952 38.1984 76.8878 37.8064 76.8878 37.3584C76.8878 36.9758 76.9578 36.6398 77.0978 36.3504C77.2378 36.0611 77.4432 35.8231 77.7138 35.6364C77.9938 35.4404 78.3392 35.2958 78.7498 35.2024C79.1698 35.0998 79.6552 35.0484 80.2058 35.0484H82.4598L82.3338 36.4624H80.2618C80.0658 36.4624 79.8932 36.4811 79.7438 36.5184C79.5945 36.5464 79.4685 36.5978 79.3658 36.6724C79.2632 36.7378 79.1838 36.8171 79.1278 36.9104C79.0812 37.0038 79.0578 37.1158 79.0578 37.2464C79.0578 37.3864 79.0952 37.5078 79.1698 37.6104C79.2445 37.7131 79.3425 37.7924 79.4638 37.8484C79.5945 37.9044 79.7438 37.9324 79.9118 37.9324C80.1545 37.9324 80.3832 37.8951 80.5978 37.8204C80.8218 37.7364 81.0178 37.6198 81.1858 37.4704C81.3632 37.3211 81.5032 37.1484 81.6058 36.9524L81.9978 37.9604C81.8018 38.2778 81.5638 38.5578 81.2838 38.8004C81.0132 39.0431 80.7145 39.2344 80.3878 39.3744C80.0705 39.5144 79.7345 39.5844 79.3798 39.5844ZM85.2795 39.4444V29.0844H87.5335V39.4444H85.2795Z" fill="white"/>
<g clip-path="url(#clip0_235_85512)">
<path d="M14.3996 27.7149C15.7194 27.7149 16.7894 26.6449 16.7894 25.3251C16.7894 24.0052 15.7194 22.9353 14.3996 22.9353C13.0797 22.9353 12.0098 24.0052 12.0098 25.3251C12.0098 26.6449 13.0797 27.7149 14.3996 27.7149Z" fill="#1FED93"/>
<path d="M22.1448 27.7149C23.4647 27.7149 24.5346 26.6449 24.5346 25.3251C24.5346 24.0052 23.4647 22.9353 22.1448 22.9353C20.825 22.9353 19.755 24.0052 19.755 25.3251C19.755 26.6449 20.825 27.7149 22.1448 27.7149Z" fill="#1FED93"/>
<path d="M29.8815 27.7149C31.2014 27.7149 32.2713 26.6449 32.2713 25.3251C32.2713 24.0052 31.2014 22.9353 29.8815 22.9353C28.5617 22.9353 27.4917 24.0052 27.4917 25.3251C27.4917 26.6449 28.5617 27.7149 29.8815 27.7149Z" fill="#1FED93"/>
<path d="M41.3403 33.8786C40.0423 33.8786 38.9935 34.9273 38.9935 36.2254V46.5411L34.0849 41.0566C32.5032 39.2943 30.2423 38.2799 27.8697 38.2799H22.1961C12.9377 38.2799 5.39863 30.7495 5.39863 21.4825C5.39863 19.0755 5.90582 16.7888 6.82564 14.7171L11.3302 14.932L35.2712 16.0495C37.4891 16.1527 39.5867 15.3704 41.1942 13.8403C42.7931 12.3101 43.6786 10.247 43.6786 8.02907C43.6786 3.60191 40.0767 0 35.6495 0H22.1961C14.1584 0 7.12651 4.45295 3.44724 11.012C3.37847 11.1152 3.31829 11.2269 3.26671 11.3387C1.64199 14.3646 0.722168 17.8118 0.722168 21.4739C0.722168 33.3198 10.3588 42.9564 22.2047 42.9564H27.8783C28.9185 42.9564 29.9071 43.4034 30.5948 44.1685L39.5953 54.2177C40.0509 54.7249 40.687 55 41.3403 55C41.624 55 41.8991 54.9484 42.1742 54.8453C43.0854 54.5014 43.6786 53.6246 43.6786 52.6532V36.1996C43.6786 34.9015 42.6298 33.8528 41.3317 33.8528L41.3403 33.8786ZM22.2047 4.69365H35.6581C37.4977 4.69365 38.9935 6.18943 38.9935 8.02907C38.9935 8.94889 38.6239 9.80853 37.9619 10.4447C37.2914 11.0808 36.4232 11.4075 35.5033 11.3645L14.0638 10.3587L9.8086 10.161C12.8861 6.79978 17.2961 4.68506 22.2047 4.68506V4.69365Z" fill="white"/>
<g style="mix-blend-mode:multiply">
<path d="M12.8435 10.3071L10.1442 14.8375L6.83459 14.7257C7.7802 11.9405 9.80896 10.1696 9.80896 10.1696L12.8349 10.3071H12.8435Z" fill="#B3B3B3"/>
</g>
</g>
<defs>
<clipPath id="clip0_235_85512">
<rect width="44" height="55" fill="white" transform="translate(0.722168)"/>
</clipPath>
</defs>
</svg>
