<svg width="116" height="42" viewBox="0 0 116 42" fill="none" xmlns="http://www.w3.org/2000/svg">
<mask id="mask0_299_30179" style="mask-type:luminance" maskUnits="userSpaceOnUse" x="0" y="0" width="116" height="42">
<path d="M115.5 0H0.5V41.3904H115.5V0Z" fill="white"/>
</mask>
<g mask="url(#mask0_299_30179)">
<path d="M114.716 0H112.514V15.8297H114.716V0Z" fill="white"/>
<mask id="mask1_299_30179" style="mask-type:luminance" maskUnits="userSpaceOnUse" x="0" y="0" width="116" height="42">
<path d="M115.5 0H0.5V41.3904H115.5V0Z" fill="white"/>
</mask>
<g mask="url(#mask1_299_30179)">
<path d="M113.521 19.8453C113.487 19.7758 113.469 19.6998 113.467 19.6226C113.465 19.5418 113.482 19.4616 113.515 19.3878C113.549 19.3141 113.599 19.2487 113.661 19.1965C113.723 19.1645 113.792 19.1466 113.861 19.144C113.931 19.1415 114.001 19.1543 114.065 19.1816C114.34 19.284 114.604 19.4146 114.851 19.5714L115.501 18.3769C114.582 17.8928 113.632 17.3925 112.687 18.2195C112.47 18.4313 112.308 18.69 112.211 18.9749C112.114 19.2598 112.087 19.563 112.131 19.8601C112.136 19.8984 112.133 19.9374 112.122 19.9744C112.111 20.0115 112.092 20.0458 112.067 20.075C112.041 20.1043 112.009 20.1278 111.974 20.144C111.938 20.1602 111.899 20.1687 111.86 20.169H111.732V21.5253H115.499V20.1704H114.198C114.066 20.1832 113.933 20.1599 113.813 20.1031C113.693 20.0463 113.592 19.9581 113.519 19.8483" fill="white"/>
<path d="M75.0976 4.60576V6.77276C76.0249 6.78607 76.9101 7.15796 77.5612 7.80802C78.2127 8.45803 78.5778 9.33402 78.5778 10.2467C78.5778 11.1593 78.2127 12.0353 77.5612 12.6854C76.9101 13.3354 76.0249 13.7073 75.0976 13.7206H70.4648V15.8876H75.0976C76.6186 15.8876 78.0776 15.2932 79.1529 14.2351C80.2283 13.177 80.8326 11.7419 80.8326 10.2456C80.8326 8.74919 80.2283 7.31413 79.1529 6.25604C78.0776 5.19795 76.6186 4.60352 75.0976 4.60352" fill="white"/>
<path d="M104.605 4.60274H97.8821V6.77267H104.605C105.533 6.77267 106.424 7.13573 107.081 7.7819C107.738 8.42812 108.107 9.30456 108.107 10.2184C108.107 11.1323 107.738 12.0087 107.081 12.6549C106.424 13.3011 105.533 13.6641 104.605 13.6641H85.2377V0H83.0352V14.7473C83.0352 15.0347 83.1513 15.3104 83.3577 15.5137C83.5645 15.717 83.8445 15.8311 84.1369 15.8311H104.604C106.106 15.8142 107.54 15.2153 108.595 14.1646C109.651 13.1138 110.244 11.6959 110.244 10.2184C110.244 8.74091 109.651 7.323 108.595 6.27223C107.54 5.22151 106.106 4.62268 104.604 4.60567" fill="white"/>
<path d="M104.255 17.7754C103.981 17.7754 103.714 17.8551 103.487 18.0045C103.26 18.1538 103.083 18.3661 102.978 18.6145C102.874 18.8629 102.846 19.1362 102.9 19.3999C102.953 19.6635 103.085 19.9057 103.278 20.0959C103.471 20.286 103.717 20.4154 103.985 20.4678C104.253 20.5203 104.531 20.4934 104.783 20.3905C105.036 20.2876 105.252 20.1134 105.404 19.8899C105.556 19.6663 105.637 19.4035 105.637 19.1347C105.637 18.9562 105.601 18.7795 105.531 18.6145C105.462 18.4496 105.36 18.2997 105.232 18.1735C105.103 18.0473 104.951 17.9472 104.783 17.8789C104.616 17.8106 104.436 17.7754 104.255 17.7754Z" fill="white"/>
<path d="M62.5284 4.60571C61.3938 4.60571 60.2851 4.93662 59.342 5.55658C58.3986 6.17654 57.6637 7.05769 57.2297 8.08866C56.7957 9.11957 56.6818 10.254 56.903 11.3485C57.1247 12.4429 57.6707 13.4482 58.4726 14.2373C59.2749 15.0264 60.2966 15.5637 61.4095 15.7814C62.5219 15.9991 63.675 15.8873 64.723 15.4603C65.7706 15.0333 66.6665 14.3102 67.2967 13.3823C67.9269 12.4545 68.2633 11.3636 68.2633 10.2477C68.2615 8.75189 67.6572 7.3177 66.5818 6.25998C65.5064 5.20221 64.0489 4.60727 62.5284 4.60571ZM62.5284 13.7213C61.8296 13.7213 61.1467 13.5176 60.5659 13.1358C59.9852 12.754 59.5327 12.2114 59.2652 11.5766C58.9982 10.9417 58.9279 10.2432 59.0644 9.56923C59.2004 8.89525 59.5368 8.2762 60.031 7.79032C60.5248 7.30443 61.1541 6.97353 61.8394 6.83945C62.5242 6.70542 63.2345 6.77422 63.8795 7.03715C64.525 7.30013 65.0766 7.74544 65.4648 8.31678C65.8525 8.88816 66.0599 9.55985 66.0599 10.247C66.0589 11.1681 65.6864 12.0513 65.0243 12.7026C64.3621 13.354 63.4644 13.7203 62.5284 13.7213Z" fill="white"/>
<path d="M64.3192 2.71784C64.5922 2.71784 64.8596 2.63812 65.0868 2.48876C65.314 2.3394 65.4908 2.12711 65.5954 1.87873C65.6999 1.63035 65.7277 1.35705 65.674 1.09337C65.6208 0.829694 65.4894 0.587493 65.296 0.397394C65.1026 0.207295 64.8564 0.0778349 64.5885 0.0253865C64.3206 -0.0270619 64.0429 -0.000143447 63.7903 0.102738C63.5376 0.205619 63.322 0.379842 63.1702 0.603375C63.0185 0.826909 62.9375 1.08971 62.9375 1.35856C62.9375 1.53706 62.9731 1.71382 63.0425 1.87873C63.1119 2.04365 63.2137 2.1935 63.3419 2.31971C63.4701 2.44594 63.6228 2.54606 63.7903 2.61437C63.9578 2.68268 64.1378 2.71784 64.3192 2.71784Z" fill="white"/>
<path d="M60.7373 2.71784C61.0107 2.71813 61.2782 2.63865 61.5058 2.48943C61.733 2.34022 61.9103 2.12799 62.0153 1.87959C62.1199 1.63119 62.1476 1.3578 62.0944 1.09401C62.0412 0.830216 61.9093 0.587877 61.7164 0.397657C61.523 0.207438 61.2768 0.0778898 61.0084 0.0254047C60.7405 -0.0270803 60.4624 -0.000142724 60.2102 0.102808C59.9576 0.20576 59.7415 0.380098 59.5897 0.603763C59.4379 0.827425 59.357 1.09036 59.3574 1.3593C59.3574 1.7198 59.5027 2.06554 59.7618 2.32046C60.021 2.57537 60.3726 2.71858 60.7391 2.71858" fill="white"/>
<path d="M68.877 41.3896V39.2226C69.5794 39.2218 70.2526 38.947 70.7491 38.4585C71.2456 37.97 71.5251 37.3077 71.526 36.6168V26.1263H73.7286V36.6168C73.7272 37.8822 73.2154 39.0954 72.3062 39.9901C71.3965 40.8849 70.1633 41.3882 68.877 41.3896Z" fill="white"/>
<path d="M74.0096 22.8808C74.0096 23.1496 73.9286 23.4124 73.7764 23.636C73.6246 23.8595 73.409 24.0337 73.1563 24.1366C72.9041 24.2395 72.6261 24.2664 72.3581 24.2139C72.0902 24.1615 71.8441 24.0321 71.6506 23.842C71.4577 23.6518 71.3258 23.4097 71.2726 23.146C71.2194 22.8823 71.2467 22.609 71.3513 22.3606C71.4558 22.1123 71.6331 21.9 71.8602 21.7506C72.0874 21.6012 72.3544 21.5215 72.6279 21.5215C72.9944 21.5215 73.3456 21.6647 73.6047 21.9196C73.8638 22.1746 74.0096 22.5203 74.0096 22.8808Z" fill="white"/>
<path d="M98.8558 21.5215V27.3313C97.7684 26.487 96.4057 26.061 95.0226 26.1331C93.5354 26.2184 92.1408 26.8694 91.133 27.9483C90.1252 29.0272 89.5838 30.4495 89.6231 31.9142C89.6624 33.3788 90.2792 34.7711 91.343 35.7963C92.4073 36.8216 93.8348 37.3994 95.3243 37.4076C96.4265 37.4081 97.5051 37.0935 98.4287 36.5019C98.4699 36.475 98.5176 36.4596 98.5671 36.4573C98.6166 36.4549 98.6656 36.4657 98.7091 36.4885C98.7531 36.5113 98.7896 36.5453 98.8151 36.5868C98.841 36.6284 98.8544 36.676 98.8553 36.7246V37.3482H101.06V21.5215H98.8558ZM95.3243 35.2413C94.6256 35.2413 93.9431 35.0375 93.3624 34.6558C92.7812 34.274 92.3286 33.7314 92.0616 33.0966C91.7942 32.4617 91.7243 31.7631 91.8604 31.0892C91.9969 30.4153 92.3333 29.7962 92.827 29.3103C93.3207 28.8244 93.95 28.4935 94.6353 28.3595C95.3201 28.2254 96.0304 28.2942 96.6759 28.5572C97.321 28.8202 97.8725 29.2654 98.2607 29.8368C98.649 30.4081 98.8558 31.0799 98.8558 31.767C98.8549 32.6882 98.4824 33.5713 97.8202 34.2226C97.1585 34.874 96.2604 35.2403 95.3243 35.2413Z" fill="white"/>
<path d="M114.715 31.4856C114.653 30.2437 114.176 29.0565 113.358 28.1083C112.541 27.1602 111.428 26.504 110.192 26.2418C108.957 25.9795 107.668 26.1258 106.525 26.6579C105.383 27.1901 104.451 28.0783 103.874 29.1847C103.298 30.2911 103.109 31.5539 103.336 32.7771C103.563 34.0002 104.195 35.1154 105.132 35.9494C106.07 36.7834 107.261 37.2896 108.521 37.3895C109.781 37.4894 111.039 37.1774 112.1 36.5019C112.141 36.475 112.189 36.4596 112.238 36.4573C112.288 36.4549 112.337 36.4657 112.38 36.4885C112.424 36.5113 112.461 36.5453 112.486 36.5868C112.512 36.6284 112.526 36.676 112.526 36.7246V37.3482H114.715V31.4856ZM108.994 35.2406C108.296 35.2406 107.613 35.0368 107.032 34.6551C106.452 34.2733 105.999 33.7307 105.732 33.0959C105.464 32.461 105.394 31.7624 105.531 31.0885C105.667 30.4145 106.003 29.7955 106.497 29.3096C106.991 28.8237 107.621 28.4928 108.305 28.3587C108.991 28.2247 109.7 28.2935 110.346 28.5564C110.991 28.8194 111.543 29.2647 111.931 29.836C112.319 30.4074 112.526 31.0791 112.526 31.7663C112.525 32.6874 112.153 33.5706 111.491 34.2219C110.829 34.8733 109.931 35.2396 108.994 35.2406Z" fill="white"/>
<path d="M87.3861 31.4855C87.3245 30.2433 86.8479 29.0559 86.0303 28.1075C85.2122 27.1591 84.0994 26.5028 82.8634 26.2405C81.628 25.9781 80.3388 26.1244 79.1959 26.6566C78.0534 27.1888 77.1215 28.0772 76.5445 29.1838C75.9679 30.2905 75.7782 31.5534 76.0059 32.7768C76.2335 34.0001 76.8652 35.1154 77.8026 35.9495C78.7401 36.7835 79.9316 37.2898 81.1916 37.3897C82.4516 37.4895 83.7102 37.1774 84.7712 36.5017C84.8129 36.4749 84.8605 36.4595 84.91 36.4571C84.9591 36.4547 85.0081 36.4655 85.0521 36.4883C85.0956 36.5111 85.1322 36.5451 85.1581 36.5867C85.1835 36.6282 85.1974 36.6758 85.1979 36.7244V37.348H87.3861V31.4855ZM81.6664 35.2404C80.9676 35.2404 80.2847 35.0366 79.704 34.6549C79.1232 34.2731 78.6707 33.7305 78.4032 33.0957C78.1362 32.4608 78.0659 31.7623 78.2024 31.0883C78.3385 30.4143 78.6749 29.7953 79.169 29.3094C79.6628 28.8235 80.2921 28.4926 80.9774 28.3585C81.6622 28.2245 82.3725 28.2933 83.0175 28.5562C83.663 28.8192 84.2146 29.2645 84.6028 29.8359C84.9906 30.4072 85.1979 31.0789 85.1979 31.7661C85.1969 32.6872 84.8244 33.5704 84.1623 34.2217C83.5001 34.8731 82.6024 35.2394 81.6664 35.2404Z" fill="white"/>
<path d="M62.5315 37.4067C62.3297 37.4065 62.1284 37.3961 61.9281 37.3755C60.4724 37.2175 59.1337 36.5177 58.186 35.4197C57.2379 34.3217 56.753 32.9087 56.8303 31.4702C56.9075 30.0317 57.541 28.6768 58.6011 27.683C59.6612 26.6893 61.0674 26.1321 62.5315 26.1256C65.442 26.1256 68.2243 28.2926 68.2243 32.3156H59.0384C59.1485 32.988 59.4571 33.6138 59.9254 34.1154C60.3942 34.6169 61.0022 34.972 61.6736 35.1366C62.3455 35.3012 63.052 35.2681 63.7049 35.0414C64.3578 34.8146 64.9284 34.4042 65.3462 33.8612L67.1022 35.17C66.5696 35.8663 65.8793 36.431 65.0857 36.8191C64.2926 37.2073 63.4185 37.4082 62.5324 37.406M59.3998 30.1478H65.6549C65.3536 29.5889 64.9034 29.1212 64.3523 28.7951C63.8012 28.4689 63.1705 28.2966 62.5273 28.2966C61.8846 28.2966 61.2534 28.4689 60.7023 28.7951C60.1512 29.1212 59.701 29.5889 59.3998 30.1478Z" fill="white"/>
<path d="M39.2416 25.9089C38.3289 28.0621 36.8655 29.9465 34.9937 31.3789C33.1219 32.8113 30.9053 33.7431 28.5592 34.0836C26.2132 34.4242 23.8175 34.162 21.6049 33.3225C19.3923 32.483 17.4381 31.0947 15.932 29.2926C14.4039 29.8286 12.1642 30.5702 12.0488 30.6088C12.4449 30.2688 12.8464 29.9355 13.2562 29.6133C14.212 28.8596 15.2 28.1568 16.2203 27.505C20.7993 24.5631 25.9903 22.6682 31.4116 21.9595L29.799 13.8898C25.9094 14.8548 22.1722 16.3382 18.6909 18.2988C16.6452 19.4396 14.7014 20.7489 12.8803 22.2126C12.6176 19.9341 12.948 17.6274 13.8404 15.509C14.7328 13.3907 16.1579 11.5303 17.9819 10.1026C19.806 8.67495 21.969 7.72692 24.2677 7.34753C26.5665 6.96813 28.9256 7.16986 31.1234 7.93377L35.2428 1.85595C31.5235 0.19137 27.3917 -0.370923 23.3528 0.237826C19.3137 0.846575 15.5426 2.59999 12.5005 5.28363C9.45831 7.9673 7.27699 11.4649 6.22323 15.3487C5.16952 19.2326 5.28904 23.3343 6.56717 27.1523C6.65953 27.4354 6.67883 27.7367 6.62335 28.0289C6.56791 28.3211 6.43941 28.5952 6.24947 28.8264C3.92986 31.6979 1.99735 34.8524 0.5 38.2115L4.07993 40.1572C5.43063 37.8461 7.02735 35.6828 8.84312 33.7038C8.92993 33.6066 9.03719 33.5292 9.15749 33.4769C9.2778 33.4246 9.40824 33.3987 9.53975 33.4011C9.67126 33.4034 9.80063 33.4338 9.91895 33.4904C10.0373 33.5469 10.1417 33.6281 10.2248 33.7283C12.4211 36.3955 15.2578 38.4827 18.4791 39.8015C21.7004 41.1204 25.2049 41.6294 28.6762 41.2825C32.1474 40.9358 35.4762 39.744 38.3622 37.815C41.2482 35.886 43.6006 33.2803 45.2069 30.2332L39.2416 25.9089Z" fill="white"/>
<path d="M46.2749 17.2893C46.2749 18.3516 45.9547 19.3901 45.3548 20.2733C44.7548 21.1566 43.9021 21.845 42.9045 22.2515C41.9069 22.6581 40.8091 22.7644 39.75 22.5572C38.691 22.3499 37.7181 21.8384 36.9546 21.0872C36.191 20.3361 35.671 19.379 35.4604 18.3371C35.2497 17.2952 35.3578 16.2153 35.7711 15.2339C36.1843 14.2524 36.8841 13.4136 37.7819 12.8234C38.6798 12.2332 39.7353 11.9182 40.8152 11.9182C42.2632 11.9182 43.6519 12.4841 44.6758 13.4914C45.6996 14.4986 46.2749 15.8648 46.2749 17.2893Z" fill="white"/>
</g>
</g>
</svg>
