<svg width="17" height="16" viewBox="0 0 17 16" fill="none" xmlns="http://www.w3.org/2000/svg">
<path fill-rule="evenodd" clip-rule="evenodd" d="M11.4934 6.99589H9.49458V4.99706C9.49458 4.44739 9.04484 3.99765 8.49517 3.99765C7.9455 3.99765 7.49577 4.44739 7.49577 4.99706V6.99589H5.49696C4.94729 6.99589 4.49756 7.44562 4.49756 7.9953C4.49756 8.54497 4.94729 8.99471 5.49696 8.99471H7.49577V10.9935C7.49577 11.5432 7.9455 11.9929 8.49517 11.9929C9.04484 11.9929 9.49458 11.5432 9.49458 10.9935V8.99471H11.4934C12.0431 8.99471 12.4928 8.54497 12.4928 7.9953C12.4928 7.44562 12.0431 6.99589 11.4934 6.99589ZM8.49523 0C4.07787 0 0.5 3.57789 0.5 7.99529C0.5 12.4127 4.07787 15.9906 8.49523 15.9906C12.9126 15.9906 16.4905 12.4127 16.4905 7.99529C16.4905 3.57789 12.9126 0 8.49523 0ZM8.49572 13.9918C5.18769 13.9918 2.4993 11.3033 2.4993 7.9953C2.4993 4.68724 5.18769 1.99883 8.49572 1.99883C11.8037 1.99883 14.4921 4.68724 14.4921 7.9953C14.4921 11.3033 11.8137 13.9918 8.49572 13.9918Z" fill="white"/>
</svg>
