<svg width="20" height="20" viewBox="0 0 20 20" fill="none" xmlns="http://www.w3.org/2000/svg">
<g clip-path="url(#clip0_1929_28175)">
<path d="M15.2768 1.66797C16.9102 1.66797 18.2435 2.9488 18.3285 4.5613L18.3327 4.7238V15.2788C18.3327 16.9121 17.0518 18.2455 15.4393 18.3305L15.2768 18.3346H4.72185C3.9395 18.3347 3.18693 18.0346 2.61919 17.4964C2.05145 16.9581 1.71179 16.2225 1.67018 15.4413L1.66602 15.2788V4.7238C1.66602 3.09047 2.94685 1.75714 4.55935 1.67214L4.72185 1.66797H15.2768ZM7.49935 12.5013C7.27834 12.5013 7.06637 12.5891 6.91009 12.7454C6.75381 12.9017 6.66602 13.1136 6.66602 13.3346V15.0013L6.67185 15.0988C6.69694 15.3097 6.80161 15.5031 6.96449 15.6394C7.12737 15.7757 7.33615 15.8447 7.54819 15.8323C7.76022 15.8198 7.9595 15.7269 8.10531 15.5724C8.25112 15.418 8.33245 15.2137 8.33268 15.0013V13.3346L8.32685 13.2371C8.30297 13.0344 8.20552 12.8475 8.05299 12.7119C7.90046 12.5763 7.70346 12.5013 7.49935 12.5013ZM9.99935 9.16797C9.77834 9.16797 9.56637 9.25577 9.41009 9.41205C9.25381 9.56833 9.16602 9.78029 9.16602 10.0013V15.0013L9.17185 15.0988C9.19694 15.3097 9.30161 15.5031 9.46449 15.6394C9.62737 15.7757 9.83615 15.8447 10.0482 15.8323C10.2602 15.8198 10.4595 15.7269 10.6053 15.5724C10.7511 15.418 10.8324 15.2137 10.8327 15.0013V10.0013L10.8268 9.9038C10.803 9.70109 10.7055 9.5142 10.553 9.37856C10.4005 9.24293 10.2035 9.168 9.99935 9.16797ZM12.4993 10.8346C12.2783 10.8346 12.0664 10.9224 11.9101 11.0787C11.7538 11.235 11.666 11.447 11.666 11.668V15.0013L11.6718 15.0988C11.6969 15.3097 11.8016 15.5031 11.9645 15.6394C12.1274 15.7757 12.3362 15.8447 12.5482 15.8323C12.7602 15.8198 12.9595 15.7269 13.1053 15.5724C13.2511 15.418 13.3324 15.2137 13.3327 15.0013V11.668L13.3268 11.5705C13.303 11.3678 13.2055 11.1809 13.053 11.0452C12.9005 10.9096 12.7035 10.8347 12.4993 10.8346Z" fill="black"/>
</g>
<defs>
<clipPath id="clip0_1929_28175">
<rect width="20" height="20" fill="white"/>
</clipPath>
</defs>
</svg>
