<svg width="24" height="25" viewBox="0 0 24 25" fill="none" xmlns="http://www.w3.org/2000/svg">
<g clip-path="url(#clip0_389_843)">
<path d="M14.6473 4.12397C14.6741 4.23471 14.7267 4.33754 14.8007 4.42412C14.8748 4.5107 14.9682 4.57858 15.0735 4.62223C15.1787 4.66589 15.2928 4.68409 15.4064 4.67536C15.52 4.66662 15.6299 4.6312 15.7273 4.57197C18.1663 3.08697 20.9573 5.87697 19.4722 8.31597C19.413 8.41324 19.3776 8.5231 19.3688 8.63664C19.36 8.75019 19.3781 8.8642 19.4216 8.96942C19.4652 9.07465 19.533 9.16812 19.6194 9.24223C19.7059 9.31635 19.8086 9.36902 19.9193 9.39597C22.6943 10.069 22.6943 14.016 19.9193 14.69C19.8085 14.7168 19.7057 14.7694 19.6191 14.8435C19.5325 14.9175 19.4646 15.011 19.421 15.1162C19.3773 15.2214 19.3591 15.3355 19.3679 15.4491C19.3766 15.5627 19.412 15.6726 19.4713 15.77C20.9563 18.209 18.1663 21 15.7273 19.515C15.63 19.4557 15.5201 19.4203 15.4066 19.4115C15.293 19.4027 15.179 19.4208 15.0738 19.4644C14.9686 19.5079 14.8751 19.5757 14.801 19.6621C14.7269 19.7486 14.6742 19.8513 14.6473 19.962C13.9742 22.737 10.0273 22.737 9.35325 19.962C9.32642 19.8512 9.27384 19.7484 9.19977 19.6618C9.12571 19.5752 9.03226 19.5074 8.92702 19.4637C8.82178 19.4201 8.70772 19.4019 8.59412 19.4106C8.48052 19.4193 8.37058 19.4547 8.27325 19.514C5.83425 20.999 3.04325 18.209 4.52825 15.77C4.58748 15.6727 4.62294 15.5628 4.63173 15.4493C4.64052 15.3358 4.62241 15.2218 4.57886 15.1165C4.5353 15.0113 4.46755 14.9178 4.38108 14.8437C4.29462 14.7696 4.1919 14.7169 4.08125 14.69C1.30625 14.017 1.30625 10.07 4.08125 9.39597C4.19198 9.36914 4.29482 9.31656 4.3814 9.2425C4.46798 9.16843 4.53585 9.07498 4.57951 8.96974C4.62316 8.8645 4.64136 8.75044 4.63263 8.63684C4.6239 8.52324 4.58848 8.41331 4.52925 8.31597C3.04425 5.87697 5.83425 3.08597 8.27325 4.57097C8.37042 4.63065 8.48033 4.66647 8.59401 4.67549C8.70768 4.68451 8.82187 4.66648 8.92723 4.62287C9.03259 4.57926 9.12613 4.51132 9.20018 4.4246C9.27423 4.33789 9.32668 4.23487 9.35325 4.12397C10.0262 1.34897 13.9733 1.34897 14.6473 4.12397ZM12.0002 9.04297C11.2046 9.04297 10.4415 9.35905 9.87893 9.92165C9.31632 10.4843 9.00025 11.2473 9.00025 12.043C9.00025 12.8386 9.31632 13.6017 9.87893 14.1643C10.4415 14.7269 11.2046 15.043 12.0002 15.043C12.7959 15.043 13.559 14.7269 14.1216 14.1643C14.6842 13.6017 15.0002 12.8386 15.0002 12.043C15.0002 11.2473 14.6842 10.4843 14.1216 9.92165C13.559 9.35905 12.7959 9.04297 12.0002 9.04297Z" fill="#001081"/>
</g>
<defs>
<clipPath id="clip0_389_843">
<rect width="24" height="24" fill="white" transform="translate(0 0.0427246)"/>
</clipPath>
</defs>
</svg>
