<svg width="20" height="20" viewBox="0 0 20 20" fill="none" xmlns="http://www.w3.org/2000/svg">
<g clip-path="url(#clip0_1929_10064)">
<path d="M8.23566 1.83901C8.63205 1.7923 9.03145 1.89701 9.35393 2.13218C9.67641 2.36736 9.89817 2.71565 9.97483 3.10734L9.99566 3.24651L9.99983 3.33318V6.66651C9.99977 6.8349 9.9487 6.99933 9.85335 7.13812C9.75799 7.27691 9.62283 7.38356 9.46566 7.44401L9.3765 7.47318C8.94219 7.58609 8.54479 7.81019 8.22343 8.12341C7.90207 8.43662 7.66785 8.82814 7.54382 9.2594C7.4198 9.69067 7.41025 10.1468 7.51612 10.5829C7.622 11.019 7.83964 11.4199 8.14761 11.7463C8.45558 12.0727 8.84326 12.3132 9.27246 12.4442C9.70166 12.5752 10.1576 12.5921 10.5953 12.4933C11.033 12.3945 11.4375 12.1834 11.7688 11.8808C12.1001 11.5781 12.3469 11.1944 12.4848 10.7673L12.5265 10.6232C12.5689 10.4602 12.6596 10.3139 12.7868 10.2035C12.914 10.0931 13.0717 10.0238 13.239 10.0048L13.3332 9.99984H16.4998C16.9419 9.99984 17.3658 10.1754 17.6783 10.488C17.9909 10.8006 18.1665 11.2245 18.1665 11.6665C18.1665 11.7299 18.1592 11.7931 18.1448 11.8548C17.8113 13.2937 17.1014 14.6181 16.0877 15.6924C15.0741 16.7667 13.7931 17.5522 12.3759 17.9686C10.9588 18.385 9.4565 18.4173 8.02282 18.0621C6.58913 17.7069 5.2756 16.9771 4.21675 15.9473C3.15789 14.9175 2.39176 13.6248 1.99681 12.2016C1.60185 10.7784 1.59227 9.27571 1.96904 7.84755C2.34582 6.41938 3.0954 5.11702 4.14104 4.07383C5.18668 3.03064 6.49079 2.2841 7.91983 1.91068L8.14483 1.85484L8.2365 1.83818L8.23566 1.83901Z" fill="white"/>
<path d="M12.3118 2.1037C12.372 2.08968 12.4335 2.08241 12.4952 2.08203L12.5968 2.08786L12.6902 2.10453L12.776 2.12953C13.9102 2.52879 14.9446 3.16876 15.8081 4.00551C16.6716 4.84226 17.3438 5.85597 17.7785 6.97703L17.8685 7.22203C17.91 7.33976 17.9245 7.4653 17.9109 7.58938C17.8973 7.71345 17.8561 7.8329 17.7901 7.93889C17.7242 8.04488 17.6353 8.13471 17.5301 8.20175C17.4248 8.26879 17.3058 8.31132 17.1818 8.3262L17.0827 8.33203H13.3327C13.2123 8.33204 13.0934 8.30597 12.984 8.25562C12.8747 8.20527 12.7776 8.13184 12.6993 8.04036C12.472 7.77405 12.224 7.52606 11.9577 7.2987C11.8 7.1637 11.6984 6.9747 11.6727 6.7687L11.666 6.66536V2.91953L11.671 2.8212C11.6752 2.7862 11.681 2.75453 11.6877 2.72453L11.7127 2.6387C11.7446 2.54819 11.792 2.46389 11.8527 2.38953L11.9118 2.32286C11.9368 2.29953 11.9602 2.27953 11.9843 2.26036L12.0593 2.20786L12.1327 2.1662L12.2185 2.13036L12.3118 2.1037Z" fill="#1FED93"/>
</g>
<defs>
<clipPath id="clip0_1929_10064">
<rect width="20" height="20" fill="white"/>
</clipPath>
</defs>
</svg>
