<svg width="50" height="50" viewBox="0 0 50 50" fill="none" xmlns="http://www.w3.org/2000/svg">
<g filter="url(#filter0_d_299_30216)">
<path d="M41 19C41 10.1634 33.8366 3 25 3C16.1634 3 9 10.1634 9 19C9 27.8366 16.1634 35 25 35C33.8366 35 41 27.8366 41 19Z" fill="white"/>
<path d="M40 19C40 10.7157 33.2843 4 25 4C16.7157 4 10 10.7157 10 19C10 27.2843 16.7157 34 25 34C33.2843 34 40 27.2843 40 19Z" stroke="#1FED93" stroke-width="2"/>
</g>
<path d="M24.7458 18.5566L28.9295 22.7403L27.5566 24.1132L22 18.5566L27.5566 13L28.9295 14.3729L24.7458 18.5566Z" fill="#1FED93"/>
<defs>
<filter id="filter0_d_299_30216" x="0" y="0" width="50" height="50" filterUnits="userSpaceOnUse" color-interpolation-filters="sRGB">
<feFlood flood-opacity="0" result="BackgroundImageFix"/>
<feColorMatrix in="SourceAlpha" type="matrix" values="0 0 0 0 0 0 0 0 0 0 0 0 0 0 0 0 0 0 127 0" result="hardAlpha"/>
<feMorphology radius="1" operator="erode" in="SourceAlpha" result="effect1_dropShadow_299_30216"/>
<feOffset dy="6"/>
<feGaussianBlur stdDeviation="5"/>
<feColorMatrix type="matrix" values="0 0 0 0 0.0248438 0 0 0 0 0.0970504 0 0 0 0 0.220833 0 0 0 0.07 0"/>
<feBlend mode="normal" in2="BackgroundImageFix" result="effect1_dropShadow_299_30216"/>
<feBlend mode="normal" in="SourceGraphic" in2="effect1_dropShadow_299_30216" result="shape"/>
</filter>
</defs>
</svg>
