<svg width="64" height="64" viewBox="0 0 64 64" fill="none" xmlns="http://www.w3.org/2000/svg">
<path d="M58.5873 27.7147V40.7014C58.5817 45.4657 56.686 50.0332 53.3163 53.4014C49.9467 56.7696 45.3783 58.6632 40.614 58.6667H23.3073C18.5447 58.659 13.9792 56.7643 10.6106 53.3977C7.24191 50.031 5.34456 45.4666 5.33398 40.7041V23.4054C5.33963 18.641 7.23532 14.0736 10.605 10.7054C13.9746 7.33723 18.543 5.44358 23.3073 5.44005H36.2727C36.5409 5.43025 36.8084 5.47462 37.0591 5.57051C37.3098 5.6664 37.5387 5.81185 37.7319 5.99816C37.9252 6.18447 38.0789 6.40783 38.1839 6.65488C38.2888 6.90194 38.343 7.16762 38.343 7.43605C38.343 7.70449 38.2888 7.97017 38.1839 8.21723C38.0789 8.46428 37.9252 8.68764 37.7319 8.87395C37.5387 9.06026 37.3098 9.20571 37.0591 9.3016C36.8084 9.39749 36.5409 9.44186 36.2727 9.43205H23.3073C19.6011 9.43276 16.0468 10.905 13.4256 13.5252C10.8044 16.1454 9.33077 19.6992 9.32865 23.4054V30.0587H15.9847C16.9436 30.0539 17.894 30.2396 18.7807 30.6049C19.6673 30.9702 20.4727 31.5078 21.15 32.1867C22.5127 33.5727 23.2859 35.4325 23.3073 37.3761C23.307 37.8132 23.3928 38.2461 23.5599 38.65C23.7271 39.054 23.9722 39.421 24.2813 39.7301C24.5904 40.0392 24.9574 40.2843 25.3613 40.4514C25.7653 40.6186 26.1982 40.7044 26.6353 40.7041H37.286C37.7225 40.7051 38.1547 40.6182 38.557 40.4487C38.9592 40.2792 39.3232 40.0305 39.6273 39.7174C40.2513 39.0961 40.606 38.2561 40.614 37.3761C40.6058 36.4123 40.7896 35.4565 41.1548 34.5645C41.5199 33.6726 42.059 32.8622 42.7407 32.1809C43.4223 31.4995 44.2328 30.9606 45.1249 30.5958C46.0171 30.231 46.9729 30.0475 47.9367 30.0561H54.5927V27.7147C54.6115 27.198 54.8301 26.7087 55.2024 26.3498C55.5746 25.9909 56.0716 25.7904 56.5887 25.7904C57.1057 25.7904 57.6027 25.9909 57.9749 26.3498C58.3472 26.7087 58.5684 27.198 58.5873 27.7147Z" fill="#001081"/>
<path d="M50.465 22.7387C49.9403 22.7317 49.4395 22.5186 49.0708 22.1453C48.702 21.7721 48.4949 21.2687 48.4943 20.7441V7.43739C48.4911 7.17623 48.5398 6.91705 48.6376 6.67485C48.7353 6.43266 48.8802 6.21228 49.0637 6.02649C49.2473 5.8407 49.4659 5.6932 49.7069 5.59253C49.9479 5.49186 50.2064 5.44004 50.4676 5.44006C50.7318 5.43724 50.994 5.4868 51.2389 5.58588C51.4839 5.68496 51.7068 5.83159 51.8947 6.01731C52.0826 6.20302 52.2319 6.42414 52.3339 6.66788C52.4359 6.91163 52.4886 7.17316 52.489 7.43739V20.7441C52.4819 21.276 52.2655 21.7837 51.8866 22.1571C51.5077 22.5305 50.9969 22.7395 50.465 22.7387Z" fill="#001081"/>
<path d="M58.1336 11.6133L52.8083 6.29325C52.5211 5.97699 52.1654 5.7307 51.7683 5.57325C51.3796 5.41499 50.9639 5.33349 50.5443 5.33325C50.1443 5.33859 49.7443 5.41859 49.3709 5.57325C48.9857 5.75065 48.6346 5.99435 48.3336 6.29325L43.0083 11.6133C42.823 11.7985 42.676 12.0184 42.5757 12.2604C42.4754 12.5025 42.4238 12.7619 42.4238 13.0239C42.4238 13.2859 42.4754 13.5453 42.5757 13.7874C42.676 14.0294 42.823 14.2494 43.0083 14.4346C43.1921 14.6229 43.4117 14.7725 43.6542 14.8746C43.8967 14.9768 44.1571 15.0294 44.4203 15.0294C44.6834 15.0294 44.9439 14.9768 45.1864 14.8746C45.4289 14.7725 45.6485 14.6229 45.8323 14.4346L48.4936 11.7733L50.4936 9.77859L55.1789 14.4613C55.3622 14.6494 55.5817 14.7984 55.8241 14.8992C56.0666 15 56.327 15.0506 56.5896 15.0479C56.8519 15.0488 57.1118 14.9974 57.354 14.8966C57.5962 14.7959 57.8159 14.6479 58.0003 14.4613C58.1985 14.2846 58.3595 14.0701 58.4738 13.8304C58.5881 13.5907 58.6534 13.3306 58.6658 13.0653C58.6782 12.8 58.6375 12.5349 58.5462 12.2856C58.4548 12.0363 58.3145 11.8077 58.1336 11.6133Z" fill="#001081"/>
</svg>
