<svg width="67" height="64" viewBox="0 0 67 64" fill="none" xmlns="http://www.w3.org/2000/svg">
<circle cx="32" cy="32" r="31.5" fill="#A3A3A8" stroke="#F2F2F2"/>
<path fill-rule="evenodd" clip-rule="evenodd" d="M12 56.9815V56.0002C12 48.8205 17.8203 43.0002 25 43.0002H39C46.1797 43.0002 52 48.8205 52 56.0002V56.9815C46.5216 61.3731 39.5676 64 32 64C24.4324 64 17.4784 61.3731 12 56.9815ZM43.9999 28.0001C43.9999 34.6276 38.6273 40.0002 31.9999 40.0002C25.3725 40.0002 19.9999 34.6276 19.9999 28.0001C19.9999 21.3726 25.3725 16 31.9999 16C38.6273 16 43.9999 21.3726 43.9999 28.0001Z" fill="#F2F2F2"/>
<circle cx="54.5" cy="50.5" r="11.5" fill="#001081" stroke="#F2F2F2" stroke-width="2"/>
<path d="M58.5181 44.375C58.241 44.374 57.9664 44.4278 57.7102 44.5334C57.454 44.639 57.2213 44.7943 57.0254 44.9903L49.9589 52.0602L52.9398 55.0422L60.0097 47.9746C60.3043 47.6796 60.5049 47.3038 60.5861 46.8948C60.6673 46.4859 60.6255 46.062 60.4658 45.6768C60.3062 45.2915 60.036 44.9623 59.6893 44.7306C59.3426 44.4989 58.9351 44.3752 58.5181 44.375ZM49.5922 52.689L49.3762 55.2436C49.372 55.2946 49.3789 55.3459 49.3965 55.394C49.4141 55.442 49.4419 55.4857 49.4781 55.5219C49.5143 55.5581 49.558 55.5859 49.606 55.6035C49.6541 55.6211 49.7054 55.628 49.7564 55.6238L52.3099 55.4067L49.5922 52.689Z" fill="white"/>
</svg>
