<svg width="17" height="16" viewBox="0 0 17 16" fill="none" xmlns="http://www.w3.org/2000/svg">
<path fill-rule="evenodd" clip-rule="evenodd" d="M4.5 6C4.78 6 5.03 5.89 5.21 5.71L7.5 3.41V11C7.5 11.55 7.95 12 8.5 12C9.05 12 9.5 11.55 9.5 11V3.41L11.79 5.7C11.97 5.89 12.22 6 12.5 6C13.05 6 13.5 5.55 13.5 5C13.5 4.72 13.39 4.47 13.21 4.29L9.21 0.29C9.03 0.11 8.78 0 8.5 0C8.22 0 7.97 0.11 7.79 0.29L3.79 4.29C3.61 4.47 3.5 4.72 3.5 5C3.5 5.55 3.95 6 4.5 6ZM15.5 11C14.95 11 14.5 11.45 14.5 12V14H2.5V12C2.5 11.45 2.05 11 1.5 11C0.95 11 0.5 11.45 0.5 12V15C0.5 15.55 0.95 16 1.5 16H15.5C16.05 16 16.5 15.55 16.5 15V12C16.5 11.45 16.05 11 15.5 11Z" fill="#000F82"/>
</svg>
