<svg width="18" height="18" viewBox="0 0 18 18" fill="none" xmlns="http://www.w3.org/2000/svg">
<g clip-path="url(#clip0_389_244)">
<path d="M8.99976 3C12.2173 3 14.897 4.82175 16.9985 8.3655L17.1635 8.64975L17.1973 8.72475L17.2198 8.787L17.2303 8.82825L17.2408 8.88975L17.249 8.96475V9.04725L17.2385 9.1305C17.2336 9.15835 17.2271 9.18589 17.219 9.213L17.1898 9.294L17.1628 9.35025L17.1508 9.37275C15.0778 12.9998 12.4258 14.9078 9.23451 14.997L8.99976 15C5.70276 15 2.97201 13.0883 0.848758 9.372C0.78404 9.2587 0.75 9.13048 0.75 9C0.75 8.86952 0.78404 8.7413 0.848758 8.628C2.97201 4.91175 5.70276 3 8.99976 3ZM8.99976 6.75C8.40302 6.75 7.83072 6.98705 7.40877 7.40901C6.98681 7.83097 6.74976 8.40326 6.74976 9C6.74976 9.59674 6.98681 10.169 7.40877 10.591C7.83072 11.0129 8.40302 11.25 8.99976 11.25C9.5965 11.25 10.1688 11.0129 10.5907 10.591C11.0127 10.169 11.2498 9.59674 11.2498 9C11.2498 8.40326 11.0127 7.83097 10.5907 7.40901C10.1688 6.98705 9.5965 6.75 8.99976 6.75Z" fill="white"/>
</g>
<defs>
<clipPath id="clip0_389_244">
<rect width="18" height="18" fill="white"/>
</clipPath>
</defs>
</svg>
