<svg width="22" height="18" viewBox="0 0 22 18" fill="none" xmlns="http://www.w3.org/2000/svg">
<g clip-path="url(#clip0_5_954)">
<path d="M13.5301 6.92999L8.47008 11.07C7.79908 10.521 7.42212 9.77639 7.42212 8.99999C7.42212 8.61556 7.51467 8.23489 7.69448 7.87972C7.87428 7.52455 8.13784 7.20183 8.47008 6.92999C8.80232 6.65816 9.19675 6.44252 9.63085 6.29541C10.065 6.14829 10.5302 6.07257 11.0001 6.07257C11.949 6.07257 12.8591 6.38099 13.5301 6.92999Z" stroke="#001081" stroke-width="1.5" stroke-linecap="round" stroke-linejoin="round"/>
<path d="M16.8201 3.90273C15.0701 2.82273 13.0701 2.23364 11.0001 2.23364C7.47009 2.23364 4.18009 3.93546 1.89009 6.88092C0.990088 8.03455 0.990088 9.97364 1.89009 11.1273C2.68009 12.1418 3.60009 13.0173 4.60009 13.7209M7.42009 15.1609C8.56009 15.5536 9.77009 15.7664 11.0001 15.7664C14.5301 15.7664 17.8201 14.0646 20.1101 11.1191C21.0101 9.96546 21.0101 8.02637 20.1101 6.87273C19.7801 6.44728 19.4201 6.04637 19.0501 5.67001" stroke="#001081" stroke-width="1.5" stroke-linecap="round" stroke-linejoin="round"/>
<path d="M14.51 9.57272C14.3745 10.1435 14.0337 10.6681 13.5312 11.0792C13.0287 11.4903 12.3876 11.7692 11.69 11.88M8.47 11.07L1 17.1818M21 0.818176L13.53 6.92999" stroke="#001081" stroke-width="1.5" stroke-linecap="round" stroke-linejoin="round"/>
</g>
<defs>
<clipPath id="clip0_5_954">
<rect width="22" height="18" fill="white"/>
</clipPath>
</defs>
</svg>
