<svg width="256" height="256" viewBox="0 0 256 256" fill="none" xmlns="http://www.w3.org/2000/svg">
<path d="M172.24 99.76C173.364 100.885 173.995 102.41 173.995 104C173.995 105.59 173.364 107.115 172.24 108.24L116.24 164.24C115.115 165.364 113.59 165.995 112 165.995C110.41 165.995 108.885 165.364 107.76 164.24L83.76 140.24C82.7002 139.103 82.1232 137.598 82.1506 136.044C82.1781 134.489 82.8078 133.006 83.9071 131.907C85.0064 130.808 86.4895 130.178 88.0439 130.151C89.5983 130.123 91.1026 130.7 92.24 131.76L112 151.51L163.76 99.76C164.885 98.6364 166.41 98.0053 168 98.0053C169.59 98.0053 171.115 98.6364 172.24 99.76ZM230 128C230 148.174 224.018 167.894 212.81 184.668C201.602 201.442 185.672 214.516 167.034 222.236C148.396 229.956 127.887 231.976 108.101 228.04C88.3148 224.104 70.1401 214.39 55.8752 200.125C41.6102 185.86 31.8956 167.685 27.9599 147.899C24.0243 128.113 26.0442 107.604 33.7643 88.9663C41.4845 70.3282 54.5581 54.398 71.3319 43.1901C88.1057 31.9822 107.826 26 128 26C155.042 26.0318 180.968 36.7884 200.09 55.9102C219.212 75.032 229.968 100.958 230 128ZM218 128C218 110.2 212.722 92.7991 202.832 77.9987C192.943 63.1983 178.887 51.6627 162.442 44.8508C145.996 38.039 127.9 36.2567 110.442 39.7293C92.9836 43.202 76.9472 51.7737 64.3604 64.3604C51.7737 76.9471 43.202 92.9836 39.7294 110.442C36.2567 127.9 38.039 145.996 44.8509 162.442C51.6628 178.887 63.1983 192.943 77.9987 202.832C92.7991 212.722 110.2 218 128 218C151.861 217.974 174.738 208.483 191.61 191.61C208.483 174.738 217.974 151.861 218 128Z" fill="#58BF96"/>
</svg>
