<svg width="16" height="16" viewBox="0 0 16 16" fill="none" xmlns="http://www.w3.org/2000/svg">
<path fill-rule="evenodd" clip-rule="evenodd" d="M15.5763 13.5813L13.0634 11.0589C13.7222 10.0331 14.1081 8.81894 14.1081 7.52012C14.1081 3.87777 11.1622 0.931885 7.51988 0.931885C3.87752 0.931885 0.931641 3.87777 0.931641 7.52012C0.931641 11.1625 3.87752 14.1084 7.51988 14.1084C8.82811 14.1084 10.0422 13.7131 11.0587 13.0636L13.5811 15.5766C13.8352 15.8307 14.1928 15.9907 14.5787 15.9907C15.3599 15.9907 15.9905 15.3601 15.9905 14.5789C15.9905 14.1931 15.8305 13.8354 15.5763 13.5813ZM7.51988 12.226C4.92223 12.226 2.81399 10.1178 2.81399 7.52012C2.81399 4.92247 4.92223 2.81424 7.51988 2.81424C10.1175 2.81424 12.2258 4.92247 12.2258 7.52012C12.2258 10.1178 10.1175 12.226 7.51988 12.226Z" fill="#A3A3A8"/>
</svg>
