<svg width="16" height="17" viewBox="0 0 16 17" fill="none" xmlns="http://www.w3.org/2000/svg">
<g id="Health/eye" clip-path="url(#clip0_2453_27184)">
<path id="Vector" d="M6.66602 8.49935C6.66602 8.85297 6.80649 9.19211 7.05654 9.44216C7.30659 9.69221 7.64573 9.83268 7.99935 9.83268C8.35297 9.83268 8.69211 9.69221 8.94216 9.44216C9.19221 9.19211 9.33268 8.85297 9.33268 8.49935C9.33268 8.14573 9.19221 7.80659 8.94216 7.55654C8.69211 7.30649 8.35297 7.16602 7.99935 7.16602C7.64573 7.16602 7.30659 7.30649 7.05654 7.55654C6.80649 7.80659 6.66602 8.14573 6.66602 8.49935Z" stroke="#A3A3A8" stroke-width="1.5" stroke-linecap="round" stroke-linejoin="round"/>
<path id="Vector_2" d="M14 8.5C12.4 11.1667 10.4 12.5 8 12.5C5.6 12.5 3.6 11.1667 2 8.5C3.6 5.83333 5.6 4.5 8 4.5C10.4 4.5 12.4 5.83333 14 8.5Z" stroke="#A3A3A8" stroke-width="1.5" stroke-linecap="round" stroke-linejoin="round"/>
</g>
<defs>
<clipPath id="clip0_2453_27184">
<rect width="16" height="16" fill="white" transform="translate(0 0.5)"/>
</clipPath>
</defs>
</svg>
