<svg width="24" height="24" viewBox="0 0 24 24" fill="none" xmlns="http://www.w3.org/2000/svg">
<path d="M12 16C14.2091 16 16 14.2091 16 12C16 9.79086 14.2091 8 12 8C9.79086 8 8 9.79086 8 12C8 14.2091 9.79086 16 12 16Z" stroke="#59595C" stroke-width="1.5"/>
<path d="M15 9L19 5M5 19L9 15M9 9L5 5M19 19L15 15" stroke="#59595C" stroke-width="1.5"/>
<path d="M9.41191 2.33888C11.1072 1.88311 12.8929 1.8838 14.5879 2.34088C19.9229 3.77088 23.0879 9.25388 21.6589 14.5879C20.2289 19.9229 14.7469 23.0879 9.41191 21.6589C4.07691 20.2289 0.911911 14.7469 2.34091 9.41188C2.7924 7.71532 3.68457 6.16834 4.92691 4.92788" stroke="#59595C" stroke-width="1.5" stroke-linecap="round"/>
</svg>
