<svg width="22" height="20" viewBox="0 0 22 20" fill="none" xmlns="http://www.w3.org/2000/svg">
<g clip-path="url(#clip0_5_970)">
<path d="M8.30573 1.71889L3.7324 5.45222C2.96876 6.07444 2.34937 7.39889 2.34937 8.40333V14.99C2.34937 17.0522 3.953 18.7411 5.92149 18.7411H15.7469C17.7154 18.7411 19.3191 17.0522 19.3191 14.9989V8.52778C19.3191 7.45222 18.6318 6.07444 17.7918 5.46111L12.5482 1.61222C11.3603 0.74111 9.45118 0.785554 8.30573 1.71889ZM10.8342 15.1856V12.5189V15.1856Z" fill="#E6EEFF"/>
<path d="M10.8342 15.1856V12.5189M8.30573 1.71889L3.7324 5.45222C2.96876 6.07444 2.34937 7.39889 2.34937 8.40333V14.99C2.34937 17.0522 3.953 18.7411 5.92149 18.7411H15.7469C17.7154 18.7411 19.3191 17.0522 19.3191 14.9989V8.52778C19.3191 7.45222 18.6318 6.07444 17.7918 5.46111L12.5482 1.61222C11.3603 0.74111 9.45118 0.785554 8.30573 1.71889Z" stroke="#001081" stroke-linecap="round" stroke-linejoin="round"/>
</g>
<defs>
<clipPath id="clip0_5_970">
<rect width="21" height="19.8333" fill="white" transform="translate(0.334229 0.0833282)"/>
</clipPath>
</defs>
</svg>
