<svg width="20" height="20" viewBox="0 0 20 20" fill="none" xmlns="http://www.w3.org/2000/svg">
<path d="M8.33268 5.0013H11.666V3.33464H8.33268V5.0013ZM14.9993 19.168C13.8466 19.168 12.8641 18.7616 12.0518 17.9488C11.2396 17.136 10.8332 16.1535 10.8327 15.0013C10.8321 13.8491 11.2385 12.8666 12.0518 12.0538C12.8652 11.241 13.8477 10.8346 14.9993 10.8346C16.151 10.8346 17.1338 11.241 17.9477 12.0538C18.7616 12.8666 19.1677 13.8491 19.166 15.0013C19.1644 16.1535 18.758 17.1363 17.9468 17.9496C17.1357 18.763 16.1532 19.1691 14.9993 19.168ZM3.33268 17.5013C2.87435 17.5013 2.48213 17.3382 2.15602 17.0121C1.8299 16.686 1.66657 16.2935 1.66602 15.8346V6.66797C1.66602 6.20964 1.82935 5.81741 2.15602 5.4913C2.48268 5.16519 2.8749 5.00186 3.33268 5.0013H6.66602V3.33464C6.66602 2.8763 6.82935 2.48408 7.15602 2.15797C7.48268 1.83186 7.8749 1.66852 8.33268 1.66797H11.666C12.1243 1.66797 12.5168 1.8313 12.8435 2.15797C13.1702 2.48464 13.3332 2.87686 13.3327 3.33464V5.0013H16.666C17.1243 5.0013 17.5168 5.16464 17.8435 5.4913C18.1702 5.81797 18.3332 6.21019 18.3327 6.66797V9.08464C18.3327 9.33464 18.2252 9.52214 18.0102 9.64714C17.7952 9.77214 17.5693 9.77908 17.3327 9.66797C16.9716 9.5013 16.5932 9.3763 16.1977 9.29297C15.8021 9.20964 15.4027 9.16797 14.9993 9.16797C13.3882 9.16797 12.0132 9.73741 10.8743 10.8763C9.73546 12.0152 9.16602 13.3902 9.16602 15.0013C9.16602 15.2513 9.18352 15.5049 9.21852 15.7621C9.25352 16.0194 9.30546 16.2727 9.37435 16.5221C9.44379 16.7582 9.40574 16.9805 9.26018 17.1888C9.11463 17.3971 8.92352 17.5013 8.68685 17.5013H3.33268ZM15.416 14.8346V12.918C15.416 12.8069 15.3743 12.7096 15.291 12.6263C15.2077 12.543 15.1105 12.5013 14.9993 12.5013C14.8882 12.5013 14.791 12.543 14.7077 12.6263C14.6243 12.7096 14.5827 12.8069 14.5827 12.918V14.8138C14.5827 14.9249 14.6035 15.0327 14.6452 15.1371C14.6869 15.2416 14.7493 15.3352 14.8327 15.418L16.0827 16.668C16.166 16.7513 16.2632 16.793 16.3743 16.793C16.4855 16.793 16.5827 16.7513 16.666 16.668C16.7493 16.5846 16.791 16.4874 16.791 16.3763C16.791 16.2652 16.7493 16.168 16.666 16.0846L15.416 14.8346Z" fill="black"/>
</svg>
