<svg width="20" height="20" viewBox="0 0 20 20" fill="none" xmlns="http://www.w3.org/2000/svg">
<path d="M3.33399 1.66797V6.66797H1.66732V1.66797H3.33399ZM1.66732 18.3346V13.3346H3.33399V18.3346H1.66732ZM4.16732 10.0013C4.16732 10.9263 3.42565 11.668 2.50065 11.668C2.17102 11.668 1.84878 11.5702 1.5747 11.3871C1.30062 11.2039 1.087 10.9437 0.960853 10.6391C0.834707 10.3346 0.801701 9.99945 0.86601 9.67615C0.930318 9.35285 1.08905 9.05588 1.32214 8.82279C1.55523 8.5897 1.8522 8.43097 2.1755 8.36666C2.4988 8.30235 2.83391 8.33536 3.13846 8.4615C3.443 8.58765 3.7033 8.80127 3.88643 9.07535C4.06957 9.34943 4.16732 9.67167 4.16732 10.0013ZM20.0007 5.0013V15.0013C20.0007 15.9263 19.259 16.668 18.334 16.668H8.33399C7.89196 16.668 7.46804 16.4924 7.15547 16.1798C6.84291 15.8673 6.66732 15.4433 6.66732 15.0013V11.668L5.00065 10.0013L6.66732 8.33464V5.0013C6.66732 4.55927 6.84291 4.13535 7.15547 3.82279C7.46804 3.51023 7.89196 3.33464 8.33399 3.33464H18.334C19.259 3.33464 20.0007 4.0763 20.0007 5.0013Z" fill="black"/>
</svg>
