<svg width="24" height="25" viewBox="0 0 24 25" fill="none" xmlns="http://www.w3.org/2000/svg">
<mask id="mask0_723_61394" style="mask-type:alpha" maskUnits="userSpaceOnUse" x="3" y="6" width="18" height="13">
<path fill-rule="evenodd" clip-rule="evenodd" d="M4 8.36621C3.45 8.36621 3 7.91621 3 7.36621C3 6.81621 3.45 6.36621 4 6.36621H20C20.55 6.36621 21 6.81621 21 7.36621C21 7.91621 20.55 8.36621 20 8.36621H4ZM4 13.3662H20C20.55 13.3662 21 12.9162 21 12.3662C21 11.8162 20.55 11.3662 20 11.3662H4C3.45 11.3662 3 11.8162 3 12.3662C3 12.9162 3.45 13.3662 4 13.3662ZM4 18.3662H20C20.55 18.3662 21 17.9162 21 17.3662C21 16.8162 20.55 16.3662 20 16.3662H4C3.45 16.3662 3 16.8162 3 17.3662C3 17.9162 3.45 18.3662 4 18.3662Z" fill="black"/>
</mask>
<g mask="url(#mask0_723_61394)">
<rect y="0.366211" width="24" height="24" fill="#111111"/>
</g>
</svg>
