<svg width="24" height="25" viewBox="0 0 24 25" fill="none" xmlns="http://www.w3.org/2000/svg">
<g clip-path="url(#clip0_940_6324)">
<path d="M17 11.1724C17 13.9324 14.76 16.1724 12 16.1724C9.24 16.1724 7 13.9324 7 11.1724H5C5 14.7024 7.61 17.6024 11 18.0924V21.1724H13V18.0924C16.39 17.6024 19 14.7024 19 11.1724H17Z" fill="#001081"/>
<path d="M12 14.1724C13.66 14.1724 15 12.8324 15 11.1724V5.17236C15 3.51236 13.66 2.17236 12 2.17236C10.34 2.17236 9 3.51236 9 5.17236V11.1724C9 12.8324 10.34 14.1724 12 14.1724ZM11 5.17236C11 4.62236 11.45 4.17236 12 4.17236C12.55 4.17236 13 4.62236 13 5.17236V11.1724C13 11.7224 12.55 12.1724 12 12.1724C11.45 12.1724 11 11.7224 11 11.1724V5.17236Z" fill="#001081"/>
<path d="M12 14.1724C13.66 14.1724 15 12.8324 15 11.1724V5.17236C15 3.51236 13.66 2.17236 12 2.17236C10.34 2.17236 9 3.51236 9 5.17236V11.1724C9 12.8324 10.34 14.1724 12 14.1724Z" fill="#001081"/>
</g>
<defs>
<clipPath id="clip0_940_6324">
<rect width="24" height="24" fill="white" transform="translate(0 0.172363)"/>
</clipPath>
</defs>
</svg>
