<svg width="22" height="22" viewBox="0 0 22 22" fill="none" xmlns="http://www.w3.org/2000/svg">
<path d="M15.5 6.5H12.5M21 19H13M1 19H9M11 17V14" stroke="#59595C" stroke-width="1.5" stroke-linecap="round"/>
<path d="M11 21C12.1046 21 13 20.1046 13 19C13 17.8954 12.1046 17 11 17C9.89543 17 9 17.8954 9 19C9 20.1046 9.89543 21 11 21Z" stroke="#59595C" stroke-width="1.5"/>
<path d="M4 4.217C4 3.644 4 3.357 4.049 3.118C4.262 2.066 5.149 1.244 6.281 1.045C6.538 1 6.847 1 7.465 1C7.735 1 7.871 1 8.001 1.011C8.561 1.06 9.094 1.265 9.527 1.598C9.627 1.676 9.723 1.765 9.915 1.942L10.3 2.3C10.871 2.83 11.157 3.095 11.498 3.272C11.686 3.369 11.886 3.446 12.092 3.5C12.469 3.6 12.872 3.6 13.68 3.6H13.941C15.784 3.6 16.706 3.6 17.304 4.1C17.359 4.146 17.412 4.195 17.461 4.246C17.9 4.699 17.981 5.35 17.997 6.5M17.994 10.1C17.969 11.712 17.84 12.626 17.18 13.239C16.36 14 15.04 14 12.4 14H9.6C6.96 14 5.64 14 4.82 13.239C4 12.477 4 11.25 4 8.8V7.5" stroke="#59595C" stroke-width="1.5" stroke-linecap="round"/>
</svg>
