<svg width="16" height="16" viewBox="0 0 16 16" fill="none" xmlns="http://www.w3.org/2000/svg">
<path fill-rule="evenodd" clip-rule="evenodd" d="M16 8C16 9.05058 15.7931 10.0909 15.391 11.0615C14.989 12.0321 14.3997 12.914 13.6569 13.6569C12.914 14.3997 12.0321 14.989 11.0615 15.391C10.0909 15.7931 9.05058 16 8 16C6.94943 16 5.90914 15.7931 4.93853 15.391C3.96793 14.989 3.08601 14.3997 2.34315 13.6569C1.60028 12.914 1.011 12.0321 0.608964 11.0615C0.206926 10.0909 -1.56548e-08 9.05058 0 8C3.16163e-08 5.87827 0.842855 3.84344 2.34315 2.34315C3.84344 0.842855 5.87827 0 8 0C10.1217 0 12.1566 0.842855 13.6569 2.34315C15.1571 3.84344 16 5.87827 16 8ZM8 13.3333C7.76425 13.3333 7.53816 13.2397 7.37146 13.073C7.20476 12.9063 7.11111 12.6802 7.11111 12.4444V8.88889H3.55556C3.31981 8.88889 3.09372 8.79524 2.92702 8.62854C2.76032 8.46184 2.66667 8.23575 2.66667 8C2.66667 7.76425 2.76032 7.53816 2.92702 7.37146C3.09372 7.20476 3.31981 7.11111 3.55556 7.11111H7.11111V3.55556C7.11111 3.31981 7.20476 3.09372 7.37146 2.92702C7.53816 2.76032 7.76425 2.66667 8 2.66667C8.23575 2.66667 8.46184 2.76032 8.62854 2.92702C8.79524 3.09372 8.88889 3.31981 8.88889 3.55556V7.11111H12.4444C12.6802 7.11111 12.9063 7.20476 13.073 7.37146C13.2397 7.53816 13.3333 7.76425 13.3333 8C13.3333 8.23575 13.2397 8.46184 13.073 8.62854C12.9063 8.79524 12.6802 8.88889 12.4444 8.88889H8.88889V12.4444C8.88889 12.6802 8.79524 12.9063 8.62854 13.073C8.46184 13.2397 8.23575 13.3333 8 13.3333Z" fill="black"/>
</svg>
