<svg width="21" height="21" viewBox="0 0 21 21" fill="none" xmlns="http://www.w3.org/2000/svg">
<path d="M10.5 0.499998C4.977 0.499998 0.5 4.977 0.5 10.5C0.5 16.023 4.977 20.5 10.5 20.5C16.023 20.5 20.5 16.023 20.5 10.5C20.5 4.977 16.023 0.499998 10.5 0.499998ZM10.5 2.5C12.6217 2.5 14.6566 3.34285 16.1569 4.84314C17.6571 6.34343 18.5 8.37827 18.5 10.5C18.5 12.6217 17.6571 14.6566 16.1569 16.1569C14.6566 17.6571 12.6217 18.5 10.5 18.5C8.37827 18.5 6.34344 17.6571 4.84315 16.1569C3.34286 14.6566 2.5 12.6217 2.5 10.5C2.5 8.37827 3.34286 6.34343 4.84315 4.84314C6.34344 3.34285 8.37827 2.5 10.5 2.5ZM9.5 15.5H11.5V13.5H9.5V15.5ZM9.5 11.5H11.5V5.5H9.5V11.5Z" fill="#F8394A"/>
</svg>
