<svg width="24" height="24" viewBox="0 0 24 24" fill="none" xmlns="http://www.w3.org/2000/svg">
<g opacity="0.6">
<mask id="mask0_1255_33399" style="mask-type:luminance" maskUnits="userSpaceOnUse" x="0" y="0" width="24" height="24">
<path fill-rule="evenodd" clip-rule="evenodd" d="M23.9708 11.9621C23.9708 18.5154 18.6173 23.828 12.0125 23.828C5.40759 23.828 0.0537109 18.5154 0.0537109 11.9621C0.0537109 5.40863 5.40759 0.0957031 12.0125 0.0957031C18.6173 0.0957031 23.9708 5.40863 23.9708 11.9621Z" fill="white"/>
</mask>
<g mask="url(#mask0_1255_33399)">
<path fill-rule="evenodd" clip-rule="evenodd" d="M-5.96387 23.828H29.9116V0.0964355H-5.96387V23.828Z" fill="#006C36"/>
<path fill-rule="evenodd" clip-rule="evenodd" d="M2.98931 6.51864C3.08643 6.54394 3.13874 6.90003 3.18262 7.14933C3.22631 7.39752 3.26756 7.64906 3.38699 7.64403C3.50699 7.63957 3.50699 7.38413 3.59212 7.00478C3.67724 6.62654 3.85368 6.34226 4.04493 6.33371C4.23562 6.32385 4.27593 6.60831 4.27162 6.88013C4.26656 7.15194 4.25437 7.20608 4.23956 7.36347C4.22493 7.52106 4.26074 7.57482 4.32956 7.65092C4.39856 7.72757 4.48349 7.69408 4.49362 7.5484C4.50412 7.40199 4.45012 7.06319 4.43437 6.94729C4.41806 6.83064 4.30256 6.39175 4.29899 6.24608C4.29562 6.09966 4.25699 5.75399 4.34568 5.69985C4.43531 5.64533 4.49531 5.65017 4.59318 5.74319C4.69106 5.8351 4.73662 6.21259 4.75968 6.49575C4.78218 6.7791 4.78218 6.97966 4.83506 7.21799C4.88812 7.45687 4.99143 7.54003 5.06756 7.3845C5.06756 7.3845 4.88456 7.01278 4.84987 6.75919C4.81574 6.50543 4.82906 6.18133 4.97662 6.12217C5.12362 6.06282 5.28731 6.42599 5.33981 6.59882C5.39306 6.77259 5.37918 7.06506 5.34468 7.23194C5.34468 7.23194 5.56406 7.46301 5.66624 7.52794C5.76918 7.59306 5.85974 7.59417 5.90924 7.56254C5.95893 7.53017 5.93062 7.34133 5.89912 7.2338C5.86649 7.12645 5.73262 6.96738 5.67187 6.83026C5.61074 6.69296 5.44106 6.29947 5.64168 6.11231C5.84193 5.92552 6.10199 6.2511 6.14999 6.34059C6.19893 6.42989 6.29062 6.62431 6.23812 6.65854C6.18562 6.69259 6.12881 6.66859 6.10162 6.63771C6.07387 6.60645 6.05981 6.60682 6.07443 6.65129C6.08962 6.69557 6.12262 6.76422 6.12599 6.80087C6.12993 6.83864 6.13837 6.89185 6.17512 6.96515C6.21206 7.03789 6.28781 7.41426 6.29268 7.67417C6.29737 7.93464 5.96587 8.08552 5.81381 8.1378C5.66249 8.19082 5.55074 8.22636 5.40731 8.11343C5.26312 8.0005 5.16581 7.91138 5.07149 7.95678C4.97718 8.00254 4.96931 8.16682 4.98056 8.29185C4.99181 8.41575 5.04993 8.8725 5.03606 9.21743C5.02181 9.5618 4.96837 9.9125 4.82081 10.0081C4.67324 10.1039 4.67512 10.0479 4.66049 9.81408C4.64568 9.57966 4.61531 8.87436 4.60574 8.67808C4.59693 8.48143 4.56506 8.46152 4.50318 8.41575C4.44131 8.36999 4.35712 8.40013 4.25437 8.38152C4.15218 8.3631 3.96318 8.22171 3.94649 8.0498C3.93074 7.87864 3.93862 7.18971 3.94162 7.09557C3.94518 7.00087 3.90543 6.91473 3.82574 7.02878C3.74587 7.14357 3.74156 7.20608 3.73124 7.39175C3.72093 7.57817 3.75056 7.98617 3.59456 8.1378C3.43799 8.28813 3.21018 8.21296 3.10218 8.04143C2.99381 7.87026 2.91487 7.54003 2.92106 7.0498C2.92837 6.55901 2.93043 6.50729 2.98931 6.51864ZM13.5098 6.32053C13.5098 6.43216 13.5614 6.53578 13.5642 6.6422C13.5404 6.62657 13.4367 6.48778 13.4058 6.45039C13.3291 6.35904 13.3156 6.32462 13.5098 6.32053ZM5.59696 9.02992C5.59696 8.82341 5.89434 8.75234 5.89434 9.00369C5.89434 9.09597 5.83153 9.10695 5.76946 9.10174C5.6954 9.09485 5.59696 9.1036 5.59696 9.02992ZM5.34467 16.762C5.34467 16.762 7.33292 16.8355 8.39604 16.8355C9.45917 16.8355 13.6552 16.8671 13.6552 16.8671L16.532 16.882C16.532 16.882 16.1696 16.5592 16.625 16.3719C16.625 16.3719 16.6676 16.4954 16.6805 16.5176C16.6939 16.5401 16.8002 16.5027 16.8388 16.5985C16.8782 16.6941 16.805 16.8238 16.7869 16.8787C16.7869 16.8787 17.2189 16.9012 17.5018 16.9114C17.7842 16.9217 17.7969 16.9561 18.087 16.9285C18.377 16.9012 18.5452 16.8642 18.6829 17.0182C18.819 17.1723 18.9461 17.56 18.8634 17.8457C18.7809 18.131 18.5522 18.165 18.4232 18.147C18.2955 18.1291 18.2306 17.9622 18.2306 17.9622C18.2306 17.9622 17.5924 18.0418 16.8425 17.9732C16.8425 17.9732 16.6492 18.2472 16.5272 17.9754C16.4055 17.7032 16.4464 17.5084 16.4955 17.4299C16.4955 17.4299 10.9869 17.4353 10.3241 17.4402C9.66204 17.4444 7.23579 17.4482 6.96223 17.4482C6.6881 17.4482 5.77685 17.4344 5.34467 16.762ZM16.8767 17.4768C16.8767 17.4768 18.0083 17.4997 18.0939 17.4986C18.1781 17.4973 18.198 17.5728 18.1911 17.6221C18.1841 17.6709 18.1832 17.7254 18.0956 17.7228C18.0083 17.7189 17.7456 17.7144 17.7456 17.7144C17.7456 17.7144 17.7277 17.6084 17.5528 17.6171C17.3779 17.6266 17.3818 17.7287 17.3818 17.7287C17.3109 17.7295 16.8392 17.7338 16.8077 17.6934C16.7876 17.6679 16.7336 17.4856 16.8767 17.4768ZM19.225 11.1004C19.1022 11.1051 19.0088 11.136 19.0353 11.2389C19.0617 11.3414 19.2042 11.3399 19.2123 11.4394C19.2211 11.5389 19.06 11.6476 18.9952 11.688C18.931 11.7298 18.9438 11.8653 19.0747 11.8573C19.2055 11.8496 19.4296 11.7315 19.522 11.6815C19.6135 11.6316 19.6587 11.5976 19.6606 11.5447C19.6636 11.4921 19.5781 11.4878 19.4855 11.4809C19.394 11.4736 19.3598 11.4383 19.4039 11.3682C19.447 11.2969 19.6075 11.0731 19.225 11.1004ZM20.3431 5.92202C20.3037 6.19811 20.3843 6.65448 20.4207 6.92202C20.4582 7.18936 20.6272 8.3955 20.639 8.62397C20.6497 8.85188 20.7226 9.81188 20.7295 9.98341C20.7361 10.1546 20.7886 10.5146 20.701 10.7711C20.6135 11.0277 20.3853 11.2416 20.2763 11.33C20.1661 11.418 19.7755 11.5477 19.648 11.6755C19.5202 11.8039 19.4562 11.9252 19.6381 11.9637C19.8202 12.0029 20.2763 11.9049 20.5505 11.7533C20.8238 11.6029 21.0412 11.2664 21.0961 10.9038C21.1514 10.5401 21.1492 9.48816 21.1308 9.10471C21.113 8.72109 21.0698 8.00518 21.0402 7.70397C21.0106 7.40276 20.8977 6.76388 20.8732 6.64983C20.8477 6.53578 20.8838 6.53392 20.945 6.53057C21.0057 6.52834 21.1276 6.52667 21.0676 6.40443C21.0087 6.28202 20.7443 5.87439 20.6823 5.81039C20.6204 5.74639 20.587 5.68109 20.5681 5.63532C20.5505 5.58992 20.518 5.51309 20.4592 5.6076C20.3999 5.70285 20.3549 5.8489 20.3431 5.92202ZM19.8288 6.2236C19.763 6.29113 19.7885 6.41467 19.8554 6.56983C19.9233 6.72499 20.0482 6.84127 20.0352 6.95216C20.0176 7.10546 19.9898 7.37429 20.0577 7.32499C20.1256 7.27513 20.2428 7.05671 20.2349 6.83104C20.2272 6.60555 20.1061 6.02229 19.8288 6.2236ZM17.1263 7.86564C17.2227 8.01616 17.486 8.28164 17.6857 8.35662C17.8842 8.43253 17.7987 8.08983 17.8036 7.90713C17.8087 7.72462 17.8143 7.63271 17.9189 7.65336C18.0222 7.67383 18.0507 7.65634 18.0378 7.55271C18.026 7.4489 17.9984 7.17522 17.7927 7.17522C17.5867 7.17522 17.5529 7.30453 17.5649 7.38192C17.5767 7.45969 17.6247 7.58155 17.542 7.60611C17.4586 7.62974 17.4498 7.54992 17.3898 7.48481C17.3298 7.4195 17.2297 7.42564 17.135 7.48592C17.0416 7.54657 17.0388 7.75736 17.1263 7.86564ZM18.1889 8.43829C18.0663 8.53541 17.4616 8.94732 17.3663 9.02732C17.2707 9.10695 17.2807 9.2102 17.2846 9.28574C17.2885 9.36053 17.2677 9.43141 17.4055 9.36667C17.543 9.30174 18.1795 8.85392 18.2767 8.7756C18.373 8.69634 18.3612 8.53541 18.3562 8.4729C18.3524 8.41002 18.326 8.33653 18.1889 8.43829ZM18.0357 9.08518C17.963 9.14806 17.9785 9.27216 18.0329 9.43253C18.0888 9.59271 18.1882 9.73299 18.1664 9.84276C18.1372 9.9942 18.1418 10.2072 18.2137 10.1637C18.2855 10.1192 18.3955 9.94769 18.4062 9.72202C18.4171 9.49653 18.3269 8.90713 18.0357 9.08518ZM16.3773 10.9376C16.4669 11.1562 16.5241 11.2941 16.7037 11.3194C16.8833 11.3442 17.011 10.9484 17.0585 10.8301C17.1055 10.7116 17.2797 10.3482 17.4003 10.1923C17.5214 10.0372 17.6768 9.94155 17.8077 10.0936C17.9392 10.2454 18.0927 10.6364 18.3376 10.6076C18.5827 10.5789 18.6367 9.92164 18.616 9.64295C18.5952 9.36425 18.4793 7.56443 18.4793 7.56443C18.4793 7.56443 17.7644 6.65243 17.6493 6.51327C17.5343 6.37374 17.497 6.37039 17.497 6.10806C17.497 5.84536 17.494 5.7222 17.5128 5.62136C17.5313 5.52146 17.6043 5.57429 17.665 5.62099C17.7262 5.66788 17.8998 5.82099 18.0007 5.92016C18.0997 6.01895 18.2697 6.18099 18.2345 6.23922C18.1981 6.29727 18.1223 6.24927 18.1064 6.31122C18.0899 6.37299 18.31 6.56109 18.31 6.56109C18.31 6.56109 18.2452 5.95141 18.2345 5.84629C18.2227 5.74136 18.313 5.62006 18.3622 5.57318C18.4124 5.52629 18.4439 5.51904 18.5067 5.60983C18.5707 5.69988 18.919 6.3475 18.9575 6.43067C18.9959 6.5142 18.979 6.59271 18.9468 6.61169C18.9143 6.6316 18.8733 6.60871 18.8444 6.58397C18.818 6.5596 18.7687 6.53895 18.7846 6.61318C18.8003 6.6876 18.8219 6.97616 18.821 7.07681C18.8202 7.17709 18.8365 7.31178 18.8602 7.34341C18.8828 7.37578 19.3628 8.07569 19.3628 8.07569C19.3628 8.07569 19.2567 7.29616 19.2083 7.02955C19.1602 6.76239 19.0462 6.25634 19.0323 6.06695C19.0184 5.87755 19.0077 5.7836 19.1071 5.67811C19.2072 5.57392 19.3128 5.48518 19.3763 5.5916C19.4414 5.6982 19.6027 6.0182 19.6733 6.23271C19.7431 6.44741 19.7562 6.51978 19.7797 6.60406C19.8023 6.68834 19.7401 6.71513 19.6844 6.7196C19.6272 6.72388 19.5987 6.73076 19.6057 6.79327C19.6126 6.85653 19.7393 7.63011 19.8063 8.00016C19.8719 8.37002 19.9173 8.90341 19.9173 8.90341C19.9173 8.90341 20.2664 9.35476 20.3793 9.54918C20.4933 9.74285 20.6243 9.87941 20.6519 10.0826C20.6793 10.2857 20.69 10.4982 20.6575 10.6578C20.6253 10.818 20.6065 10.7628 20.5585 10.6789C20.5102 10.5938 19.9745 9.71662 19.9745 9.71662C19.9745 9.71662 19.9792 10.2171 19.9722 10.3261C19.9653 10.4357 19.7266 10.7696 19.639 10.847C19.5517 10.9241 19.5387 10.9442 19.5466 10.8122C19.5545 10.6792 19.522 9.67048 19.5151 9.52016C19.5083 9.3689 19.4757 8.94006 19.4757 8.94006L19.0332 8.31774C19.0332 8.31774 19.0638 9.45969 19.0657 9.7955C19.0677 10.1306 19.1423 10.8145 18.7508 11.0474C18.3601 11.28 18.2313 11.2003 18.02 11.0768C17.8077 10.954 17.6868 10.7112 17.558 10.741C17.4293 10.7704 17.3425 10.9339 17.3069 11.1404C17.2717 11.3471 17.1725 11.8536 16.9102 11.8722C16.6477 11.89 16.4037 11.6781 16.2498 11.4223C16.096 11.1661 15.9798 10.5328 16.3158 10.1334C16.2798 10.4013 16.2734 10.6829 16.3773 10.9376ZM16.042 5.82639C15.9905 6.0396 15.9406 6.19085 15.9552 6.44313C15.9706 6.69523 16.0769 7.11718 16.1125 7.29541C16.148 7.47327 16.3051 8.35178 16.3304 8.50806C16.3557 8.66471 16.453 9.42416 16.4693 9.53671C16.4849 9.6502 16.5177 10.1992 16.5241 10.3445C16.5295 10.4895 16.5265 10.829 16.5265 10.9151C16.5265 11.0005 16.5389 10.9892 16.5865 10.9626C16.6334 10.9365 16.7322 10.8256 16.8162 10.5957C16.9002 10.3646 16.9012 10.28 16.9042 10.1702C16.9077 10.0608 16.8678 9.3795 16.8492 9.22136C16.8307 9.06397 16.7082 8.13336 16.6852 7.92127C16.6621 7.70936 16.5526 7.00704 16.5226 6.86788C16.4922 6.72834 16.4969 6.67532 16.561 6.66936C16.6257 6.66397 16.727 6.71085 16.7519 6.65448C16.7774 6.59885 16.6559 6.42155 16.618 6.3423C16.5802 6.26397 16.3728 5.93318 16.3242 5.86174C16.2758 5.78936 16.2395 5.68871 16.2164 5.63383C16.1933 5.5782 16.1761 5.5503 16.1223 5.62434C16.0675 5.69857 16.06 5.77188 16.042 5.82639ZM15.3183 5.73374C15.1917 6.00741 15.16 6.20797 15.2056 6.58267C15.2513 6.95718 15.3608 7.85764 15.4047 8.44667C15.4484 9.03569 15.5257 9.8156 15.5487 10.0822C15.5718 10.3497 15.5795 10.5408 15.4595 10.6742C15.3398 10.8074 15.0826 11.0495 14.9305 11.1607C14.7788 11.2729 14.4803 11.4764 14.3105 11.5488C14.1404 11.6204 14.1363 11.632 14.1882 11.7058C14.24 11.7806 14.3215 11.9492 14.6324 11.9183C14.9431 11.887 15.3123 11.5843 15.4857 11.3224C15.6593 11.0616 15.7777 10.847 15.8684 10.5981C15.9595 10.3497 15.9145 9.89541 15.9145 9.69448C15.9145 9.49355 15.9087 8.98992 15.8787 8.62248C15.8493 8.25485 15.7853 7.64109 15.7411 7.44053C15.6974 7.2396 15.6485 6.97095 15.6374 6.85764C15.6256 6.74509 15.6151 6.67997 15.6914 6.66936C15.7675 6.6582 15.8384 6.6342 15.8272 6.55123C15.8163 6.46769 15.7548 6.29188 15.7032 6.15532C15.6511 6.0182 15.5296 5.80741 15.4778 5.7036C15.4263 5.59997 15.3963 5.59029 15.3183 5.73374ZM14.4475 5.70676C14.3823 5.76536 14.3808 5.87662 14.4788 6.01169C14.5775 6.14732 14.6851 6.2556 14.6662 6.39513C14.6468 6.53467 14.6568 6.73671 14.7233 6.69634C14.7901 6.65523 14.9212 6.34229 14.9075 6.13374C14.894 5.92555 14.7202 5.54229 14.4475 5.70676ZM14.3894 7.24648C14.3909 7.37988 14.4273 7.59309 14.7395 7.58992C15.0507 7.58657 15.1064 7.38341 15.097 7.2476C15.088 7.11123 15.0704 7.06695 15.0023 7.06434C14.9347 7.06192 14.9105 7.11532 14.9086 7.16797C14.9071 7.22025 14.9103 7.25988 14.8683 7.26062C14.8267 7.26211 14.8163 7.21039 14.8173 7.16257C14.8182 7.11457 14.7869 7.07755 14.746 7.07848C14.7046 7.07997 14.684 7.13448 14.683 7.17411C14.6825 7.21336 14.6615 7.24034 14.6307 7.23774C14.6005 7.23625 14.578 7.22602 14.5681 7.15774C14.5587 7.08909 14.5297 7.08071 14.4978 7.0783C14.4663 7.07681 14.3984 7.1142 14.3894 7.24648ZM13.8935 11.2199C13.8935 11.2199 13.9737 8.78862 13.7573 7.72462C13.7573 7.72462 13.1761 6.88555 12.9646 6.61169C12.7527 6.33764 12.5384 6.10657 12.5266 5.87792C12.5153 5.64983 12.5198 5.4623 12.6556 5.48518C12.7917 5.50843 12.943 5.62043 13.0769 5.73225C13.21 5.84388 13.3762 5.9689 13.4474 6.10732C13.4474 6.10732 13.4212 5.82639 13.4903 5.70639C13.5592 5.5862 13.6053 5.48146 13.688 5.58881C13.771 5.69597 13.9398 5.93616 14.0324 6.07792C14.1256 6.2195 14.215 6.39941 14.2542 6.56592C14.293 6.73262 14.267 6.74527 14.233 6.71774C14.1987 6.68983 14.1447 6.65523 14.1335 6.69709C14.1226 6.73802 14.156 6.97467 14.1757 7.11271C14.1953 7.25076 14.2319 7.64109 14.2319 7.64109C14.2319 7.64109 14.5182 8.06267 14.7185 8.40313C14.9183 8.74323 15.235 9.29616 15.325 9.47681C15.4147 9.65709 15.421 9.68499 15.4402 9.81876C15.46 9.95253 15.4501 10.2861 15.4328 10.3708C15.4154 10.455 15.3948 10.5248 15.3269 10.4013C15.259 10.2777 14.4687 8.79774 14.303 8.58081C14.303 8.58081 14.3408 9.73002 14.357 9.94955C14.3733 10.1687 14.363 10.6883 14.2737 10.8614C14.1835 11.0349 14.0678 11.2015 13.8935 11.2199ZM12.7342 10.9896C12.6132 11.1004 12.5693 11.1531 12.5978 11.2156C12.6269 11.2785 12.7158 11.234 12.7583 11.2232C12.8003 11.2126 12.866 11.2575 12.8557 11.3656C12.8452 11.4738 12.8798 11.6178 12.9785 11.5877C13.0773 11.5583 13.226 11.4889 13.385 11.4292C13.5434 11.37 13.5828 11.3667 13.6499 11.354C13.7185 11.3414 13.7063 11.1871 13.609 11.1691C13.5113 11.1505 13.4026 11.1829 13.304 11.2145C13.2052 11.2469 13.1437 11.3399 13.0788 11.2828C13.0139 11.2256 13.0218 11.1546 13.037 11.0792C13.0518 11.0037 13.1073 10.9388 13.0381 10.8911C12.9693 10.8431 12.8506 10.8733 12.7342 10.9896ZM10.9432 8.27402C10.9441 8.40704 10.981 8.62081 11.2927 8.61746C11.6047 8.61374 11.66 8.41113 11.6504 8.27476C11.6412 8.13857 11.6242 8.09429 11.5561 8.09206C11.4882 8.08983 11.4642 8.14248 11.4622 8.19513C11.4605 8.2476 11.4633 8.28723 11.4218 8.28816C11.3806 8.28927 11.3697 8.23811 11.371 8.18974C11.3718 8.14211 11.3403 8.10509 11.2994 8.1062C11.2585 8.10769 11.237 8.1622 11.2368 8.20146C11.236 8.24071 11.2148 8.26713 11.1845 8.2649C11.1539 8.2636 11.1314 8.25336 11.1215 8.18509C11.1119 8.11643 11.0828 8.10769 11.0512 8.10546C11.0197 8.10397 10.9516 8.14174 10.9432 8.27402ZM8.40065 9.84667C8.38715 9.85764 8.14996 10.0249 8.04628 10.5836C8.04628 10.5836 7.25428 11.0761 6.8834 11.3136C6.5129 11.5507 6.37228 11.6999 6.39628 11.7581C6.42065 11.8165 6.87815 11.6815 7.15884 11.5851C7.44009 11.4896 7.98496 11.2645 7.98496 11.2645C7.98496 11.2645 8.07534 11.7533 8.55965 11.8359C9.04415 11.9179 9.44521 11.6208 9.69909 11.378C9.95353 11.1349 10.1343 10.8842 10.222 10.7845C10.3094 10.6857 10.3807 10.704 10.414 10.7871C10.4474 10.8707 10.6364 11.1734 11.0517 11.3823C11.4674 11.5912 12.064 11.6567 12.119 11.6517C12.1745 11.6472 12.2468 11.4909 12.2598 11.4349C12.2725 11.3791 12.2637 11.3025 12.1595 11.2493C12.0562 11.1955 11.7443 11.0807 11.6903 10.9427C11.6363 10.8054 11.7288 10.6567 11.8486 10.5957C11.968 10.5336 12.2815 10.5237 12.4572 10.495C12.6335 10.4666 13.3522 10.3445 13.5327 10.25C13.5327 10.25 13.5944 9.83625 13.7532 9.64648C13.7532 9.64648 13.7813 9.62099 13.7941 9.6063C13.808 9.59085 13.802 9.5836 13.7825 9.57095C13.7632 9.55792 13.7401 9.54043 13.6807 9.53653C13.6214 9.53318 12.8527 9.52797 12.649 9.52629C12.4456 9.52332 12.0543 9.52518 11.9772 9.52518C11.8998 9.52518 11.8688 9.45616 11.953 9.44276C12.037 9.42955 12.3685 9.3955 12.685 9.25299C13.001 9.11011 13.1264 8.85467 13.1637 8.63532C13.2003 8.41578 13.1395 8.10695 12.8997 7.98378C12.6603 7.86025 12.3781 7.82341 12.1827 8.05429C11.987 8.28462 12.0125 8.59383 12.0218 8.70899C12.031 8.82453 12.013 8.8755 11.8107 8.89988C11.6078 8.92481 11.1265 9.07681 10.8998 9.24723C10.6726 9.41727 10.6334 9.4943 10.6032 9.56257C10.5732 9.6316 10.577 9.63923 10.5423 9.62099C10.5078 9.60257 10.4705 9.55346 10.4699 9.47941C10.4686 9.40518 10.3938 8.83253 10.2925 8.54657C10.1915 8.26174 10.105 8.10118 10.0634 8.02229C10.0216 7.94341 9.95371 7.90118 9.90684 7.85578C9.8594 7.81002 9.84553 7.84574 9.8099 7.8755C9.77428 7.9049 9.65596 7.94695 9.64978 8.15811C9.64434 8.36964 9.74428 8.54267 9.77765 8.63271C9.8114 8.72313 10.0643 9.26862 10.0827 9.72797C10.1015 10.1869 10.0666 10.1909 9.87384 10.4768C9.67996 10.7616 9.18646 11.1486 9.03909 11.2175C8.89171 11.2857 8.4524 11.3609 8.43403 10.9819C8.43403 10.9819 8.8964 10.7349 9.26634 10.274C9.63665 9.81299 9.60046 9.49095 9.58865 9.36053C9.57721 9.23048 9.49771 8.83253 9.3644 8.69783C9.3644 8.69783 9.42834 8.70862 9.48928 8.72648C9.55021 8.74509 9.63196 8.7715 9.58715 8.64983C9.54234 8.52909 9.40565 8.17895 9.18459 8.08983C8.96296 8.00053 8.80003 8.19476 8.79309 8.37764C8.78634 8.55978 8.76309 8.66788 8.92246 8.82936C9.08071 8.99029 9.21253 9.15457 9.22771 9.35067C9.24253 9.54657 9.12084 9.7155 8.96728 9.85225C8.81296 9.98918 8.36803 10.3518 8.36803 10.3518C8.36803 10.3518 8.35753 9.98118 8.40065 9.84667ZM10.8723 9.94453C11.0791 9.99067 11.4322 10.0167 11.5717 10.023C11.711 10.0307 11.8698 10.1566 11.6797 10.2428C11.4905 10.3282 11.2947 10.3884 11.2979 10.5691C11.3017 10.7494 11.3333 10.8383 11.2803 10.8809C11.2276 10.9233 11.0605 10.8282 10.8938 10.6731C10.7275 10.5179 10.6295 10.2984 10.6132 10.1629C10.5972 10.0273 10.657 9.89913 10.8723 9.94453ZM12.3702 8.49132C12.34 8.52834 12.3753 8.61671 12.4589 8.66062C12.542 8.70471 12.6172 8.7036 12.6562 8.66825C12.6953 8.63383 12.6348 8.56295 12.5828 8.52555C12.5307 8.48816 12.4156 8.44369 12.3702 8.49132ZM7.58625 9.73334C7.7085 9.85222 7.77844 9.92962 7.77581 10.0478C7.77394 10.1653 7.72687 10.3289 7.78687 10.3456C7.84669 10.3612 7.97587 10.0952 7.96631 9.95399C7.95581 9.81222 7.88756 9.60906 7.78312 9.54376C7.67869 9.47864 7.40212 9.55529 7.58625 9.73334ZM3.08653 10.8936C3.09403 11.1927 3.11371 11.3114 3.16565 11.314C3.2174 11.3159 3.26746 11.2217 3.30778 11.1637C3.34865 11.1058 3.44165 11.2 3.46021 11.2682C3.4784 11.3369 3.44784 11.5347 3.37771 11.6502C3.3074 11.7665 3.07003 11.9332 2.89059 11.6335C2.71059 11.335 2.86978 10.7959 2.91121 10.6545C2.95246 10.5125 3.06853 10.3345 3.10059 10.2969C3.13246 10.2591 3.15796 10.242 3.13978 10.3559C3.1214 10.4692 3.08803 10.7769 3.08653 10.8936ZM3.01828 9.61318L4.53834 8.88202C4.53834 8.88202 4.53028 8.65336 4.30359 8.6396C4.0769 8.62583 3.7499 8.76034 3.47259 8.97578C3.19528 9.1916 3.02915 9.44443 3.01828 9.61318ZM10.5085 5.68257C10.4697 5.88313 10.3973 6.23625 10.5061 6.26936C10.6139 6.30248 10.7332 5.96927 10.7765 5.78527C10.8187 5.60183 10.8023 5.47755 10.7155 5.45002C10.628 5.42229 10.5438 5.54918 10.5085 5.68257ZM8.9324 7.43178C9.08184 7.67885 9.15871 7.74471 9.24215 7.76164C9.32446 7.77802 9.33646 7.76611 9.36646 7.76685C9.39646 7.76797 9.41034 7.78974 9.48684 7.75327C9.5639 7.71699 9.65109 7.62136 9.72684 7.36016C9.8024 7.09857 9.79378 7.02304 9.8324 6.92741C9.87178 6.83104 9.97509 6.75327 9.9779 6.85225C9.98015 6.95178 9.91096 7.6262 10.2307 7.86136C10.5502 8.09597 10.8359 7.90713 10.9028 7.85002C10.9694 7.79234 11.1323 7.62657 11.1875 7.57169C11.2426 7.51718 11.3817 7.45169 11.4633 7.58657C11.5454 7.72183 11.6185 7.9075 11.8855 7.88704C12.1525 7.86639 12.2393 7.81913 12.3093 7.70471C12.3796 7.59048 12.4201 7.49467 12.4752 7.42881C12.5307 7.36276 12.6059 7.35941 12.6438 7.37429C12.6815 7.38918 12.6796 7.42155 12.6575 7.45504C12.6353 7.49002 12.5975 7.59234 12.6565 7.62899C12.7148 7.66546 12.8257 7.62974 12.8866 7.56481C12.9475 7.49969 13.0458 7.38564 13.1195 7.17262C13.1928 6.96053 13.0619 6.98118 12.9893 7.02695C12.917 7.07271 12.8003 7.16685 12.6421 7.14657C12.4829 7.12574 12.4435 6.97467 12.4135 6.82378C12.3835 6.67383 12.3427 6.49727 12.3059 6.42155C12.2692 6.34639 12.2647 6.2755 12.2898 6.2396C12.314 6.2035 12.4019 6.26974 12.481 6.21374C12.5605 6.15774 12.5245 6.03569 12.4844 5.95439C12.4441 5.87327 12.2847 5.58992 12.1353 5.55718C11.9857 5.52332 11.8244 5.60518 11.7783 5.73374C11.7327 5.8623 11.7091 6.04443 11.7563 6.2022C11.8028 6.35941 11.9382 6.44276 12.0271 6.72983C12.1158 7.01746 12.0929 7.16685 12.0093 7.23848C11.9255 7.31048 11.7091 7.3609 11.6358 7.24536C11.5623 7.12983 11.4908 6.92053 11.477 6.6982C11.4633 6.47495 11.4498 5.8195 11.3778 5.66099C11.3054 5.50267 11.2878 5.39513 11.2205 5.40443C11.152 5.41318 11.0671 5.55271 11.0026 5.71011C10.9385 5.8675 10.9257 5.91327 11.0103 6.14136C11.096 6.37002 11.119 6.60946 11.1074 6.84704C11.096 7.08443 11.0356 7.14974 10.9169 7.26527C10.7984 7.38062 10.6064 7.41913 10.45 7.24164C10.2933 7.06323 10.339 6.72109 10.3385 6.63532C10.3373 6.54992 10.3698 6.06155 10.27 5.97057C10.1699 5.87904 10.0642 5.85392 9.89484 6.06155C9.72609 6.26936 9.62503 6.46992 9.53296 6.74509C9.4409 7.02006 9.41409 7.26248 9.31415 7.26602C9.21403 7.26936 9.12984 7.0102 9.09065 6.78527C9.05184 6.56034 8.99728 6.29653 8.97384 6.17988C8.95115 6.0636 8.88553 5.98341 8.83584 6.12648C8.70309 6.50918 8.72371 7.08909 8.9324 7.43178ZM8.23546 7.25671C8.20228 7.34527 8.20228 7.41913 8.21971 7.49002C8.23809 7.55997 8.29959 7.59643 8.36634 7.54434C8.43403 7.49243 8.50246 7.43439 8.54146 7.4582C8.58046 7.4822 8.47059 7.7436 8.33259 7.78788C8.19496 7.8329 7.96209 7.83364 7.92646 7.59309C7.89103 7.35216 8.01196 7.22322 8.11771 7.16071C8.22328 7.09746 8.27728 7.15662 8.23546 7.25671ZM9.43115 5.44406C9.32896 5.52481 9.22771 5.61597 9.19246 5.80927C9.15628 6.00183 9.17803 6.01671 9.20371 6.04816C9.22865 6.07885 9.2564 6.10081 9.27159 6.1196C9.28603 6.1382 9.35803 6.14732 9.44146 6.10192C9.52453 6.05597 9.55209 5.99978 9.56953 5.93653C9.58678 5.87439 9.54234 5.88499 9.49921 5.8995C9.45646 5.91476 9.41746 5.90918 9.40078 5.84741C9.3839 5.78639 9.4184 5.70397 9.47803 5.63048C9.53765 5.55755 9.58078 5.53504 9.57871 5.47067C9.57721 5.40629 9.54778 5.35253 9.43115 5.44406ZM8.11565 6.42881C7.91296 6.59811 7.24284 7.14118 7.17178 7.19774C7.10071 7.25485 7.15003 7.2675 7.2164 7.26825C7.28296 7.27011 7.5734 7.27253 7.65478 7.2675C7.73634 7.26174 7.78153 7.21802 7.85934 7.15346C7.93753 7.08834 8.57334 6.39829 8.61478 6.35364C8.65603 6.30936 8.63203 6.31402 8.60184 6.2889C8.57184 6.2636 8.52778 6.23271 8.50846 6.20685C8.4899 6.18099 8.4824 6.1596 8.52646 6.12332C8.57034 6.08723 8.66409 6.02843 8.64796 5.88239C8.63128 5.73709 8.61665 5.6156 8.34384 5.60983C8.0714 5.60443 8.02284 5.83216 8.02059 5.91792C8.01834 6.00406 8.03203 6.08592 8.13346 6.14434C8.2349 6.20239 8.25571 6.29485 8.21653 6.33411C8.17771 6.37467 8.11565 6.42881 8.11565 6.42881ZM8.26884 6.05206C8.32059 6.10695 8.3699 6.13132 8.41378 6.10397C8.4569 6.07681 8.44978 6.00909 8.41003 5.96164C8.37065 5.91364 8.30353 5.85225 8.25328 5.90416C8.20265 5.95569 8.24484 6.01895 8.26884 6.05206ZM6.65653 5.76462C6.76265 5.92555 6.95109 6.4809 6.9899 6.57671C7.02928 6.67271 7.0199 6.70583 6.95653 6.72797C6.89334 6.74936 6.85321 6.73411 6.79753 6.72499C6.74259 6.71625 6.73471 6.71774 6.74259 6.77802C6.75084 6.83867 6.84515 7.5622 6.87553 7.77653C6.90478 7.99141 6.96815 8.43532 6.96815 8.43532C6.96815 8.43532 7.11478 8.32722 7.22371 8.37764C7.33246 8.42843 7.30303 8.57243 7.30303 8.62248C7.30303 8.67309 7.3094 8.72462 7.43728 8.72946C7.56459 8.73374 7.60828 8.67811 7.63828 8.6022C7.66828 8.52704 7.77403 8.31848 7.90734 8.33113C8.04065 8.34341 8.07009 8.47718 8.09071 8.52704C8.11096 8.57709 8.11153 8.61485 8.18728 8.61243C8.26359 8.60983 8.25703 8.54955 8.26884 8.46378C8.28196 8.37839 8.26565 8.31048 8.37215 8.26453C8.4794 8.21876 8.58534 8.19309 8.58534 8.19309C8.58534 8.19309 8.54146 8.85988 8.49309 8.99216C8.44471 9.12481 8.27428 9.22509 8.09484 9.21076C7.91521 9.19736 7.86346 9.08946 7.78509 9.10174C7.70634 9.1142 7.62646 9.24797 7.49184 9.29727C7.35703 9.34639 7.19034 9.36555 7.0814 9.2915C6.97209 9.21746 6.94153 9.2035 6.95428 9.27885C6.9674 9.35439 7.05384 9.96202 6.92896 10.4139C6.80503 10.8656 6.27946 11.5516 5.51971 11.7432C4.76071 11.935 4.17065 11.9086 3.87609 11.3652C3.58171 10.8225 3.82209 10.1791 3.86596 10.1019C3.90965 10.0242 4.03846 9.95141 4.06846 10.1909C4.09846 10.4303 4.08234 10.8482 4.26628 11.0452C4.45003 11.2415 4.88165 11.4433 5.57634 11.1734C6.27103 10.9042 6.46565 10.2889 6.52078 10.1272C6.5759 9.96518 6.63984 9.54843 6.64209 9.43718C6.64415 9.32499 6.50765 9.26713 6.47653 9.47829C6.44559 9.68946 6.36046 10.1092 6.06796 10.4742C5.77603 10.8398 5.48615 11.0136 5.0399 11.0296C4.59365 11.0452 4.30734 10.7451 4.19446 10.4437C4.08121 10.1421 4.16296 9.7235 4.18603 9.63681C4.20909 9.54992 4.24603 9.32853 4.35215 9.3315C4.45828 9.33411 4.47796 9.63457 4.48734 9.7836C4.49671 9.93355 4.49353 10.2969 4.7429 10.3994C4.99284 10.5027 5.38715 10.3853 5.65846 10.1901C5.92996 9.99495 6.06384 9.83327 6.12496 9.65895C6.1859 9.48406 6.18234 9.44276 6.1604 9.42118C6.13865 9.39978 6.05128 9.46695 5.96034 9.52518C5.86921 9.5836 5.6324 9.66471 5.47003 9.5836C5.30784 9.50267 5.25028 9.40388 5.27203 9.05671C5.29359 8.70936 5.44509 8.49206 5.69596 8.38602C5.94646 8.2796 6.16284 8.47067 6.23315 8.55383C6.30346 8.63736 6.40809 8.7929 6.50503 8.71774C6.6014 8.64257 6.6014 8.58657 6.56934 8.35774C6.53746 8.12983 6.41053 7.35625 6.38503 7.17523C6.36009 6.99532 6.23053 6.21523 6.20503 6.04071C6.18009 5.86564 6.23953 5.79774 6.30346 5.74099C6.36834 5.6835 6.57553 5.58881 6.65653 5.76462ZM5.01636 5.78977C5.01729 5.92335 5.05479 6.13712 5.36642 6.13303C5.67823 6.12986 5.73336 5.9267 5.72398 5.79126C5.71498 5.65526 5.69736 5.61024 5.62948 5.60763C5.56179 5.60559 5.53761 5.65861 5.53554 5.71126C5.53367 5.76391 5.53667 5.80354 5.49523 5.80428C5.45379 5.8054 5.44311 5.75405 5.44423 5.70586C5.44592 5.65824 5.41367 5.62103 5.37242 5.62252C5.33192 5.62326 5.31092 5.67814 5.30998 5.7174C5.30942 5.7574 5.28823 5.78363 5.25786 5.7814C5.22729 5.77954 5.20517 5.76931 5.19486 5.70103C5.18511 5.63275 5.15661 5.624 5.12473 5.62177C5.09323 5.62047 5.02517 5.65749 5.01636 5.78977ZM3.3644 5.58881C3.30928 5.63811 3.30778 5.73113 3.39103 5.84592C3.47353 5.96016 3.56484 6.05132 3.54871 6.16871C3.53259 6.28611 3.54028 6.45616 3.5969 6.42229C3.65353 6.38788 3.76359 6.12443 3.75234 5.94843C3.74053 5.77262 3.59409 5.45039 3.3644 5.58881Z" fill="white"/>
</g>
</g>
</svg>
