<svg width="24" height="25" viewBox="0 0 24 25" fill="none" xmlns="http://www.w3.org/2000/svg">
<g clip-path="url(#clip0_389_277)">
<path d="M10.325 4.70738C10.751 2.95138 13.249 2.95138 13.675 4.70738C13.7389 4.97118 13.8642 5.21616 14.0407 5.42238C14.2172 5.6286 14.4399 5.79024 14.6907 5.89413C14.9414 5.99802 15.2132 6.04123 15.4838 6.02025C15.7544 5.99927 16.0162 5.91468 16.248 5.77338C17.791 4.83338 19.558 6.59938 18.618 8.14338C18.4769 8.37504 18.3924 8.63672 18.3715 8.90715C18.3506 9.17759 18.3938 9.44915 18.4975 9.69976C18.6013 9.95037 18.7627 10.173 18.9687 10.3494C19.1747 10.5259 19.4194 10.6513 19.683 10.7154C21.439 11.1414 21.439 13.6394 19.683 14.0654C19.4192 14.1293 19.1742 14.2546 18.968 14.4311C18.7618 14.6076 18.6001 14.8303 18.4963 15.081C18.3924 15.3318 18.3491 15.6035 18.3701 15.8742C18.3911 16.1448 18.4757 16.4066 18.617 16.6384C19.557 18.1814 17.791 19.9484 16.247 19.0084C16.0153 18.8673 15.7537 18.7828 15.4832 18.7619C15.2128 18.741 14.9412 18.7841 14.6906 18.8879C14.44 18.9917 14.2174 19.1531 14.0409 19.3591C13.8645 19.5651 13.7391 19.8098 13.675 20.0734C13.249 21.8294 10.751 21.8294 10.325 20.0734C10.2611 19.8096 10.1358 19.5646 9.95929 19.3584C9.7828 19.1522 9.56011 18.9905 9.30935 18.8866C9.05859 18.7827 8.78683 18.7395 8.51621 18.7605C8.24559 18.7815 7.98375 18.8661 7.752 19.0074C6.209 19.9474 4.442 18.1814 5.382 16.6374C5.5231 16.4057 5.60755 16.144 5.62848 15.8736C5.64942 15.6032 5.60624 15.3316 5.50247 15.081C5.3987 14.8304 5.23726 14.6078 5.03127 14.4313C4.82529 14.2549 4.58056 14.1295 4.317 14.0654C2.561 13.6394 2.561 11.1414 4.317 10.7154C4.5808 10.6515 4.82578 10.5262 5.032 10.3497C5.23822 10.1732 5.39985 9.95049 5.50375 9.69973C5.60764 9.44897 5.65085 9.17722 5.62987 8.9066C5.60889 8.63598 5.5243 8.37413 5.383 8.14238C4.443 6.59938 6.209 4.83238 7.753 5.77238C8.753 6.38038 10.049 5.84238 10.325 4.70738Z" stroke="white" stroke-width="1.5" stroke-linecap="round" stroke-linejoin="round"/>
<path d="M9 12.3904C9 13.186 9.31607 13.9491 9.87868 14.5117C10.4413 15.0743 11.2044 15.3904 12 15.3904C12.7956 15.3904 13.5587 15.0743 14.1213 14.5117C14.6839 13.9491 15 13.186 15 12.3904C15 11.5947 14.6839 10.8317 14.1213 10.2691C13.5587 9.70645 12.7956 9.39038 12 9.39038C11.2044 9.39038 10.4413 9.70645 9.87868 10.2691C9.31607 10.8317 9 11.5947 9 12.3904Z" stroke="white" stroke-width="1.5" stroke-linecap="round" stroke-linejoin="round"/>
</g>
<defs>
<clipPath id="clip0_389_277">
<rect width="24" height="24" fill="white" transform="translate(0 0.390381)"/>
</clipPath>
</defs>
</svg>
