<svg width="17" height="17" viewBox="0 0 17 17" fill="none" xmlns="http://www.w3.org/2000/svg">
<path fill-rule="evenodd" clip-rule="evenodd" d="M8.5293 12.5C9.63387 12.5 10.5293 13.3954 10.5293 14.5C10.5293 15.6046 9.63387 16.5 8.5293 16.5C7.42473 16.5 6.5293 15.6046 6.5293 14.5C6.5293 13.3954 7.42473 12.5 8.5293 12.5ZM8.5293 0.5C9.63387 0.5 10.5293 1.39543 10.5293 2.5C10.5293 3.60457 9.63387 4.5 8.5293 4.5C7.42473 4.5 6.5293 3.60457 6.5293 2.5C6.5293 1.39543 7.42473 0.5 8.5293 0.5ZM10.5293 8.5C10.5293 7.39543 9.63387 6.5 8.5293 6.5C7.42473 6.5 6.5293 7.39543 6.5293 8.5C6.5293 9.60457 7.42473 10.5 8.5293 10.5C9.63387 10.5 10.5293 9.60457 10.5293 8.5Z" fill="#A3A3A8"/>
</svg>
