<svg width="22" height="16" viewBox="0 0 22 16" fill="none" xmlns="http://www.w3.org/2000/svg">
<path d="M12.373 14.9698H17.442C18.0683 14.9698 18.6006 14.8285 19.0425 14.5824L12.373 10.6039V14.9698ZM20.5024 12.5019C20.5746 12.1797 20.6114 11.8385 20.6114 11.4846V9.90054H16.1412L20.5011 12.5019M0.44515 3.48831C0.370067 3.82537 0.332875 4.16977 0.334266 4.51509V6.09914H4.82156L0.44515 3.48831ZM8.57132 1.03018H3.50236C2.88047 1.03018 2.35171 1.16958 1.91166 1.41225L8.57132 5.38505V1.03018ZM1.93194 14.5979C2.36787 14.8336 2.88965 14.9698 3.50236 14.9698H8.57132V10.6371L1.93194 14.5979ZM0.334266 9.90086V11.4849C0.334266 11.8496 0.372917 12.2009 0.449268 12.5313L4.85894 9.90086H0.334266ZM19.0625 1.42778C18.617 1.17496 18.0775 1.03018 17.442 1.03018H12.373V5.41831L19.0625 1.42778ZM20.6101 6.09914V4.51509C20.6101 4.1685 20.5743 3.83427 20.5049 3.51809L16.1786 6.09914H20.6101Z" fill="#2E3192"/>
<path d="M16.1785 6.09914L20.5049 3.51809C20.3065 2.61075 19.8237 1.85959 19.0624 1.42778L12.373 5.41831V1.03018H11.7394V6.73276H20.6101V6.09914H16.1785ZM0.334229 9.26724V9.90086H4.85891L0.44923 12.5313C0.658642 13.4358 1.15603 14.1784 1.9319 14.5979L8.57128 10.6371V14.9698H9.2049V9.26724H0.334229ZM20.6101 9.26724H11.7394V14.9698H12.373V10.6039L19.0425 14.5827C19.8095 14.1556 20.2983 13.4086 20.5011 12.5025L16.1411 9.90086H20.6101V9.26724ZM8.57128 1.03018V5.38505L1.91162 1.41225C1.14178 1.83678 0.649771 2.58255 0.444795 3.48831L4.82152 6.09914H0.334229V6.73276H9.2049V1.03018H8.57128Z" fill="#E6E7E8"/>
<path d="M11.7394 6.73276V1.03018H9.2049V6.73276H0.334229V9.26724H9.2049V14.9698H11.7394V9.26724H20.6101V6.73276H11.7394Z" fill="#BE1E2D"/>
<path d="M7.28451 6.09914L0.932472 2.30724C0.795927 2.51 0.686311 2.73303 0.595703 2.97064L5.83795 6.09914H7.28356M20.3219 13.0975L14.9953 9.90086H13.5203L19.9556 13.772C20.1049 13.5634 20.2279 13.3373 20.3219 13.0987M19.5707 1.78767L12.3633 6.09914L13.8266 6.10009L20.0459 2.37662C19.9072 2.12413 19.7608 1.96129 19.5707 1.78767ZM0.908711 13.663C1.05122 13.88 1.22272 14.0766 1.41846 14.2472L8.59135 9.90086H7.14574L0.908711 13.663Z" fill="#BE1E2D"/>
</svg>
