<svg width="18" height="18" viewBox="0 0 18 18" fill="none" xmlns="http://www.w3.org/2000/svg">
<path d="M16.3122 6.7501C16.3131 7.59204 16.1039 8.42089 15.7037 9.16162C15.3035 9.90235 14.7249 10.5316 14.0202 10.9923C13.3155 11.4531 12.5071 11.7308 11.668 11.8004C10.829 11.8699 9.98579 11.7291 9.21487 11.3907L5.5544 15.6249C5.54596 15.6348 5.53612 15.6453 5.52698 15.6545C5.10497 16.0765 4.53261 16.3136 3.9358 16.3136C3.339 16.3136 2.76664 16.0765 2.34463 15.6545C1.92263 15.2325 1.68555 14.6601 1.68555 14.0633C1.68555 13.4665 1.92263 12.8941 2.34463 12.4721C2.35448 12.463 2.36432 12.4532 2.37487 12.4447L6.60909 8.78495C6.22972 7.91716 6.10115 6.96042 6.23794 6.02326C6.37473 5.08611 6.77141 4.20604 7.38299 3.48289C7.99457 2.75974 8.79657 2.22245 9.69801 1.93197C10.5995 1.6415 11.5643 1.60945 12.483 1.83948C12.5777 1.86322 12.6646 1.9112 12.7351 1.9787C12.8057 2.04621 12.8574 2.13091 12.8853 2.22448C12.9132 2.31805 12.9162 2.41727 12.8941 2.51238C12.8721 2.60748 12.8256 2.6952 12.7593 2.7669L10.1247 5.6251L10.5227 7.47784L12.3747 7.8751L15.2329 5.23698C15.3046 5.17071 15.3923 5.12424 15.4874 5.10215C15.5825 5.08006 15.6818 5.0831 15.7753 5.11098C15.8689 5.13886 15.9536 5.19062 16.0211 5.26116C16.0886 5.3317 16.1366 5.4186 16.1603 5.51331C16.2613 5.91782 16.3123 6.33318 16.3122 6.7501Z" fill="white"/>
</svg>
